<svg width="20" height="20" viewBox="0 0 20 20" fill="none" xmlns="http://www.w3.org/2000/svg">
<mask id="mask0_183_156" style="mask-type:alpha" maskUnits="userSpaceOnUse" x="0" y="0" width="20" height="20">
<circle cx="10" cy="10" r="9" fill="#C4C4C4" stroke="white" stroke-width="2"/>
</mask>
<g mask="url(#mask0_183_156)">
<path d="M28.6053 -0.678711H-8.82422V20.7096H28.6053V-0.678711Z" fill="#002173"/>
<path d="M29.6949 18.1297L-8.56445 -1L-9.99918 1.86945L28.2602 20.9991L29.6949 18.1297Z" fill="white"/>
<path d="M-9.28348 0.436093L-9.76172 1.39258L9.36797 10.9574L9.84621 10.0009L-9.28348 0.436093Z" fill="#C61018"/>
<path d="M10.3259 9.04498L9.84766 10.0015L28.9773 19.5663L29.4556 18.6098L10.3259 9.04498Z" fill="#C61018"/>
<path d="M28.2594 -0.998831L-10 18.1309L-8.56527 21.0003L29.6941 1.87062L28.2594 -0.998831Z" fill="white"/>
<path d="M9.84845 9.99961L-9.28125 19.5645L-8.80301 20.5209L10.3267 10.9561L9.84845 9.99961Z" fill="#C61018"/>
<path d="M28.5008 -0.520411L9.37109 9.04443L9.84934 10.0009L28.979 0.436074L28.5008 -0.520411Z" fill="#C61018"/>
<path d="M28.5623 7.32676H12.5211V-0.693848H7.17403V7.32676H-8.86719V12.6738H7.17403V20.6944H12.5211V12.6738H28.5623V7.32676Z" fill="white"/>
<path d="M28.5623 8.39618H11.4517V-0.693848H8.24345V8.39618H-8.86719V11.6044H8.24345V20.6944H11.4517V11.6044H28.5623V8.39618Z" fill="#C61018"/>
</g>
</svg>
