<svg width="312" height="50" viewBox="0 0 312 50" fill="none" xmlns="http://www.w3.org/2000/svg">
<path fill-rule="evenodd" clip-rule="evenodd" d="M42.5616 24.1442C42.2438 23.9154 41.9445 23.6977 41.6577 23.4892C39.9022 22.2128 38.6194 21.28 36.4802 20.2449C37.3349 17.7877 37.5828 16.0198 37.8788 13.9082L37.9764 13.2167C38.0758 12.5206 37.4781 11.9243 36.7832 12.0236C36.5384 12.0585 36.2979 12.0922 36.0603 12.1253C34.0413 12.4066 32.2283 12.6595 29.7551 13.5197C28.7191 11.3787 27.7832 10.0918 26.5102 8.34143L26.494 8.31902C26.2904 8.03931 26.0782 7.74729 25.8556 7.43835C25.6575 7.16304 25.3389 7 24.9998 7C24.6606 7 24.3422 7.16304 24.1439 7.43835C23.9152 7.75586 23.6977 8.05513 23.4893 8.34165C22.2126 10.0975 21.2795 11.3809 20.2445 13.5197C17.7873 12.665 16.0193 12.4171 13.9081 12.1212C13.6819 12.0895 13.4517 12.0572 13.2164 12.0236C12.5202 11.9241 11.924 12.522 12.0231 13.2167C12.0582 13.463 12.0919 13.705 12.1252 13.9438C12.4075 15.9675 12.6593 17.7723 13.5193 20.2449C11.3792 21.2803 10.0924 22.2161 8.34335 23.4883C8.05601 23.6973 7.75619 23.9152 7.43803 24.1442C6.85427 24.5645 6.85372 25.4353 7.43803 25.8561C7.75619 26.0852 8.0559 26.3032 8.34297 26.512L8.34495 26.5133C10.0991 27.789 11.3818 28.7215 13.5193 29.7556C12.6644 32.2132 12.4165 33.9816 12.1204 36.0934L12.0231 36.7835C11.9236 37.4798 12.5216 38.0762 13.2163 37.9769C13.4611 37.9419 13.7016 37.9083 13.9392 37.8751C15.9581 37.5939 17.7712 37.341 20.2444 36.4807C21.2799 38.6211 22.2157 39.9078 23.4882 41.6573L23.504 41.679C23.708 41.9596 23.9207 42.2521 24.1439 42.5619C24.564 43.1457 25.435 43.1464 25.8556 42.5619C26.0727 42.2604 26.2798 41.9754 26.4786 41.7023L26.5101 41.6588C27.7869 39.903 28.7201 38.6196 29.7551 36.4807C32.2121 37.3353 33.98 37.5833 36.0915 37.8795H36.0931C36.3188 37.9112 36.5484 37.9432 36.7832 37.9769C37.1075 38.023 37.4403 37.9164 37.6781 37.6785C37.9129 37.4438 38.0233 37.1122 37.9764 36.7835L37.9245 36.4155L37.8742 36.0571C37.5921 34.0334 37.3404 32.2281 36.4802 29.7556C38.6209 28.7198 39.9084 27.7835 41.6567 26.512C41.9439 26.303 42.2436 26.085 42.5616 25.8561C42.8368 25.6579 42.9999 25.3393 42.9999 25.0002C42.9999 24.661 42.8369 24.3426 42.5616 24.1442ZM35.6894 14.3105L35.6592 14.5252C35.5192 15.5236 35.2812 17.2221 34.5393 19.4014C33.5688 19.0254 32.5736 18.7057 31.555 18.4449C31.2942 17.4265 30.9745 16.4313 30.5988 15.4608C32.762 14.7243 34.4296 14.4887 35.5 14.3376L35.6894 14.3105ZM24.9998 9.85974L25.2793 10.2456L25.2813 10.2482C26.0476 11.3036 26.8742 12.442 27.7863 14.2958C27.3332 14.496 26.8852 14.7089 26.4425 14.935C26.171 15.0739 25.9016 15.2173 25.6341 15.3659L25.4358 15.4773L25.269 15.5724C25.179 15.6243 25.0892 15.6768 24.9998 15.7297C24.0952 15.194 23.1654 14.7164 22.2134 14.2958C23.1053 12.4831 23.8768 11.415 24.7735 10.1735L24.9998 9.85974ZM19.4009 15.4608C19.0252 16.4311 18.7055 17.4263 18.4447 18.4449C17.4261 18.7057 16.431 19.0254 15.4604 19.4012C14.7223 17.2333 14.4857 15.5542 14.3385 14.5109L14.3102 14.3105L14.5293 14.3413C15.503 14.4773 17.216 14.7168 19.4009 15.4608ZM9.85936 25.0002L10.2449 24.7212C11.3009 23.9541 12.4398 23.1268 14.2955 22.2139C14.716 23.1657 15.1935 24.0956 15.7293 25.0002C15.1935 25.9048 14.716 26.8347 14.2955 27.7866C12.4823 26.8945 11.4142 26.123 10.1726 25.2263L9.85936 25.0002ZM14.3102 35.6897C14.4419 34.768 14.6568 32.9594 15.4604 30.5991C16.4308 30.9748 17.426 31.2945 18.4446 31.5553C18.7054 32.574 19.0251 33.5691 19.4009 34.5397C17.2362 35.2766 15.5678 35.5122 14.4975 35.6631L14.3102 35.6897ZM24.9998 40.1407C24.9076 40.0126 24.8146 39.8845 24.7206 39.7551C23.9537 38.6991 23.1264 37.5603 22.2134 35.7047C23.1654 35.2841 24.0951 34.8064 24.9998 34.2707C25.9044 34.8064 26.8343 35.2841 27.7863 35.7047C26.8947 37.5165 26.1237 38.5842 25.2277 39.825L24.9998 40.1407ZM29.6542 30.4457C29.3916 31.5857 29.0494 32.6946 28.6329 33.7711C27.5773 33.3046 26.551 32.7623 25.5592 32.142C25.217 31.928 24.7827 31.928 24.4406 32.142C23.4487 32.7623 22.4226 33.3046 21.3669 33.7711C20.9503 32.6948 20.6081 31.5857 20.3455 30.4457C20.2549 30.0524 19.9478 29.7452 19.5545 29.6547C18.4146 29.3921 17.3055 29.0498 16.2291 28.6332C16.6957 27.5776 17.2378 26.5513 17.8582 25.5597C18.0723 25.2175 18.0723 24.7831 17.8582 24.441C17.2378 23.4492 16.6957 22.4231 16.2291 21.3673C17.3054 20.9507 18.4146 20.6086 19.5545 20.346C19.9478 20.2552 20.2549 19.9483 20.3455 19.555C20.6081 18.415 20.9505 17.3058 21.3669 16.2294C22.4225 16.6961 23.4487 17.2382 24.4406 17.8587C24.7827 18.0727 25.217 18.0727 25.5592 17.8587C26.551 17.2382 27.5772 16.6961 28.6329 16.2294C29.0494 17.3058 29.3917 18.415 29.6542 19.555C29.7448 19.9483 30.0519 20.2552 30.4452 20.346C31.5851 20.6086 32.6942 20.9507 33.7707 21.3673C33.304 22.4231 32.7619 23.4492 32.1415 24.441C31.9275 24.7831 31.9275 25.2173 32.1415 25.5597C32.7619 26.5513 33.3041 27.5776 33.7707 28.6332C32.6943 29.0498 31.5852 29.3921 30.4452 29.6547C30.0519 29.7452 29.7448 30.0524 29.6542 30.4457ZM30.5987 34.5397C30.9744 33.5691 31.2941 32.574 31.555 31.5553C32.5736 31.2945 33.5686 30.9748 34.5392 30.5991C35.2774 32.7674 35.5141 34.4467 35.661 35.4893L35.6894 35.6897L35.4733 35.6592C34.5001 35.5234 32.7859 35.2843 30.5987 34.5397ZM35.7041 27.7866C35.2837 26.8347 34.8061 25.9048 34.2703 25.0002C34.8061 24.0956 35.2837 23.1657 35.7041 22.2139C37.5163 23.1053 38.5844 23.8768 39.8253 24.7733L40.1403 25.0002L39.9051 25.1701L39.754 25.2797C38.6981 26.0468 37.5594 26.8738 35.7041 27.7866ZM24.9991 26.0549C25.5816 26.0549 26.0538 25.5827 26.0538 25.0002C26.0538 24.4177 25.5816 23.9455 24.9991 23.9455C24.4166 23.9455 23.9444 24.4177 23.9444 25.0002C23.9444 25.5827 24.4166 26.0549 24.9991 26.0549ZM19.7257 25.0002C19.7257 22.0924 22.0914 19.7268 24.9991 19.7268C27.907 19.7268 30.2726 22.0926 30.2727 25.0002C30.2727 27.9081 27.907 30.2737 24.9991 30.2737C22.0914 30.2737 19.7257 27.9081 19.7257 25.0002ZM21.8352 25.0002C21.8352 26.7451 23.2545 28.1645 24.9991 28.1645C26.7439 28.1645 28.1633 26.7449 28.1633 25.0002C28.1633 23.2556 26.7439 21.8362 24.9991 21.8362C23.2545 21.8362 21.8352 23.2556 21.8352 25.0002Z" fill="url(#paint0_linear_45_244)"/>
<path d="M68.576 16L67.664 13.488H62.624L61.712 16H60.128L64.304 4.8H65.984L70.16 16H68.576ZM63.136 12.096H67.152L65.136 6.576L63.136 12.096ZM76.6653 11.888C77.4866 12.2293 77.8973 12.848 77.8973 13.744C77.8973 14.4053 77.6733 14.9493 77.2253 15.376C76.7879 15.792 76.1586 16 75.3373 16H71.3372V8H75.0173C75.8173 8 76.4359 8.20267 76.8733 8.608C77.3106 9.00267 77.5293 9.52533 77.5293 10.176C77.5293 10.944 77.2413 11.5147 76.6653 11.888ZM74.9533 9.248H72.6973V11.344H74.9533C75.7639 11.344 76.1693 10.9867 76.1693 10.272C76.1693 9.58933 75.7639 9.248 74.9533 9.248ZM75.2573 14.736C75.6626 14.736 75.9719 14.64 76.1853 14.448C76.4093 14.256 76.5213 13.984 76.5213 13.632C76.5213 13.3013 76.4093 13.0453 76.1853 12.864C75.9719 12.672 75.6626 12.576 75.2573 12.576H72.6973V14.736H75.2573ZM85.0705 8V9.344H82.3505V16H80.9585V9.344H78.2225V8H85.0705ZM92.7299 14.992C91.9085 15.8027 90.9112 16.208 89.7379 16.208C88.5645 16.208 87.5672 15.8027 86.7459 14.992C85.9352 14.1813 85.5299 13.184 85.5299 12C85.5299 10.816 85.9352 9.81867 86.7459 9.008C87.5672 8.19733 88.5645 7.792 89.7379 7.792C90.9112 7.792 91.9085 8.19733 92.7299 9.008C93.5512 9.81867 93.9619 10.816 93.9619 12C93.9619 13.184 93.5512 14.1813 92.7299 14.992ZM89.7379 14.848C90.5379 14.848 91.2099 14.576 91.7539 14.032C92.2979 13.488 92.5699 12.8107 92.5699 12C92.5699 11.1893 92.2979 10.512 91.7539 9.968C91.2099 9.424 90.5379 9.152 89.7379 9.152C88.9485 9.152 88.2819 9.424 87.7379 9.968C87.1939 10.512 86.9219 11.1893 86.9219 12C86.9219 12.8107 87.1939 13.488 87.7379 14.032C88.2819 14.576 88.9485 14.848 89.7379 14.848ZM100.019 7.792C101.139 7.792 102.094 8.20267 102.883 9.024C103.672 9.83467 104.067 10.8267 104.067 12C104.067 13.1733 103.672 14.1707 102.883 14.992C102.094 15.8027 101.139 16.208 100.019 16.208C98.6962 16.208 97.6882 15.68 96.9949 14.624V19.2H95.6029V8H96.9949V9.376C97.6882 8.32 98.6962 7.792 100.019 7.792ZM99.8429 14.864C100.643 14.864 101.315 14.592 101.859 14.048C102.403 13.4933 102.675 12.8107 102.675 12C102.675 11.1893 102.403 10.512 101.859 9.968C101.315 9.41333 100.643 9.136 99.8429 9.136C99.0322 9.136 98.3549 9.41333 97.8109 9.968C97.2669 10.512 96.9949 11.1893 96.9949 12C96.9949 12.8107 97.2669 13.4933 97.8109 14.048C98.3549 14.592 99.0322 14.864 99.8429 14.864ZM109.488 16.208C108.283 16.208 107.28 15.808 106.48 15.008C105.68 14.1973 105.28 13.1947 105.28 12C105.28 10.8053 105.68 9.808 106.48 9.008C107.28 8.19733 108.283 7.792 109.488 7.792C110.277 7.792 110.987 7.984 111.616 8.368C112.245 8.74133 112.715 9.248 113.024 9.888L111.856 10.56C111.653 10.1333 111.339 9.792 110.912 9.536C110.496 9.28 110.021 9.152 109.488 9.152C108.688 9.152 108.016 9.424 107.472 9.968C106.939 10.512 106.672 11.1893 106.672 12C106.672 12.8 106.939 13.472 107.472 14.016C108.016 14.56 108.688 14.832 109.488 14.832C110.021 14.832 110.501 14.7093 110.928 14.464C111.355 14.208 111.68 13.8667 111.904 13.44L113.088 14.128C112.747 14.7573 112.256 15.264 111.616 15.648C110.976 16.0213 110.267 16.208 109.488 16.208ZM121.246 16H119.518L115.87 12.208V16H114.478V8H115.87V11.536L119.326 8H121.118L117.294 11.872L121.246 16ZM128.348 8H129.468V16H128.092V10.384L123.66 16H122.54V8H123.916V13.616L128.348 8ZM132.563 12.64C132.702 13.3547 133.027 13.9093 133.539 14.304C134.062 14.6987 134.702 14.896 135.459 14.896C136.515 14.896 137.283 14.5067 137.763 13.728L138.947 14.4C138.169 15.6053 136.995 16.208 135.427 16.208C134.158 16.208 133.123 15.8133 132.323 15.024C131.534 14.224 131.139 13.216 131.139 12C131.139 10.7947 131.529 9.792 132.307 8.992C133.086 8.192 134.094 7.792 135.331 7.792C136.505 7.792 137.459 8.208 138.195 9.04C138.942 9.86133 139.315 10.8533 139.315 12.016C139.315 12.2187 139.299 12.4267 139.267 12.64H132.563ZM135.331 9.104C134.585 9.104 133.966 9.31733 133.475 9.744C132.985 10.16 132.681 10.72 132.563 11.424H137.907C137.79 10.6667 137.491 10.0907 137.011 9.696C136.531 9.30133 135.971 9.104 135.331 9.104ZM66.384 33.888C67.2053 34.2293 67.616 34.848 67.616 35.744C67.616 36.4053 67.392 36.9493 66.944 37.376C66.5067 37.792 65.8773 38 65.056 38H61.056V30H64.736C65.536 30 66.1547 30.2027 66.592 30.608C67.0293 31.0027 67.248 31.5253 67.248 32.176C67.248 32.944 66.96 33.5147 66.384 33.888ZM64.672 31.248H62.416V33.344H64.672C65.4827 33.344 65.888 32.9867 65.888 32.272C65.888 31.5893 65.4827 31.248 64.672 31.248ZM64.976 36.736C65.3813 36.736 65.6907 36.64 65.904 36.448C66.128 36.256 66.24 35.984 66.24 35.632C66.24 35.3013 66.128 35.0453 65.904 34.864C65.6907 34.672 65.3813 34.576 64.976 34.576H62.416V36.736H64.976ZM72.4945 32.88C73.2945 32.88 73.9558 33.12 74.4785 33.6C75.0118 34.0693 75.2785 34.6827 75.2785 35.44C75.2785 36.1973 75.0118 36.816 74.4785 37.296C73.9558 37.7653 73.2945 38 72.4945 38H69.1185V30H70.5105V32.88H72.4945ZM76.3185 30H77.7105V38H76.3185V30ZM72.4945 36.704C72.8892 36.704 73.2198 36.592 73.4865 36.368C73.7638 36.1333 73.9025 35.824 73.9025 35.44C73.9025 35.056 73.7638 34.7467 73.4865 34.512C73.2198 34.2773 72.8892 34.16 72.4945 34.16H70.5105V36.704H72.4945ZM89.4053 30H90.7973V38H79.8372V30H81.2293V36.672H84.6213V30H86.0133V36.672H89.4053V30ZM98.739 30H99.859V38H98.483V32.384L94.051 38H92.931V30H94.307V35.616L98.739 30ZM107.93 30V31.344H105.21V38H103.818V31.344H101.082V30H107.93ZM112.526 32.88C113.326 32.88 113.987 33.12 114.51 33.6C115.043 34.0693 115.31 34.6827 115.31 35.44C115.31 36.1973 115.043 36.816 114.51 37.296C113.987 37.7653 113.326 38 112.526 38H109.15V30H110.542V32.88H112.526ZM116.35 30H117.742V38H116.35V30ZM112.526 36.704C112.92 36.704 113.251 36.592 113.518 36.368C113.795 36.1333 113.934 35.824 113.934 35.44C113.934 35.056 113.795 34.7467 113.518 34.512C113.251 34.2773 112.92 34.16 112.526 34.16H110.542V36.704H112.526ZM120.845 34.64C120.983 35.3547 121.309 35.9093 121.821 36.304C122.343 36.6987 122.983 36.896 123.741 36.896C124.797 36.896 125.565 36.5067 126.045 35.728L127.229 36.4C126.45 37.6053 125.277 38.208 123.709 38.208C122.439 38.208 121.405 37.8133 120.605 37.024C119.815 36.224 119.421 35.216 119.421 34C119.421 32.7947 119.81 31.792 120.589 30.992C121.367 30.192 122.375 29.792 123.613 29.792C124.786 29.792 125.741 30.208 126.477 31.04C127.223 31.8613 127.597 32.8533 127.597 34.016C127.597 34.2187 127.581 34.4267 127.549 34.64H120.845ZM123.613 31.104C122.866 31.104 122.247 31.3173 121.757 31.744C121.266 32.16 120.962 32.72 120.845 33.424H126.189C126.071 32.6667 125.773 32.0907 125.293 31.696C124.813 31.3013 124.253 31.104 123.613 31.104ZM142.765 30H144.157V38H133.197V30H134.589V36.672H137.981V30H139.373V36.672H142.765V30ZM147.266 34.64C147.405 35.3547 147.73 35.9093 148.242 36.304C148.765 36.6987 149.405 36.896 150.162 36.896C151.218 36.896 151.986 36.5067 152.466 35.728L153.65 36.4C152.872 37.6053 151.698 38.208 150.13 38.208C148.861 38.208 147.826 37.8133 147.026 37.024C146.237 36.224 145.842 35.216 145.842 34C145.842 32.7947 146.232 31.792 147.01 30.992C147.789 30.192 148.797 29.792 150.034 29.792C151.208 29.792 152.162 30.208 152.898 31.04C153.645 31.8613 154.018 32.8533 154.018 34.016C154.018 34.2187 154.002 34.4267 153.97 34.64H147.266ZM150.034 31.104C149.288 31.104 148.669 31.3173 148.178 31.744C147.688 32.16 147.384 32.72 147.266 33.424H152.61C152.493 32.6667 152.194 32.0907 151.714 31.696C151.234 31.3013 150.674 31.104 150.034 31.104ZM160.947 33.888C161.768 34.2293 162.179 34.848 162.179 35.744C162.179 36.4053 161.955 36.9493 161.507 37.376C161.069 37.792 160.44 38 159.619 38H155.618V30H159.299C160.099 30 160.717 30.2027 161.155 30.608C161.592 31.0027 161.811 31.5253 161.811 32.176C161.811 32.944 161.523 33.5147 160.947 33.888ZM159.235 31.248H156.979V33.344H159.235C160.045 33.344 160.451 32.9867 160.451 32.272C160.451 31.5893 160.045 31.248 159.235 31.248ZM159.539 36.736C159.944 36.736 160.253 36.64 160.467 36.448C160.691 36.256 160.803 35.984 160.803 35.632C160.803 35.3013 160.691 35.0453 160.467 34.864C160.253 34.672 159.944 34.576 159.539 34.576H156.979V36.736H159.539ZM168.097 29.792C169.217 29.792 170.172 30.2027 170.961 31.024C171.75 31.8347 172.145 32.8267 172.145 34C172.145 35.1733 171.75 36.1707 170.961 36.992C170.172 37.8027 169.217 38.208 168.097 38.208C166.774 38.208 165.766 37.68 165.073 36.624V41.2H163.681V30H165.073V31.376C165.766 30.32 166.774 29.792 168.097 29.792ZM167.921 36.864C168.721 36.864 169.393 36.592 169.937 36.048C170.481 35.4933 170.753 34.8107 170.753 34C170.753 33.1893 170.481 32.512 169.937 31.968C169.393 31.4133 168.721 31.136 167.921 31.136C167.11 31.136 166.433 31.4133 165.889 31.968C165.345 32.512 165.073 33.1893 165.073 34C165.073 34.8107 165.345 35.4933 165.889 36.048C166.433 36.592 167.11 36.864 167.921 36.864ZM180.558 36.992C179.737 37.8027 178.739 38.208 177.566 38.208C176.393 38.208 175.395 37.8027 174.574 36.992C173.763 36.1813 173.358 35.184 173.358 34C173.358 32.816 173.763 31.8187 174.574 31.008C175.395 30.1973 176.393 29.792 177.566 29.792C178.739 29.792 179.737 30.1973 180.558 31.008C181.379 31.8187 181.79 32.816 181.79 34C181.79 35.184 181.379 36.1813 180.558 36.992ZM177.566 36.848C178.366 36.848 179.038 36.576 179.582 36.032C180.126 35.488 180.398 34.8107 180.398 34C180.398 33.1893 180.126 32.512 179.582 31.968C179.038 31.424 178.366 31.152 177.566 31.152C176.777 31.152 176.11 31.424 175.566 31.968C175.022 32.512 174.75 33.1893 174.75 34C174.75 34.8107 175.022 35.488 175.566 36.032C176.11 36.576 176.777 36.848 177.566 36.848ZM188.967 30H190.359V38H188.967V34.656H184.823V38H183.431V30H184.823V33.328H188.967V30ZM195.854 32.88C196.654 32.88 197.315 33.12 197.838 33.6C198.371 34.0693 198.638 34.6827 198.638 35.44C198.638 36.1973 198.371 36.816 197.838 37.296C197.315 37.7653 196.654 38 195.854 38H192.478V30H193.87V32.88H195.854ZM199.678 30H201.07V38H199.678V30ZM195.854 36.704C196.249 36.704 196.579 36.592 196.846 36.368C197.123 36.1333 197.262 35.824 197.262 35.44C197.262 35.056 197.123 34.7467 196.846 34.512C196.579 34.2773 196.249 34.16 195.854 34.16H193.87V36.704H195.854Z" fill="#4E5B67"/>
<defs>
<linearGradient id="paint0_linear_45_244" x1="6.70248" y1="7" x2="47.671" y2="13.4833" gradientUnits="userSpaceOnUse">
<stop stop-color="#67ADD7"/>
<stop offset="1" stop-color="#67ADD7"/>
</linearGradient>
</defs>
</svg>
