<svg width="312" height="50" viewBox="0 0 312 50" fill="none" xmlns="http://www.w3.org/2000/svg">
<path d="M159.759 4.8V6.208H156.447V16H154.975V6.208H151.679V4.8H159.759ZM164.41 7.792C165.53 7.792 166.484 8.20267 167.274 9.024C168.063 9.83467 168.458 10.8267 168.458 12C168.458 13.1733 168.063 14.1707 167.274 14.992C166.484 15.8027 165.53 16.208 164.41 16.208C163.087 16.208 162.079 15.68 161.386 14.624V19.2H159.993V8H161.386V9.376C162.079 8.32 163.087 7.792 164.41 7.792ZM164.234 14.864C165.034 14.864 165.706 14.592 166.25 14.048C166.794 13.4933 167.066 12.8107 167.066 12C167.066 11.1893 166.794 10.512 166.25 9.968C165.706 9.41333 165.034 9.136 164.234 9.136C163.423 9.136 162.746 9.41333 162.202 9.968C161.658 10.512 161.386 11.1893 161.386 12C161.386 12.8107 161.658 13.4933 162.202 14.048C162.746 14.592 163.423 14.864 164.234 14.864ZM175.927 8H177.047V16H175.671V10.384L171.239 16H170.118V8H171.495V13.616L175.927 8ZM185.933 16H184.205L180.557 12.208V16H179.165V8H180.557V11.536L184.013 8H185.805L181.981 11.872L185.933 16ZM193.246 14.992C192.424 15.8027 191.427 16.208 190.254 16.208C189.08 16.208 188.083 15.8027 187.262 14.992C186.451 14.1813 186.046 13.184 186.046 12C186.046 10.816 186.451 9.81867 187.262 9.008C188.083 8.19733 189.08 7.792 190.254 7.792C191.427 7.792 192.424 8.19733 193.246 9.008C194.067 9.81867 194.477 10.816 194.477 12C194.477 13.184 194.067 14.1813 193.246 14.992ZM190.254 14.848C191.054 14.848 191.726 14.576 192.27 14.032C192.814 13.488 193.086 12.8107 193.086 12C193.086 11.1893 192.814 10.512 192.27 9.968C191.726 9.424 191.054 9.152 190.254 9.152C189.464 9.152 188.798 9.424 188.254 9.968C187.71 10.512 187.438 11.1893 187.438 12C187.438 12.8107 187.71 13.488 188.254 14.032C188.798 14.576 189.464 14.848 190.254 14.848ZM201.758 8V9.344H199.038V16H197.646V9.344H194.91V8H201.758ZM209.289 8H210.681V16H209.289V14.624C208.596 15.68 207.588 16.208 206.265 16.208C205.145 16.208 204.191 15.8027 203.401 14.992C202.612 14.1707 202.217 13.1733 202.217 12C202.217 10.8267 202.612 9.83467 203.401 9.024C204.191 8.20267 205.145 7.792 206.265 7.792C207.588 7.792 208.596 8.32 209.289 9.376V8ZM206.441 14.864C207.252 14.864 207.929 14.592 208.473 14.048C209.017 13.4933 209.289 12.8107 209.289 12C209.289 11.1893 209.017 10.512 208.473 9.968C207.929 9.41333 207.252 9.136 206.441 9.136C205.641 9.136 204.969 9.41333 204.425 9.968C203.881 10.512 203.609 11.1893 203.609 12C203.609 12.8107 203.881 13.4933 204.425 14.048C204.969 14.592 205.641 14.864 206.441 14.864ZM222.63 16H220.998L218.006 12.208V16H216.63V12.208L213.638 16H212.022L215.366 11.872L212.182 8H213.798L216.63 11.536V8H218.006V11.536L220.838 8H222.47L219.27 11.872L222.63 16ZM229.498 8H230.89V16H229.498V12.656H225.354V16H223.962V8H225.354V11.328H229.498V8ZM236.385 10.88C237.185 10.88 237.846 11.12 238.369 11.6C238.902 12.0693 239.169 12.6827 239.169 13.44C239.169 14.1973 238.902 14.816 238.369 15.296C237.846 15.7653 237.185 16 236.385 16H233.009V8H234.401V10.88H236.385ZM240.209 8H241.601V16H240.209V8ZM236.385 14.704C236.78 14.704 237.11 14.592 237.377 14.368C237.654 14.1333 237.793 13.824 237.793 13.44C237.793 13.056 237.654 12.7467 237.377 12.512C237.11 12.2773 236.78 12.16 236.385 12.16H234.401V14.704H236.385ZM244.704 12.64C244.843 13.3547 245.168 13.9093 245.68 14.304C246.203 14.6987 246.843 14.896 247.6 14.896C248.656 14.896 249.424 14.5067 249.904 13.728L251.088 14.4C250.309 15.6053 249.136 16.208 247.568 16.208C246.299 16.208 245.264 15.8133 244.464 15.024C243.675 14.224 243.28 13.216 243.28 12C243.28 10.7947 243.669 9.792 244.448 8.992C245.227 8.192 246.235 7.792 247.472 7.792C248.645 7.792 249.6 8.208 250.336 9.04C251.083 9.86133 251.456 10.8533 251.456 12.016C251.456 12.2187 251.44 12.4267 251.408 12.64H244.704ZM247.472 9.104C246.725 9.104 246.107 9.31733 245.616 9.744C245.125 10.16 244.821 10.72 244.704 11.424H250.048C249.931 10.6667 249.632 10.0907 249.152 9.696C248.672 9.30133 248.112 9.104 247.472 9.104ZM118.25 30V38H116.858V31.328H112.714V38H111.322V30H118.25ZM127.121 36.992C126.299 37.8027 125.302 38.208 124.129 38.208C122.955 38.208 121.958 37.8027 121.137 36.992C120.326 36.1813 119.921 35.184 119.921 34C119.921 32.816 120.326 31.8187 121.137 31.008C121.958 30.1973 122.955 29.792 124.129 29.792C125.302 29.792 126.299 30.1973 127.121 31.008C127.942 31.8187 128.352 32.816 128.352 34C128.352 35.184 127.942 36.1813 127.121 36.992ZM124.129 36.848C124.929 36.848 125.601 36.576 126.145 36.032C126.689 35.488 126.961 34.8107 126.961 34C126.961 33.1893 126.689 32.512 126.145 31.968C125.601 31.424 124.929 31.152 124.129 31.152C123.339 31.152 122.673 31.424 122.129 31.968C121.585 32.512 121.312 33.1893 121.312 34C121.312 34.8107 121.585 35.488 122.129 36.032C122.673 36.576 123.339 36.848 124.129 36.848ZM136.384 30V38H134.992V31.344H131.84V34.608C131.84 35.92 131.574 36.8373 131.04 37.36C130.518 37.872 129.776 38.0853 128.816 38V36.688C129.36 36.7627 129.766 36.6453 130.032 36.336C130.31 36.016 130.448 35.4293 130.448 34.576V30H136.384ZM145.246 36.992C144.424 37.8027 143.427 38.208 142.254 38.208C141.08 38.208 140.083 37.8027 139.262 36.992C138.451 36.1813 138.046 35.184 138.046 34C138.046 32.816 138.451 31.8187 139.262 31.008C140.083 30.1973 141.08 29.792 142.254 29.792C143.427 29.792 144.424 30.1973 145.246 31.008C146.067 31.8187 146.477 32.816 146.477 34C146.477 35.184 146.067 36.1813 145.246 36.992ZM142.254 36.848C143.054 36.848 143.726 36.576 144.27 36.032C144.814 35.488 145.086 34.8107 145.086 34C145.086 33.1893 144.814 32.512 144.27 31.968C143.726 31.424 143.054 31.152 142.254 31.152C141.464 31.152 140.798 31.424 140.254 31.968C139.71 32.512 139.438 33.1893 139.438 34C139.438 34.8107 139.71 35.488 140.254 36.032C140.798 36.576 141.464 36.848 142.254 36.848ZM153.758 30V31.344H151.038V38H149.646V31.344H146.91V30H153.758ZM160.514 30H161.906V38H160.514V34.656H156.37V38H154.978V30H156.37V33.328H160.514V30ZM170.649 30H172.041V38H170.649V36.624C169.955 37.68 168.947 38.208 167.625 38.208C166.505 38.208 165.55 37.8027 164.761 36.992C163.971 36.1707 163.577 35.1733 163.577 34C163.577 32.8267 163.971 31.8347 164.761 31.024C165.55 30.2027 166.505 29.792 167.625 29.792C168.947 29.792 169.955 30.32 170.649 31.376V30ZM167.801 36.864C168.611 36.864 169.289 36.592 169.833 36.048C170.377 35.4933 170.649 34.8107 170.649 34C170.649 33.1893 170.377 32.512 169.833 31.968C169.289 31.4133 168.611 31.136 167.801 31.136C167.001 31.136 166.329 31.4133 165.785 31.968C165.241 32.512 164.969 33.1893 164.969 34C164.969 34.8107 165.241 35.4933 165.785 36.048C166.329 36.592 167.001 36.864 167.801 36.864ZM183.958 30H185.078V38H183.702V32.384L179.27 38H178.15V30H179.526V35.616L183.958 30ZM191.517 33.904C192.402 34.2667 192.845 34.9013 192.845 35.808C192.845 36.48 192.578 37.0507 192.045 37.52C191.511 37.9787 190.754 38.208 189.773 38.208C188.173 38.208 187.101 37.568 186.557 36.288L187.725 35.6C188.034 36.4747 188.722 36.912 189.789 36.912C190.322 36.912 190.733 36.8 191.021 36.576C191.319 36.3413 191.469 36.0427 191.469 35.68C191.469 35.36 191.346 35.0987 191.101 34.896C190.866 34.6933 190.546 34.592 190.141 34.592H188.973V33.328H189.837C190.242 33.328 190.557 33.232 190.781 33.04C191.005 32.8373 191.117 32.5653 191.117 32.224C191.117 31.8827 190.983 31.6053 190.717 31.392C190.461 31.1787 190.103 31.072 189.645 31.072C188.749 31.072 188.141 31.4507 187.821 32.208L186.685 31.552C187.25 30.3787 188.237 29.792 189.645 29.792C190.519 29.792 191.207 30.016 191.709 30.464C192.221 30.912 192.477 31.4613 192.477 32.112C192.477 32.9227 192.157 33.52 191.517 33.904ZM205.457 38V29.648L199.697 38H198.497V26.8H199.985V35.168L205.745 26.8H206.945V38H205.457ZM215.149 30V31.344H212.429V38H211.037V31.344H208.301V30H215.149ZM222.68 30H224.072V38H222.68V36.624C221.987 37.68 220.979 38.208 219.656 38.208C218.536 38.208 217.581 37.8027 216.792 36.992C216.003 36.1707 215.608 35.1733 215.608 34C215.608 32.8267 216.003 31.8347 216.792 31.024C217.581 30.2027 218.536 29.792 219.656 29.792C220.979 29.792 221.987 30.32 222.68 31.376V30ZM219.832 36.864C220.643 36.864 221.32 36.592 221.864 36.048C222.408 35.4933 222.68 34.8107 222.68 34C222.68 33.1893 222.408 32.512 221.864 31.968C221.32 31.4133 220.643 31.136 219.832 31.136C219.032 31.136 218.36 31.4133 217.816 31.968C217.272 32.512 217 33.1893 217 34C217 34.8107 217.272 35.4933 217.816 36.048C218.36 36.592 219.032 36.864 219.832 36.864ZM232.853 30V38H231.461V31.344H228.309V34.608C228.309 35.92 228.042 36.8373 227.509 37.36C226.986 37.872 226.245 38.0853 225.285 38V36.688C225.829 36.7627 226.234 36.6453 226.501 36.336C226.778 36.016 226.917 35.4293 226.917 34.576V30H232.853ZM240.77 30H241.89V38H240.514V32.384L236.082 38H234.962V30H236.338V35.616L240.77 30ZM249.817 30H250.937V38H249.561V32.384L245.129 38H244.009V30H245.385V35.616L249.817 30Z" fill="#4E5B67"/>
<path d="M305.709 17.551C305.709 16.5887 305.328 15.7138 304.71 15.0687C305.328 14.424 305.709 13.5491 305.709 12.5868C305.709 10.6091 304.1 9 302.123 9H281.434C278.088 9 275.366 11.7225 275.366 15.0687C275.366 16.5363 275.889 17.8836 276.759 18.934H271.587C269.609 18.934 268 20.5431 268 22.5207C268 23.4831 268.381 24.358 269 25.003C268.381 25.6478 268 26.5227 268 27.485C268 28.8202 268.734 29.9866 269.819 30.604C268.697 31.7059 268 33.2381 268 34.931C268 38.2775 270.723 41 274.069 41H302.123C304.1 41 305.709 39.3909 305.709 37.413C305.709 36.4509 305.328 35.576 304.71 34.931C305.328 34.2862 305.709 33.4111 305.709 32.449C305.709 31.1138 304.975 29.9474 303.89 29.33C305.012 28.2281 305.709 26.6958 305.709 25.003C305.709 23.3082 305.01 21.7742 303.887 20.6723C304.974 20.0554 305.709 18.8877 305.709 17.551ZM281.434 11.2095H302.123C302.882 11.2095 303.5 11.8275 303.5 12.5868C303.5 13.3463 302.882 13.9643 302.123 13.9643H281.556V16.1738H302.123C302.882 16.1738 303.5 16.7915 303.5 17.551C303.5 18.3103 302.882 18.9282 302.123 18.9282H281.434C279.306 18.9282 277.575 17.1971 277.575 15.069C277.575 12.9409 279.306 11.2095 281.434 11.2095ZM271.587 28.8622C270.827 28.8622 270.21 28.2442 270.21 27.485C270.21 26.7255 270.828 26.1078 271.587 26.1078H299.52V23.8983H271.587C270.827 23.8983 270.21 23.2803 270.21 22.5207C270.21 21.7615 270.828 21.1435 271.587 21.1435H299.641C301.768 21.1435 303.5 22.8749 303.5 25.003C303.5 27.1308 301.768 28.8622 299.641 28.8622H271.587ZM302.123 31.0718C302.882 31.0718 303.5 31.6897 303.5 32.449C303.5 33.2085 302.882 33.8262 302.123 33.8262H274.19V36.0357H302.123C302.882 36.0357 303.5 36.6537 303.5 37.4132C303.5 38.1725 302.882 38.7905 302.123 38.7905H274.069C271.941 38.7905 270.21 37.0591 270.21 34.931C270.21 32.8031 271.941 31.0718 274.069 31.0718H302.123Z" fill="url(#paint0_linear_45_259)"/>
<defs>
<linearGradient id="paint0_linear_45_259" x1="267.688" y1="9" x2="310.199" y2="16.9276" gradientUnits="userSpaceOnUse">
<stop stop-color="#67ADD7"/>
<stop offset="1" stop-color="#67ADD7"/>
</linearGradient>
</defs>
</svg>
