<svg width="312" height="66" viewBox="0 0 312 66" fill="none" xmlns="http://www.w3.org/2000/svg">
<path d="M8.08574 8.43546L12.5725 18.7222C12.5758 18.7299 12.5801 18.7369 12.5836 18.7446C12.6347 18.8544 12.6967 18.9412 12.7703 19.0186C12.7762 19.0247 12.7813 19.0313 12.7873 19.0374L18.2807 24.5308C15.1851 27.4 11.757 31.2141 9.65718 34.8413C7.84533 37.9708 7.51823 40.1492 8.68484 41.3158C9.85152 42.4825 12.0299 42.1552 15.1593 40.3434C18.7845 38.2446 22.5981 34.8182 25.4698 31.7198C25.7438 31.9938 34.2473 40.4972 34.2473 40.4972C36.2507 42.5008 39.4936 42.501 41.4972 40.4972C43.5008 38.4937 43.501 35.251 41.4972 33.2472C41.1787 32.9287 32.038 23.788 31.6947 23.4447C32.2822 22.3739 32.6916 21.4204 32.913 20.6027C32.9487 20.4708 32.9781 20.343 33.0042 20.2174C34.791 20.8159 36.8444 20.406 38.2649 18.9855C39.6919 17.5584 40.6176 15.7352 40.9419 13.7129C41.2656 11.6945 40.9591 9.67275 40.0557 7.86602C39.9174 7.58944 39.6981 7.00149 38.9901 7.00149C38.4236 7.00149 37.9646 7.461 37.9646 8.02687C37.9646 9.13736 37.1 10.0889 36.0373 10.1481C34.3593 10.2416 33.2103 10.1682 31.8348 11.0684C29.8433 12.3726 29.0549 14.8213 29.7827 16.9953C29.6574 17.0213 29.5293 17.0516 29.3978 17.0872C28.58 17.3087 27.6266 17.718 26.5558 18.3056L20.0373 11.787C19.9504 11.7001 19.8476 11.6312 19.7444 11.5833C19.7368 11.5798 19.7299 11.5756 19.7222 11.5722L9.43542 7.0855C9.04824 6.91666 8.59816 7.00265 8.30046 7.30029C8.00242 7.59868 7.91724 8.04896 8.08574 8.43546ZM14.132 38.5688C11.6841 39.986 10.3565 40.0873 10.1349 39.8658C9.99877 39.7296 9.82008 38.6524 11.4318 35.8686C12.1091 34.6987 12.9815 33.4365 14.0052 32.1359L17.8648 35.9955C16.5642 37.0191 15.3018 37.8915 14.132 38.5688ZM19.4543 34.6851L15.3155 30.5462C15.7532 30.0378 16.211 29.5269 16.6859 29.0166L20.9839 33.3147C20.4736 33.7896 19.9628 34.2473 19.4543 34.6851ZM37.8806 32.5305L40.0474 34.6973C41.2496 35.8994 41.2497 37.8451 40.0474 39.0474C38.8452 40.2495 36.8997 40.2496 35.6974 39.0474L33.5305 36.8805L37.8806 32.5305ZM34.9747 29.6364L36.4247 31.0863L32.0806 35.4305L30.6306 33.9805L34.9747 29.6364ZM33.5305 28.1805L29.1805 32.5306L26.8397 30.1897C28.2892 28.512 29.5801 26.8217 30.6038 25.2539L33.5305 28.1805ZM32.958 12.7842C33.8008 12.2327 34.4117 12.2927 36.1514 12.1957C37.1985 12.1374 38.1749 11.6682 38.902 10.8742C39.3051 13.2608 38.5596 15.791 36.8149 17.5357C35.6156 18.735 33.6642 18.7351 32.4649 17.5357C31.0951 16.1658 31.3145 13.8606 32.958 12.7842ZM27.235 20.2754C29.8016 18.8113 30.8653 18.8758 31.0128 18.9834C31.0129 18.9835 31.0131 18.9837 31.0133 18.9839C31.5856 19.7619 29.0875 25.263 22.4599 31.8906L18.1099 27.5406C20.8147 24.8358 23.914 22.236 27.235 20.2754ZM24.7468 19.3967C23.1789 20.4205 21.4886 21.7112 19.8109 23.1608L14.9622 18.3122L19.3123 13.9621L24.7468 19.3967ZM17.5238 12.8508L13.8508 16.5238L11.0095 10.0094L17.5238 12.8508Z" fill="url(#paint0_linear_45_254)"/>
<path d="M68.576 16L67.664 13.488H62.624L61.712 16H60.128L64.304 4.8H65.984L70.16 16H68.576ZM63.136 12.096H67.152L65.136 6.576L63.136 12.096ZM76.6653 11.888C77.4866 12.2293 77.8973 12.848 77.8973 13.744C77.8973 14.4053 77.6733 14.9493 77.2253 15.376C76.7879 15.792 76.1586 16 75.3373 16H71.3372V8H75.0173C75.8173 8 76.4359 8.20267 76.8733 8.608C77.3106 9.00267 77.5293 9.52533 77.5293 10.176C77.5293 10.944 77.2413 11.5147 76.6653 11.888ZM74.9533 9.248H72.6973V11.344H74.9533C75.7639 11.344 76.1693 10.9867 76.1693 10.272C76.1693 9.58933 75.7639 9.248 74.9533 9.248ZM75.2573 14.736C75.6626 14.736 75.9719 14.64 76.1853 14.448C76.4093 14.256 76.5213 13.984 76.5213 13.632C76.5213 13.3013 76.4093 13.0453 76.1853 12.864C75.9719 12.672 75.6626 12.576 75.2573 12.576H72.6973V14.736H75.2573ZM85.0705 8V9.344H82.3505V16H80.9585V9.344H78.2225V8H85.0705ZM92.7299 14.992C91.9085 15.8027 90.9112 16.208 89.7379 16.208C88.5645 16.208 87.5672 15.8027 86.7459 14.992C85.9352 14.1813 85.5299 13.184 85.5299 12C85.5299 10.816 85.9352 9.81867 86.7459 9.008C87.5672 8.19733 88.5645 7.792 89.7379 7.792C90.9112 7.792 91.9085 8.19733 92.7299 9.008C93.5512 9.81867 93.9619 10.816 93.9619 12C93.9619 13.184 93.5512 14.1813 92.7299 14.992ZM89.7379 14.848C90.5379 14.848 91.2099 14.576 91.7539 14.032C92.2979 13.488 92.5699 12.8107 92.5699 12C92.5699 11.1893 92.2979 10.512 91.7539 9.968C91.2099 9.424 90.5379 9.152 89.7379 9.152C88.9485 9.152 88.2819 9.424 87.7379 9.968C87.1939 10.512 86.9219 11.1893 86.9219 12C86.9219 12.8107 87.1939 13.488 87.7379 14.032C88.2819 14.576 88.9485 14.848 89.7379 14.848ZM100.019 7.792C101.139 7.792 102.094 8.20267 102.883 9.024C103.672 9.83467 104.067 10.8267 104.067 12C104.067 13.1733 103.672 14.1707 102.883 14.992C102.094 15.8027 101.139 16.208 100.019 16.208C98.6962 16.208 97.6882 15.68 96.9949 14.624V19.2H95.6029V8H96.9949V9.376C97.6882 8.32 98.6962 7.792 100.019 7.792ZM99.8429 14.864C100.643 14.864 101.315 14.592 101.859 14.048C102.403 13.4933 102.675 12.8107 102.675 12C102.675 11.1893 102.403 10.512 101.859 9.968C101.315 9.41333 100.643 9.136 99.8429 9.136C99.0322 9.136 98.3549 9.41333 97.8109 9.968C97.2669 10.512 96.9949 11.1893 96.9949 12C96.9949 12.8107 97.2669 13.4933 97.8109 14.048C98.3549 14.592 99.0322 14.864 99.8429 14.864ZM109.488 16.208C108.283 16.208 107.28 15.808 106.48 15.008C105.68 14.1973 105.28 13.1947 105.28 12C105.28 10.8053 105.68 9.808 106.48 9.008C107.28 8.19733 108.283 7.792 109.488 7.792C110.277 7.792 110.987 7.984 111.616 8.368C112.245 8.74133 112.715 9.248 113.024 9.888L111.856 10.56C111.653 10.1333 111.339 9.792 110.912 9.536C110.496 9.28 110.021 9.152 109.488 9.152C108.688 9.152 108.016 9.424 107.472 9.968C106.939 10.512 106.672 11.1893 106.672 12C106.672 12.8 106.939 13.472 107.472 14.016C108.016 14.56 108.688 14.832 109.488 14.832C110.021 14.832 110.501 14.7093 110.928 14.464C111.355 14.208 111.68 13.8667 111.904 13.44L113.088 14.128C112.747 14.7573 112.256 15.264 111.616 15.648C110.976 16.0213 110.267 16.208 109.488 16.208ZM121.246 16H119.518L115.87 12.208V16H114.478V8H115.87V11.536L119.326 8H121.118L117.294 11.872L121.246 16ZM128.348 8H129.468V16H128.092V10.384L123.66 16H122.54V8H123.916V13.616L128.348 8ZM132.563 12.64C132.702 13.3547 133.027 13.9093 133.539 14.304C134.062 14.6987 134.702 14.896 135.459 14.896C136.515 14.896 137.283 14.5067 137.763 13.728L138.947 14.4C138.169 15.6053 136.995 16.208 135.427 16.208C134.158 16.208 133.123 15.8133 132.323 15.024C131.534 14.224 131.139 13.216 131.139 12C131.139 10.7947 131.529 9.792 132.307 8.992C133.086 8.192 134.094 7.792 135.331 7.792C136.505 7.792 137.459 8.208 138.195 9.04C138.942 9.86133 139.315 10.8533 139.315 12.016C139.315 12.2187 139.299 12.4267 139.267 12.64H132.563ZM135.331 9.104C134.585 9.104 133.966 9.31733 133.475 9.744C132.985 10.16 132.681 10.72 132.563 11.424H137.907C137.79 10.6667 137.491 10.0907 137.011 9.696C136.531 9.30133 135.971 9.104 135.331 9.104ZM151.843 8V16H150.451V9.328H146.307V16H144.915V8H151.843ZM158.378 7.792C159.498 7.792 160.453 8.20267 161.242 9.024C162.032 9.83467 162.426 10.8267 162.426 12C162.426 13.1733 162.032 14.1707 161.242 14.992C160.453 15.8027 159.498 16.208 158.378 16.208C157.056 16.208 156.048 15.68 155.354 14.624V19.2H153.962V8H155.354V9.376C156.048 8.32 157.056 7.792 158.378 7.792ZM158.202 14.864C159.002 14.864 159.674 14.592 160.218 14.048C160.762 13.4933 161.034 12.8107 161.034 12C161.034 11.1893 160.762 10.512 160.218 9.968C159.674 9.41333 159.002 9.136 158.202 9.136C157.392 9.136 156.714 9.41333 156.17 9.968C155.626 10.512 155.354 11.1893 155.354 12C155.354 12.8107 155.626 13.4933 156.17 14.048C156.714 14.592 157.392 14.864 158.202 14.864ZM169.895 8H171.015V16H169.639V10.384L165.207 16H164.087V8H165.463V13.616L169.895 8ZM178.67 8H180.062V16H178.67V12.656H174.526V16H173.134V8H174.526V11.328H178.67V8ZM188.133 8V9.344H185.413V16H184.021V9.344H181.285V8H188.133ZM192.729 10.88C193.529 10.88 194.19 11.12 194.713 11.6C195.246 12.0693 195.513 12.6827 195.513 13.44C195.513 14.1973 195.246 14.816 194.713 15.296C194.19 15.7653 193.529 16 192.729 16H189.353V8H190.745V10.88H192.729ZM196.553 8H197.945V16H196.553V8ZM192.729 14.704C193.124 14.704 193.454 14.592 193.721 14.368C193.998 14.1333 194.137 13.824 194.137 13.44C194.137 13.056 193.998 12.7467 193.721 12.512C193.454 12.2773 193.124 12.16 192.729 12.16H190.745V14.704H192.729ZM202.152 14.352L201.112 18.24H199.912L200.552 14.352H202.152ZM66.592 30H67.984V38H66.592V34.656H62.448V38H61.056V30H62.448V33.328H66.592V30ZM76.7269 30H78.1189V38H76.7269V36.624C76.0335 37.68 75.0255 38.208 73.7029 38.208C72.5829 38.208 71.6282 37.8027 70.8389 36.992C70.0495 36.1707 69.6549 35.1733 69.6549 34C69.6549 32.8267 70.0495 31.8347 70.8389 31.024C71.6282 30.2027 72.5829 29.792 73.7029 29.792C75.0255 29.792 76.0335 30.32 76.7269 31.376V30ZM73.8789 36.864C74.6895 36.864 75.3669 36.592 75.9109 36.048C76.4549 35.4933 76.7269 34.8107 76.7269 34C76.7269 33.1893 76.4549 32.512 75.9109 31.968C75.3669 31.4133 74.6895 31.136 73.8789 31.136C73.0789 31.136 72.4069 31.4133 71.8629 31.968C71.3189 32.512 71.0469 33.1893 71.0469 34C71.0469 34.8107 71.3189 35.4933 71.8629 36.048C72.4069 36.592 73.0789 36.864 73.8789 36.864ZM84.6439 29.792C85.7639 29.792 86.7185 30.2027 87.5079 31.024C88.2972 31.8347 88.6919 32.8267 88.6919 34C88.6919 35.1733 88.2972 36.1707 87.5079 36.992C86.7185 37.8027 85.7639 38.208 84.6439 38.208C83.3212 38.208 82.3132 37.68 81.6199 36.624V41.2H80.2279V30H81.6199V31.376C82.3132 30.32 83.3212 29.792 84.6439 29.792ZM84.4679 36.864C85.2679 36.864 85.9399 36.592 86.4839 36.048C87.0279 35.4933 87.2999 34.8107 87.2999 34C87.2999 33.1893 87.0279 32.512 86.4839 31.968C85.9399 31.4133 85.2679 31.136 84.4679 31.136C83.6572 31.136 82.9799 31.4133 82.4359 31.968C81.8919 32.512 81.6199 33.1893 81.6199 34C81.6199 34.8107 81.8919 35.4933 82.4359 36.048C82.9799 36.592 83.6572 36.864 84.4679 36.864ZM96.1609 30H97.2809V38H95.9049V32.384L91.4729 38H90.3529V30H91.7289V35.616L96.1609 30ZM103.16 38.208C101.954 38.208 100.952 37.808 100.152 37.008C99.3518 36.1973 98.9518 35.1947 98.9518 34C98.9518 32.8053 99.3518 31.808 100.152 31.008C100.952 30.1973 101.954 29.792 103.16 29.792C103.949 29.792 104.658 29.984 105.288 30.368C105.917 30.7413 106.386 31.248 106.696 31.888L105.528 32.56C105.325 32.1333 105.01 31.792 104.584 31.536C104.168 31.28 103.693 31.152 103.16 31.152C102.36 31.152 101.688 31.424 101.144 31.968C100.61 32.512 100.344 33.1893 100.344 34C100.344 34.8 100.61 35.472 101.144 36.016C101.688 36.56 102.36 36.832 103.16 36.832C103.693 36.832 104.173 36.7093 104.6 36.464C105.026 36.208 105.352 35.8667 105.576 35.44L106.76 36.128C106.418 36.7573 105.928 37.264 105.288 37.648C104.648 38.0213 103.938 38.208 103.16 38.208ZM114.777 36.992C113.955 37.8027 112.958 38.208 111.785 38.208C110.611 38.208 109.614 37.8027 108.793 36.992C107.982 36.1813 107.577 35.184 107.577 34C107.577 32.816 107.982 31.8187 108.793 31.008C109.614 30.1973 110.611 29.792 111.785 29.792C112.958 29.792 113.955 30.1973 114.777 31.008C115.598 31.8187 116.009 32.816 116.009 34C116.009 35.184 115.598 36.1813 114.777 36.992ZM111.785 36.848C112.585 36.848 113.257 36.576 113.801 36.032C114.345 35.488 114.617 34.8107 114.617 34C114.617 33.1893 114.345 32.512 113.801 31.968C113.257 31.424 112.585 31.152 111.785 31.152C110.995 31.152 110.329 31.424 109.785 31.968C109.241 32.512 108.969 33.1893 108.969 34C108.969 34.8107 109.241 35.488 109.785 36.032C110.329 36.576 110.995 36.848 111.785 36.848ZM122.978 33.888C123.799 34.2293 124.21 34.848 124.21 35.744C124.21 36.4053 123.986 36.9493 123.538 37.376C123.1 37.792 122.471 38 121.65 38H117.65V30H121.33C122.13 30 122.748 30.2027 123.186 30.608C123.623 31.0027 123.842 31.5253 123.842 32.176C123.842 32.944 123.554 33.5147 122.978 33.888ZM121.266 31.248H119.01V33.344H121.266C122.076 33.344 122.482 32.9867 122.482 32.272C122.482 31.5893 122.076 31.248 121.266 31.248ZM121.57 36.736C121.975 36.736 122.284 36.64 122.498 36.448C122.722 36.256 122.834 35.984 122.834 35.632C122.834 35.3013 122.722 35.0453 122.498 34.864C122.284 34.672 121.975 34.576 121.57 34.576H119.01V36.736H121.57ZM132.336 30H133.728V38H132.336V36.624C131.643 37.68 130.635 38.208 129.312 38.208C128.192 38.208 127.238 37.8027 126.448 36.992C125.659 36.1707 125.264 35.1733 125.264 34C125.264 32.8267 125.659 31.8347 126.448 31.024C127.238 30.2027 128.192 29.792 129.312 29.792C130.635 29.792 131.643 30.32 132.336 31.376V30ZM129.488 36.864C130.299 36.864 130.976 36.592 131.52 36.048C132.064 35.4933 132.336 34.8107 132.336 34C132.336 33.1893 132.064 32.512 131.52 31.968C130.976 31.4133 130.299 31.136 129.488 31.136C128.688 31.136 128.016 31.4133 127.472 31.968C126.928 32.512 126.656 33.1893 126.656 34C126.656 34.8107 126.928 35.4933 127.472 36.048C128.016 36.592 128.688 36.864 129.488 36.864ZM141.373 30H142.765V38H141.373V34.656H137.229V38H135.837V30H137.229V33.328H141.373V30ZM150.42 30H151.812V38H150.42V34.656H146.276V38H144.884V30H146.276V33.328H150.42V30ZM157.307 32.88C158.107 32.88 158.768 33.12 159.291 33.6C159.824 34.0693 160.091 34.6827 160.091 35.44C160.091 36.1973 159.824 36.816 159.291 37.296C158.768 37.7653 158.107 38 157.307 38H153.931V30H155.323V32.88H157.307ZM161.131 30H162.523V38H161.131V30ZM157.307 36.704C157.702 36.704 158.032 36.592 158.299 36.368C158.576 36.1333 158.715 35.824 158.715 35.44C158.715 35.056 158.576 34.7467 158.299 34.512C158.032 34.2773 157.702 34.16 157.307 34.16H155.323V36.704H157.307ZM165.626 34.64C165.764 35.3547 166.09 35.9093 166.602 36.304C167.124 36.6987 167.764 36.896 168.522 36.896C169.578 36.896 170.346 36.5067 170.826 35.728L172.01 36.4C171.231 37.6053 170.058 38.208 168.49 38.208C167.22 38.208 166.186 37.8133 165.386 37.024C164.596 36.224 164.202 35.216 164.202 34C164.202 32.7947 164.591 31.792 165.37 30.992C166.148 30.192 167.156 29.792 168.394 29.792C169.567 29.792 170.522 30.208 171.258 31.04C172.004 31.8613 172.378 32.8533 172.378 34.016C172.378 34.2187 172.362 34.4267 172.33 34.64H165.626ZM168.394 31.104C167.647 31.104 167.028 31.3173 166.538 31.744C166.047 32.16 165.743 32.72 165.626 33.424H170.97C170.852 32.6667 170.554 32.0907 170.074 31.696C169.594 31.3013 169.034 31.104 168.394 31.104ZM185.498 38L184.586 35.488H179.546L178.634 38H177.05L181.226 26.8H182.906L187.082 38H185.498ZM180.058 34.096H184.074L182.058 28.576L180.058 34.096ZM194.978 30V38H193.586V31.344H190.434V34.608C190.434 35.92 190.167 36.8373 189.634 37.36C189.111 37.872 188.37 38.0853 187.41 38V36.688C187.954 36.7627 188.359 36.6453 188.626 36.336C188.903 36.016 189.042 35.4293 189.042 34.576V30H194.978ZM198.063 34.64C198.202 35.3547 198.527 35.9093 199.039 36.304C199.562 36.6987 200.202 36.896 200.959 36.896C202.015 36.896 202.783 36.5067 203.263 35.728L204.447 36.4C203.669 37.6053 202.495 38.208 200.927 38.208C199.658 38.208 198.623 37.8133 197.823 37.024C197.034 36.224 196.639 35.216 196.639 34C196.639 32.7947 197.029 31.792 197.807 30.992C198.586 30.192 199.594 29.792 200.831 29.792C202.005 29.792 202.959 30.208 203.695 31.04C204.442 31.8613 204.815 32.8533 204.815 34.016C204.815 34.2187 204.799 34.4267 204.767 34.64H198.063ZM200.831 31.104C200.085 31.104 199.466 31.3173 198.975 31.744C198.485 32.16 198.181 32.72 198.063 33.424H203.407C203.29 32.6667 202.991 32.0907 202.511 31.696C202.031 31.3013 201.471 31.104 200.831 31.104ZM213.183 38H211.455L207.807 34.208V38H206.415V30H207.807V33.536L211.263 30H213.055L209.231 33.872L213.183 38ZM217.504 38.208C216.298 38.208 215.296 37.808 214.496 37.008C213.696 36.1973 213.296 35.1947 213.296 34C213.296 32.8053 213.696 31.808 214.496 31.008C215.296 30.1973 216.298 29.792 217.504 29.792C218.293 29.792 219.002 29.984 219.632 30.368C220.261 30.7413 220.73 31.248 221.04 31.888L219.872 32.56C219.669 32.1333 219.354 31.792 218.928 31.536C218.512 31.28 218.037 31.152 217.504 31.152C216.704 31.152 216.032 31.424 215.488 31.968C214.954 32.512 214.688 33.1893 214.688 34C214.688 34.8 214.954 35.472 215.488 36.016C216.032 36.56 216.704 36.832 217.504 36.832C218.037 36.832 218.517 36.7093 218.944 36.464C219.37 36.208 219.696 35.8667 219.92 35.44L221.104 36.128C220.762 36.7573 220.272 37.264 219.632 37.648C218.992 38.0213 218.282 38.208 217.504 38.208ZM228.993 30H230.385V38H228.993V36.624C228.299 37.68 227.291 38.208 225.969 38.208C224.849 38.208 223.894 37.8027 223.105 36.992C222.315 36.1707 221.921 35.1733 221.921 34C221.921 32.8267 222.315 31.8347 223.105 31.024C223.894 30.2027 224.849 29.792 225.969 29.792C227.291 29.792 228.299 30.32 228.993 31.376V30ZM226.145 36.864C226.955 36.864 227.633 36.592 228.177 36.048C228.721 35.4933 228.993 34.8107 228.993 34C228.993 33.1893 228.721 32.512 228.177 31.968C227.633 31.4133 226.955 31.136 226.145 31.136C225.345 31.136 224.673 31.4133 224.129 31.968C223.585 32.512 223.312 33.1893 223.312 34C223.312 34.8107 223.585 35.4933 224.129 36.048C224.673 36.592 225.345 36.864 226.145 36.864ZM238.03 30H239.422V38H238.03V34.656H233.886V38H232.493V30H233.886V33.328H238.03V30ZM248.42 36.672H249.524V40.144H248.148V38H242.148V40.144H240.772V36.672H241.748C242.26 35.968 242.516 34.9813 242.516 33.712V30H248.42V36.672ZM243.332 36.672H247.044V31.296H243.892V33.712C243.892 34.9067 243.706 35.8933 243.332 36.672ZM255.441 29.792C256.561 29.792 257.515 30.2027 258.305 31.024C259.094 31.8347 259.489 32.8267 259.489 34C259.489 35.1733 259.094 36.1707 258.305 36.992C257.515 37.8027 256.561 38.208 255.441 38.208C254.118 38.208 253.11 37.68 252.417 36.624V41.2H251.025V30H252.417V31.376C253.11 30.32 254.118 29.792 255.441 29.792ZM255.265 36.864C256.065 36.864 256.737 36.592 257.281 36.048C257.825 35.4933 258.097 34.8107 258.097 34C258.097 33.1893 257.825 32.512 257.281 31.968C256.737 31.4133 256.065 31.136 255.265 31.136C254.454 31.136 253.777 31.4133 253.233 31.968C252.689 32.512 252.417 33.1893 252.417 34C252.417 34.8107 252.689 35.4933 253.233 36.048C253.777 36.592 254.454 36.864 255.265 36.864ZM267.902 36.992C267.08 37.8027 266.083 38.208 264.91 38.208C263.736 38.208 262.739 37.8027 261.918 36.992C261.107 36.1813 260.702 35.184 260.702 34C260.702 32.816 261.107 31.8187 261.918 31.008C262.739 30.1973 263.736 29.792 264.91 29.792C266.083 29.792 267.08 30.1973 267.902 31.008C268.723 31.8187 269.134 32.816 269.134 34C269.134 35.184 268.723 36.1813 267.902 36.992ZM264.91 36.848C265.71 36.848 266.382 36.576 266.926 36.032C267.47 35.488 267.742 34.8107 267.742 34C267.742 33.1893 267.47 32.512 266.926 31.968C266.382 31.424 265.71 31.152 264.91 31.152C264.12 31.152 263.454 31.424 262.91 31.968C262.366 32.512 262.094 33.1893 262.094 34C262.094 34.8107 262.366 35.488 262.91 36.032C263.454 36.576 264.12 36.848 264.91 36.848ZM278.775 30V38H277.415V32.192L274.871 36.288H274.695L272.151 32.192V38H270.775V30H272.263L274.775 34.048L277.287 30H278.775ZM65.408 53.2C66.3787 53.2 67.2 53.5307 67.872 54.192C68.544 54.8427 68.88 55.6427 68.88 56.592C68.88 57.5627 68.544 58.3733 67.872 59.024C67.2107 59.6747 66.3893 60 65.408 60H61.2V48.8H67.92V50.208H62.688V53.2H65.408ZM65.408 58.608C65.9627 58.608 66.432 58.416 66.816 58.032C67.2107 57.648 67.408 57.168 67.408 56.592C67.408 56.0267 67.2107 55.552 66.816 55.168C66.432 54.784 65.9627 54.592 65.408 54.592H62.688V58.608H65.408ZM77.1674 58.992C76.346 59.8027 75.3487 60.208 74.1754 60.208C73.002 60.208 72.0047 59.8027 71.1834 58.992C70.3727 58.1813 69.9674 57.184 69.9674 56C69.9674 54.816 70.3727 53.8187 71.1834 53.008C72.0047 52.1973 73.002 51.792 74.1754 51.792C75.3487 51.792 76.346 52.1973 77.1674 53.008C77.9887 53.8187 78.3994 54.816 78.3994 56C78.3994 57.184 77.9887 58.1813 77.1674 58.992ZM74.1754 58.848C74.9754 58.848 75.6474 58.576 76.1914 58.032C76.7354 57.488 77.0074 56.8107 77.0074 56C77.0074 55.1893 76.7354 54.512 76.1914 53.968C75.6474 53.424 74.9754 53.152 74.1754 53.152C73.386 53.152 72.7194 53.424 72.1754 53.968C71.6314 54.512 71.3594 55.1893 71.3594 56C71.3594 56.8107 71.6314 57.488 72.1754 58.032C72.7194 58.576 73.386 58.848 74.1754 58.848ZM85.2884 52V53.344H81.4324V60H80.0404V52H85.2884ZM92.8891 58.672H93.9931V62.144H92.6171V60H86.6171V62.144H85.2411V58.672H86.2171C86.7291 57.968 86.9851 56.9813 86.9851 55.712V52H92.8891V58.672ZM87.8011 58.672H91.5131V53.296H88.3611V55.712C88.3611 56.9067 88.1745 57.8933 87.8011 58.672ZM101.805 52H103.197V60H101.805V58.624C101.112 59.68 100.104 60.208 98.781 60.208C97.661 60.208 96.7063 59.8027 95.917 58.992C95.1277 58.1707 94.733 57.1733 94.733 56C94.733 54.8267 95.1277 53.8347 95.917 53.024C96.7063 52.2027 97.661 51.792 98.781 51.792C100.104 51.792 101.112 52.32 101.805 53.376V52ZM98.957 58.864C99.7677 58.864 100.445 58.592 100.989 58.048C101.533 57.4933 101.805 56.8107 101.805 56C101.805 55.1893 101.533 54.512 100.989 53.968C100.445 53.4133 99.7677 53.136 98.957 53.136C98.157 53.136 97.485 53.4133 96.941 53.968C96.397 54.512 96.125 55.1893 96.125 56C96.125 56.8107 96.397 57.4933 96.941 58.048C97.485 58.592 98.157 58.864 98.957 58.864ZM110.842 52H112.234V60H110.842V56.656H106.698V60H105.306V52H106.698V55.328H110.842V52ZM121.105 58.992C120.284 59.8027 119.286 60.208 118.113 60.208C116.94 60.208 115.942 59.8027 115.121 58.992C114.31 58.1813 113.905 57.184 113.905 56C113.905 54.816 114.31 53.8187 115.121 53.008C115.942 52.1973 116.94 51.792 118.113 51.792C119.286 51.792 120.284 52.1973 121.105 53.008C121.926 53.8187 122.337 54.816 122.337 56C122.337 57.184 121.926 58.1813 121.105 58.992ZM118.113 58.848C118.913 58.848 119.585 58.576 120.129 58.032C120.673 57.488 120.945 56.8107 120.945 56C120.945 55.1893 120.673 54.512 120.129 53.968C119.585 53.424 118.913 53.152 118.113 53.152C117.324 53.152 116.657 53.424 116.113 53.968C115.569 54.512 115.297 55.1893 115.297 56C115.297 56.8107 115.569 57.488 116.113 58.032C116.657 58.576 117.324 58.848 118.113 58.848ZM129.306 55.888C130.127 56.2293 130.538 56.848 130.538 57.744C130.538 58.4053 130.314 58.9493 129.866 59.376C129.429 59.792 128.799 60 127.978 60H123.978V52H127.658C128.458 52 129.077 52.2027 129.514 52.608C129.951 53.0027 130.17 53.5253 130.17 54.176C130.17 54.944 129.882 55.5147 129.306 55.888ZM127.594 53.248H125.338V55.344H127.594C128.405 55.344 128.81 54.9867 128.81 54.272C128.81 53.5893 128.405 53.248 127.594 53.248ZM127.898 58.736C128.303 58.736 128.613 58.64 128.826 58.448C129.05 58.256 129.162 57.984 129.162 57.632C129.162 57.3013 129.05 57.0453 128.826 56.864C128.613 56.672 128.303 56.576 127.898 56.576H125.338V58.736H127.898ZM135.416 54.88C136.216 54.88 136.878 55.12 137.4 55.6C137.934 56.0693 138.2 56.6827 138.2 57.44C138.2 58.1973 137.934 58.816 137.4 59.296C136.878 59.7653 136.216 60 135.416 60H132.04V52H133.432V54.88H135.416ZM139.24 52H140.632V60H139.24V52ZM135.416 58.704C135.811 58.704 136.142 58.592 136.408 58.368C136.686 58.1333 136.824 57.824 136.824 57.44C136.824 57.056 136.686 56.7467 136.408 56.512C136.142 56.2773 135.811 56.16 135.416 56.16H133.432V58.704H135.416ZM150.759 52V60H149.399V54.192L146.855 58.288H146.679L144.135 54.192V60H142.759V52H144.247L146.759 56.048L149.271 52H150.759Z" fill="#4E5B67"/>
<defs>
<linearGradient id="paint0_linear_45_254" x1="43.2893" y1="42" x2="3.45895" y2="35.6968" gradientUnits="userSpaceOnUse">
<stop stop-color="#67ADD7"/>
<stop offset="1" stop-color="#67ADD7"/>
</linearGradient>
</defs>
</svg>
