<svg width="312" height="66" viewBox="0 0 312 66" fill="none" xmlns="http://www.w3.org/2000/svg">
<path d="M164.464 16.208C162.768 16.208 161.365 15.648 160.256 14.528C159.157 13.408 158.608 12.032 158.608 10.4C158.608 8.768 159.157 7.392 160.256 6.272C161.365 5.152 162.768 4.592 164.464 4.592C165.488 4.592 166.427 4.83733 167.28 5.328C168.144 5.81867 168.816 6.48 169.296 7.312L168 8.064C167.68 7.44533 167.2 6.95467 166.56 6.592C165.931 6.21867 165.232 6.032 164.464 6.032C163.173 6.032 162.117 6.448 161.296 7.28C160.485 8.112 160.08 9.152 160.08 10.4C160.08 11.6373 160.485 12.672 161.296 13.504C162.117 14.336 163.173 14.752 164.464 14.752C165.232 14.752 165.931 14.5707 166.56 14.208C167.2 13.8347 167.68 13.344 168 12.736L169.296 13.472C168.827 14.304 168.16 14.9707 167.296 15.472C166.432 15.9627 165.488 16.208 164.464 16.208ZM177.812 8V16H176.42V9.328H172.276V16H170.884V8H177.812ZM180.907 12.64C181.046 13.3547 181.371 13.9093 181.883 14.304C182.406 14.6987 183.046 14.896 183.803 14.896C184.859 14.896 185.627 14.5067 186.107 13.728L187.291 14.4C186.512 15.6053 185.339 16.208 183.771 16.208C182.502 16.208 181.467 15.8133 180.667 15.024C179.878 14.224 179.483 13.216 179.483 12C179.483 10.7947 179.872 9.792 180.651 8.992C181.43 8.192 182.438 7.792 183.675 7.792C184.848 7.792 185.803 8.208 186.539 9.04C187.286 9.86133 187.659 10.8533 187.659 12.016C187.659 12.2187 187.643 12.4267 187.611 12.64H180.907ZM183.675 9.104C182.928 9.104 182.31 9.31733 181.819 9.744C181.328 10.16 181.024 10.72 180.907 11.424H186.251C186.134 10.6667 185.835 10.0907 185.355 9.696C184.875 9.30133 184.315 9.104 183.675 9.104ZM195.979 14.672H197.291V18.144H195.915V16H189.259V8H190.651V14.672H194.587V8H195.979V14.672ZM204.583 8H205.703V16H204.327V10.384L199.895 16H198.775V8H200.151V13.616L204.583 8ZM214.446 8H215.838V16H214.446V14.624C213.752 15.68 212.744 16.208 211.422 16.208C210.302 16.208 209.347 15.8027 208.558 14.992C207.768 14.1707 207.374 13.1733 207.374 12C207.374 10.8267 207.768 9.83467 208.558 9.024C209.347 8.20267 210.302 7.792 211.422 7.792C212.744 7.792 213.752 8.32 214.446 9.376V8ZM211.598 14.864C212.408 14.864 213.086 14.592 213.63 14.048C214.174 13.4933 214.446 12.8107 214.446 12C214.446 11.1893 214.174 10.512 213.63 9.968C213.086 9.41333 212.408 9.136 211.598 9.136C210.798 9.136 210.126 9.41333 209.582 9.968C209.038 10.512 208.766 11.1893 208.766 12C208.766 12.8107 209.038 13.4933 209.582 14.048C210.126 14.592 210.798 14.864 211.598 14.864ZM224.619 8V16H223.227V9.344H220.075V12.608C220.075 13.92 219.808 14.8373 219.275 15.36C218.752 15.872 218.011 16.0853 217.051 16V14.688C217.595 14.7627 218 14.6453 218.267 14.336C218.544 14.016 218.683 13.4293 218.683 12.576V8H224.619ZM230.104 10.88C230.904 10.88 231.565 11.12 232.088 11.6C232.621 12.0693 232.888 12.6827 232.888 13.44C232.888 14.1973 232.621 14.816 232.088 15.296C231.565 15.7653 230.904 16 230.104 16H226.728V8H228.12V10.88H230.104ZM230.104 14.704C230.499 14.704 230.829 14.592 231.096 14.368C231.373 14.1333 231.512 13.824 231.512 13.44C231.512 13.056 231.373 12.7467 231.096 12.512C230.829 12.2773 230.499 12.16 230.104 12.16H228.12V14.704H230.104ZM239.92 8H241.312V16H239.92V12.656H235.776V16H234.384V8H235.776V11.328H239.92V8ZM250.183 14.992C249.362 15.8027 248.364 16.208 247.191 16.208C246.018 16.208 245.02 15.8027 244.199 14.992C243.388 14.1813 242.983 13.184 242.983 12C242.983 10.816 243.388 9.81867 244.199 9.008C245.02 8.19733 246.018 7.792 247.191 7.792C248.364 7.792 249.362 8.19733 250.183 9.008C251.004 9.81867 251.415 10.816 251.415 12C251.415 13.184 251.004 14.1813 250.183 14.992ZM247.191 14.848C247.991 14.848 248.663 14.576 249.207 14.032C249.751 13.488 250.023 12.8107 250.023 12C250.023 11.1893 249.751 10.512 249.207 9.968C248.663 9.424 247.991 9.152 247.191 9.152C246.402 9.152 245.735 9.424 245.191 9.968C244.647 10.512 244.375 11.1893 244.375 12C244.375 12.8107 244.647 13.488 245.191 14.032C245.735 14.576 246.402 14.848 247.191 14.848ZM63.3629 38.208C62.1575 38.208 61.1549 37.808 60.3549 37.008C59.5549 36.1973 59.1549 35.1947 59.1549 34C59.1549 32.8053 59.5549 31.808 60.3549 31.008C61.1549 30.1973 62.1575 29.792 63.3629 29.792C64.1522 29.792 64.8615 29.984 65.4909 30.368C66.1202 30.7413 66.5895 31.248 66.8989 31.888L65.7309 32.56C65.5282 32.1333 65.2135 31.792 64.7869 31.536C64.3709 31.28 63.8962 31.152 63.3629 31.152C62.5629 31.152 61.8909 31.424 61.3469 31.968C60.8135 32.512 60.5469 33.1893 60.5469 34C60.5469 34.8 60.8135 35.472 61.3469 36.016C61.8909 36.56 62.5629 36.832 63.3629 36.832C63.8962 36.832 64.3762 36.7093 64.8029 36.464C65.2295 36.208 65.5549 35.8667 65.7789 35.44L66.9629 36.128C66.6215 36.7573 66.1309 37.264 65.4909 37.648C64.8509 38.0213 64.1415 38.208 63.3629 38.208ZM74.9799 36.992C74.1585 37.8027 73.1612 38.208 71.9879 38.208C70.8145 38.208 69.8172 37.8027 68.9959 36.992C68.1852 36.1813 67.7799 35.184 67.7799 34C67.7799 32.816 68.1852 31.8187 68.9959 31.008C69.8172 30.1973 70.8145 29.792 71.9879 29.792C73.1612 29.792 74.1585 30.1973 74.9799 31.008C75.8012 31.8187 76.2119 32.816 76.2119 34C76.2119 35.184 75.8012 36.1813 74.9799 36.992ZM71.9879 36.848C72.7879 36.848 73.4599 36.576 74.0039 36.032C74.5479 35.488 74.8199 34.8107 74.8199 34C74.8199 33.1893 74.5479 32.512 74.0039 31.968C73.4599 31.424 72.7879 31.152 71.9879 31.152C71.1985 31.152 70.5319 31.424 69.9879 31.968C69.4439 32.512 69.1719 33.1893 69.1719 34C69.1719 34.8107 69.4439 35.488 69.9879 36.032C70.5319 36.576 71.1985 36.848 71.9879 36.848ZM81.8604 33.904C82.7457 34.2667 83.1884 34.9013 83.1884 35.808C83.1884 36.48 82.9217 37.0507 82.3884 37.52C81.855 37.9787 81.0977 38.208 80.1164 38.208C78.5164 38.208 77.4444 37.568 76.9004 36.288L78.0684 35.6C78.3777 36.4747 79.0657 36.912 80.1324 36.912C80.6657 36.912 81.0764 36.8 81.3644 36.576C81.663 36.3413 81.8124 36.0427 81.8124 35.68C81.8124 35.36 81.6897 35.0987 81.4444 34.896C81.2097 34.6933 80.8897 34.592 80.4844 34.592H79.3164V33.328H80.1804C80.5857 33.328 80.9004 33.232 81.1244 33.04C81.3484 32.8373 81.4604 32.5653 81.4604 32.224C81.4604 31.8827 81.327 31.6053 81.0604 31.392C80.8044 31.1787 80.447 31.072 79.9884 31.072C79.0924 31.072 78.4844 31.4507 78.1644 32.208L77.0284 31.552C77.5937 30.3787 78.5804 29.792 79.9884 29.792C80.863 29.792 81.551 30.016 82.0524 30.464C82.5644 30.912 82.8204 31.4613 82.8204 32.112C82.8204 32.9227 82.5004 33.52 81.8604 33.904ZM91.4516 36.672H92.5556V40.144H91.1796V38H85.1796V40.144H83.8036V36.672H84.7796C85.2916 35.968 85.5476 34.9813 85.5476 33.712V30H91.4516V36.672ZM86.3636 36.672H90.0756V31.296H86.9236V33.712C86.9236 34.9067 86.737 35.8933 86.3636 36.672ZM100.368 30H101.76V38H100.368V36.624C99.6742 37.68 98.6662 38.208 97.3435 38.208C96.2235 38.208 95.2688 37.8027 94.4795 36.992C93.6902 36.1707 93.2955 35.1733 93.2955 34C93.2955 32.8267 93.6902 31.8347 94.4795 31.024C95.2688 30.2027 96.2235 29.792 97.3435 29.792C98.6662 29.792 99.6742 30.32 100.368 31.376V30ZM97.5195 36.864C98.3302 36.864 99.0075 36.592 99.5515 36.048C100.096 35.4933 100.368 34.8107 100.368 34C100.368 33.1893 100.096 32.512 99.5515 31.968C99.0075 31.4133 98.3302 31.136 97.5195 31.136C96.7195 31.136 96.0475 31.4133 95.5035 31.968C94.9595 32.512 94.6875 33.1893 94.6875 34C94.6875 34.8107 94.9595 35.4933 95.5035 36.048C96.0475 36.592 96.7195 36.864 97.5195 36.864ZM109.405 30H110.797V38H109.405V34.656H105.261V38H103.868V30H105.261V33.328H109.405V30ZM118.451 30H119.843V38H118.451V34.656H114.307V38H112.915V30H114.307V33.328H118.451V30ZM125.338 32.88C126.138 32.88 126.8 33.12 127.322 33.6C127.856 34.0693 128.122 34.6827 128.122 35.44C128.122 36.1973 127.856 36.816 127.322 37.296C126.8 37.7653 126.138 38 125.338 38H121.962V30H123.354V32.88H125.338ZM129.162 30H130.554V38H129.162V30ZM125.338 36.704C125.733 36.704 126.064 36.592 126.33 36.368C126.608 36.1333 126.746 35.824 126.746 35.44C126.746 35.056 126.608 34.7467 126.33 34.512C126.064 34.2773 125.733 34.16 125.338 34.16H123.354V36.704H125.338ZM133.657 34.64C133.796 35.3547 134.121 35.9093 134.633 36.304C135.156 36.6987 135.796 36.896 136.553 36.896C137.609 36.896 138.377 36.5067 138.857 35.728L140.041 36.4C139.262 37.6053 138.089 38.208 136.521 38.208C135.252 38.208 134.217 37.8133 133.417 37.024C132.628 36.224 132.233 35.216 132.233 34C132.233 32.7947 132.622 31.792 133.401 30.992C134.18 30.192 135.188 29.792 136.425 29.792C137.598 29.792 138.553 30.208 139.289 31.04C140.036 31.8613 140.409 32.8533 140.409 34.016C140.409 34.2187 140.393 34.4267 140.361 34.64H133.657ZM136.425 31.104C135.678 31.104 135.06 31.3173 134.569 31.744C134.078 32.16 133.774 32.72 133.657 33.424H139.001C138.884 32.6667 138.585 32.0907 138.105 31.696C137.625 31.3013 137.065 31.104 136.425 31.104ZM152.937 30V38H151.545V31.328H147.401V38H146.009V30H152.937ZM156.032 34.64C156.171 35.3547 156.496 35.9093 157.008 36.304C157.531 36.6987 158.171 36.896 158.928 36.896C159.984 36.896 160.752 36.5067 161.232 35.728L162.416 36.4C161.637 37.6053 160.464 38.208 158.896 38.208C157.627 38.208 156.592 37.8133 155.792 37.024C155.003 36.224 154.608 35.216 154.608 34C154.608 32.7947 154.997 31.792 155.776 30.992C156.555 30.192 157.563 29.792 158.8 29.792C159.973 29.792 160.928 30.208 161.664 31.04C162.411 31.8613 162.784 32.8533 162.784 34.016C162.784 34.2187 162.768 34.4267 162.736 34.64H156.032ZM158.8 31.104C158.053 31.104 157.435 31.3173 156.944 31.744C156.453 32.16 156.149 32.72 156.032 33.424H161.376C161.259 32.6667 160.96 32.0907 160.48 31.696C160 31.3013 159.44 31.104 158.8 31.104ZM168.8 29.792C169.92 29.792 170.875 30.2027 171.664 31.024C172.453 31.8347 172.848 32.8267 172.848 34C172.848 35.1733 172.453 36.1707 171.664 36.992C170.875 37.8027 169.92 38.208 168.8 38.208C167.477 38.208 166.469 37.68 165.776 36.624V41.2H164.384V30H165.776V31.376C166.469 30.32 167.477 29.792 168.8 29.792ZM168.624 36.864C169.424 36.864 170.096 36.592 170.64 36.048C171.184 35.4933 171.456 34.8107 171.456 34C171.456 33.1893 171.184 32.512 170.64 31.968C170.096 31.4133 169.424 31.136 168.624 31.136C167.813 31.136 167.136 31.4133 166.592 31.968C166.048 32.512 165.776 33.1893 165.776 34C165.776 34.8107 166.048 35.4933 166.592 36.048C167.136 36.592 167.813 36.864 168.624 36.864ZM175.485 34.64C175.624 35.3547 175.949 35.9093 176.461 36.304C176.984 36.6987 177.624 36.896 178.381 36.896C179.437 36.896 180.205 36.5067 180.685 35.728L181.869 36.4C181.09 37.6053 179.917 38.208 178.349 38.208C177.08 38.208 176.045 37.8133 175.245 37.024C174.456 36.224 174.061 35.216 174.061 34C174.061 32.7947 174.45 31.792 175.229 30.992C176.008 30.192 177.016 29.792 178.253 29.792C179.426 29.792 180.381 30.208 181.117 31.04C181.864 31.8613 182.237 32.8533 182.237 34.016C182.237 34.2187 182.221 34.4267 182.189 34.64H175.485ZM178.253 31.104C177.506 31.104 176.888 31.3173 176.397 31.744C175.906 32.16 175.602 32.72 175.485 33.424H180.829C180.712 32.6667 180.413 32.0907 179.933 31.696C179.453 31.3013 178.893 31.104 178.253 31.104ZM190.765 30V38H189.373V31.328H185.229V38H183.837V30H190.765ZM199.556 30V38H198.164V31.344H195.012V34.608C195.012 35.92 194.745 36.8373 194.212 37.36C193.689 37.872 192.948 38.0853 191.988 38V36.688C192.532 36.7627 192.937 36.6453 193.204 36.336C193.481 36.016 193.62 35.4293 193.62 34.576V30H199.556ZM202.641 34.64C202.78 35.3547 203.105 35.9093 203.617 36.304C204.14 36.6987 204.78 36.896 205.537 36.896C206.593 36.896 207.361 36.5067 207.841 35.728L209.025 36.4C208.247 37.6053 207.073 38.208 205.505 38.208C204.236 38.208 203.201 37.8133 202.401 37.024C201.612 36.224 201.217 35.216 201.217 34C201.217 32.7947 201.607 31.792 202.385 30.992C203.164 30.192 204.172 29.792 205.409 29.792C206.583 29.792 207.537 30.208 208.273 31.04C209.02 31.8613 209.393 32.8533 209.393 34.016C209.393 34.2187 209.377 34.4267 209.345 34.64H202.641ZM205.409 31.104C204.663 31.104 204.044 31.3173 203.553 31.744C203.063 32.16 202.759 32.72 202.641 33.424H207.985C207.868 32.6667 207.569 32.0907 207.089 31.696C206.609 31.3013 206.049 31.104 205.409 31.104ZM216.633 30V31.344H213.913V38H212.521V31.344H209.785V30H216.633ZM218.516 34.64C218.655 35.3547 218.98 35.9093 219.492 36.304C220.015 36.6987 220.655 36.896 221.412 36.896C222.468 36.896 223.236 36.5067 223.716 35.728L224.9 36.4C224.122 37.6053 222.948 38.208 221.38 38.208C220.111 38.208 219.076 37.8133 218.276 37.024C217.487 36.224 217.092 35.216 217.092 34C217.092 32.7947 217.482 31.792 218.26 30.992C219.039 30.192 220.047 29.792 221.284 29.792C222.458 29.792 223.412 30.208 224.148 31.04C224.895 31.8613 225.268 32.8533 225.268 34.016C225.268 34.2187 225.252 34.4267 225.22 34.64H218.516ZM221.284 31.104C220.538 31.104 219.919 31.3173 219.428 31.744C218.938 32.16 218.634 32.72 218.516 33.424H223.86C223.743 32.6667 223.444 32.0907 222.964 31.696C222.484 31.3013 221.924 31.104 221.284 31.104ZM232.405 30H233.797V38H232.405V34.656H228.261V38H226.868V30H228.261V33.328H232.405V30ZM241.723 30H242.843V38H241.467V32.384L237.035 38H235.915V30H237.291V35.616L241.723 30ZM250.946 30V38H249.57V35.12H248.402L246.162 38H244.466L246.802 35.04C246.205 34.8907 245.72 34.592 245.346 34.144C244.973 33.696 244.786 33.1733 244.786 32.576C244.786 31.84 245.048 31.2267 245.57 30.736C246.093 30.2453 246.749 30 247.538 30H250.946ZM247.586 33.872H249.57V31.296H247.586C247.192 31.296 246.856 31.4133 246.578 31.648C246.301 31.8827 246.162 32.1973 246.162 32.592C246.162 32.976 246.301 33.2853 246.578 33.52C246.856 33.7547 247.192 33.872 247.586 33.872ZM65.6235 58.672H66.7275V62.144H65.3515V60H59.3515V62.144H57.9755V58.672H58.9515C59.4635 57.968 59.7195 56.9813 59.7195 55.712V52H65.6235V58.672ZM60.5355 58.672H64.2475V53.296H61.0955V55.712C61.0955 56.9067 60.9088 57.8933 60.5355 58.672ZM74.8999 52V60H73.5079V53.344H70.3559V56.608C70.3559 57.92 70.0892 58.8373 69.5559 59.36C69.0332 59.872 68.2919 60.0853 67.3319 60V58.688C67.8759 58.7627 68.2812 58.6453 68.5479 58.336C68.8252 58.016 68.9639 57.4293 68.9639 56.576V52H74.8999ZM82.9931 52V60H81.6171V57.12H80.4491L78.2091 60H76.5131L78.8491 57.04C78.2518 56.8907 77.7665 56.592 77.3931 56.144C77.0198 55.696 76.8331 55.1733 76.8331 54.576C76.8331 53.84 77.0945 53.2267 77.6171 52.736C78.1398 52.2453 78.7958 52 79.5851 52H82.9931ZM79.6331 55.872H81.6171V53.296H79.6331C79.2385 53.296 78.9025 53.4133 78.6251 53.648C78.3478 53.8827 78.2091 54.1973 78.2091 54.592C78.2091 54.976 78.3478 55.2853 78.6251 55.52C78.9025 55.7547 79.2385 55.872 79.6331 55.872ZM95.8709 60H94.1429L90.4949 56.208V60H89.1029V52H90.4949V55.536L93.9509 52H95.7429L91.9189 55.872L95.8709 60ZM103.183 58.992C102.362 59.8027 101.364 60.208 100.191 60.208C99.0177 60.208 98.0203 59.8027 97.199 58.992C96.3883 58.1813 95.983 57.184 95.983 56C95.983 54.816 96.3883 53.8187 97.199 53.008C98.0203 52.1973 99.0177 51.792 100.191 51.792C101.364 51.792 102.362 52.1973 103.183 53.008C104.004 53.8187 104.415 54.816 104.415 56C104.415 57.184 104.004 58.1813 103.183 58.992ZM100.191 58.848C100.991 58.848 101.663 58.576 102.207 58.032C102.751 57.488 103.023 56.8107 103.023 56C103.023 55.1893 102.751 54.512 102.207 53.968C101.663 53.424 100.991 53.152 100.191 53.152C99.4017 53.152 98.735 53.424 98.191 53.968C97.647 54.512 97.375 55.1893 97.375 56C97.375 56.8107 97.647 57.488 98.191 58.032C98.735 58.576 99.4017 58.848 100.191 58.848ZM114.056 52V60H112.696V54.192L110.152 58.288H109.976L107.432 54.192V60H106.056V52H107.544L110.056 56.048L112.568 52H114.056ZM124.213 53.2C124.96 53.968 125.333 54.9013 125.333 56C125.333 57.0987 124.96 58.032 124.213 58.8C123.466 59.568 122.469 60.0213 121.221 60.16V63.2H119.845V60.16C118.597 60.0213 117.6 59.568 116.853 58.8C116.106 58.032 115.733 57.0987 115.733 56C115.733 54.9013 116.106 53.968 116.853 53.2C117.6 52.432 118.597 51.9787 119.845 51.84V48.8H121.221V51.84C122.469 51.9787 123.466 52.432 124.213 53.2ZM117.109 56C117.109 56.736 117.349 57.36 117.829 57.872C118.32 58.384 118.992 58.6987 119.845 58.816V53.184C118.992 53.2907 118.32 53.6 117.829 54.112C117.349 54.624 117.109 55.2533 117.109 56ZM121.221 58.816C122.074 58.6987 122.741 58.384 123.221 57.872C123.701 57.36 123.941 56.736 123.941 56C123.941 55.264 123.701 54.64 123.221 54.128C122.741 53.616 122.074 53.3013 121.221 53.184V58.816ZM133.73 58.992C132.909 59.8027 131.911 60.208 130.738 60.208C129.565 60.208 128.567 59.8027 127.746 58.992C126.935 58.1813 126.53 57.184 126.53 56C126.53 54.816 126.935 53.8187 127.746 53.008C128.567 52.1973 129.565 51.792 130.738 51.792C131.911 51.792 132.909 52.1973 133.73 53.008C134.551 53.8187 134.962 54.816 134.962 56C134.962 57.184 134.551 58.1813 133.73 58.992ZM130.738 58.848C131.538 58.848 132.21 58.576 132.754 58.032C133.298 57.488 133.57 56.8107 133.57 56C133.57 55.1893 133.298 54.512 132.754 53.968C132.21 53.424 131.538 53.152 130.738 53.152C129.949 53.152 129.282 53.424 128.738 53.968C128.194 54.512 127.922 55.1893 127.922 56C127.922 56.8107 128.194 57.488 128.738 58.032C129.282 58.576 129.949 58.848 130.738 58.848ZM141.019 51.792C142.139 51.792 143.094 52.2027 143.883 53.024C144.672 53.8347 145.067 54.8267 145.067 56C145.067 57.1733 144.672 58.1707 143.883 58.992C143.094 59.8027 142.139 60.208 141.019 60.208C139.696 60.208 138.688 59.68 137.995 58.624V63.2H136.603V52H137.995V53.376C138.688 52.32 139.696 51.792 141.019 51.792ZM140.843 58.864C141.643 58.864 142.315 58.592 142.859 58.048C143.403 57.4933 143.675 56.8107 143.675 56C143.675 55.1893 143.403 54.512 142.859 53.968C142.315 53.4133 141.643 53.136 140.843 53.136C140.032 53.136 139.355 53.4133 138.811 53.968C138.267 54.512 137.995 55.1893 137.995 56C137.995 56.8107 138.267 57.4933 138.811 58.048C139.355 58.592 140.032 58.864 140.843 58.864ZM152.367 52V53.344H149.647V60H148.255V53.344H145.519V52H152.367ZM159.899 52H161.291V60H159.899V58.624C159.205 59.68 158.197 60.208 156.875 60.208C155.755 60.208 154.8 59.8027 154.011 58.992C153.221 58.1707 152.827 57.1733 152.827 56C152.827 54.8267 153.221 53.8347 154.011 53.024C154.8 52.2027 155.755 51.792 156.875 51.792C158.197 51.792 159.205 52.32 159.899 53.376V52ZM157.051 58.864C157.861 58.864 158.539 58.592 159.083 58.048C159.627 57.4933 159.899 56.8107 159.899 56C159.899 55.1893 159.627 54.512 159.083 53.968C158.539 53.4133 157.861 53.136 157.051 53.136C156.251 53.136 155.579 53.4133 155.035 53.968C154.491 54.512 154.219 55.1893 154.219 56C154.219 56.8107 154.491 57.4933 155.035 58.048C155.579 58.592 156.251 58.864 157.051 58.864ZM172.728 55.888C173.549 56.2293 173.96 56.848 173.96 57.744C173.96 58.4053 173.736 58.9493 173.288 59.376C172.85 59.792 172.221 60 171.4 60H167.4V52H171.08C171.88 52 172.498 52.2027 172.936 52.608C173.373 53.0027 173.592 53.5253 173.592 54.176C173.592 54.944 173.304 55.5147 172.728 55.888ZM171.016 53.248H168.76V55.344H171.016C171.826 55.344 172.232 54.9867 172.232 54.272C172.232 53.5893 171.826 53.248 171.016 53.248ZM171.32 58.736C171.725 58.736 172.034 58.64 172.248 58.448C172.472 58.256 172.584 57.984 172.584 57.632C172.584 57.3013 172.472 57.0453 172.248 56.864C172.034 56.672 171.725 56.576 171.32 56.576H168.76V58.736H171.32ZM186.342 58.672H187.446V62.144H186.07V60H180.07V62.144H178.694V58.672H179.67C180.182 57.968 180.438 56.9813 180.438 55.712V52H186.342V58.672ZM181.254 58.672H184.966V53.296H181.814V55.712C181.814 56.9067 181.628 57.8933 181.254 58.672ZM194.275 55.888C195.096 56.2293 195.507 56.848 195.507 57.744C195.507 58.4053 195.283 58.9493 194.835 59.376C194.397 59.792 193.768 60 192.947 60H188.947V52H192.627C193.427 52 194.045 52.2027 194.483 52.608C194.92 53.0027 195.139 53.5253 195.139 54.176C195.139 54.944 194.851 55.5147 194.275 55.888ZM192.563 53.248H190.307V55.344H192.563C193.373 55.344 193.779 54.9867 193.779 54.272C193.779 53.5893 193.373 53.248 192.563 53.248ZM192.867 58.736C193.272 58.736 193.581 58.64 193.795 58.448C194.019 58.256 194.131 57.984 194.131 57.632C194.131 57.3013 194.019 57.0453 193.795 56.864C193.581 56.672 193.272 56.576 192.867 56.576H190.307V58.736H192.867ZM202.817 52H203.937V60H202.561V54.384L198.129 60H197.009V52H198.385V57.616L202.817 52ZM215.896 60H214.264L211.272 56.208V60H209.896V56.208L206.904 60H205.288L208.632 55.872L205.448 52H207.064L209.896 55.536V52H211.272V55.536L214.104 52H215.736L212.536 55.872L215.896 60ZM217.563 56.64C217.702 57.3547 218.027 57.9093 218.539 58.304C219.062 58.6987 219.702 58.896 220.459 58.896C221.515 58.896 222.283 58.5067 222.763 57.728L223.947 58.4C223.169 59.6053 221.995 60.208 220.427 60.208C219.158 60.208 218.123 59.8133 217.323 59.024C216.534 58.224 216.139 57.216 216.139 56C216.139 54.7947 216.529 53.792 217.307 52.992C218.086 52.192 219.094 51.792 220.331 51.792C221.505 51.792 222.459 52.208 223.195 53.04C223.942 53.8613 224.315 54.8533 224.315 56.016C224.315 56.2187 224.299 56.4267 224.267 56.64H217.563ZM220.331 53.104C219.585 53.104 218.966 53.3173 218.475 53.744C217.985 54.16 217.681 54.72 217.563 55.424H222.907C222.79 54.6667 222.491 54.0907 222.011 53.696C221.531 53.3013 220.971 53.104 220.331 53.104ZM231.451 52H232.843V60H231.451V56.656H227.307V60H225.915V52H227.307V55.328H231.451V52ZM240.77 52H241.89V60H240.514V54.384L236.082 60H234.962V52H236.338V57.616L240.77 52ZM249.817 52H250.937V60H249.561V54.384L245.129 60H244.009V52H245.385V57.616L249.817 52Z" fill="#4E5B67"/>
<path fill-rule="evenodd" clip-rule="evenodd" d="M278.422 10.0772V13.1544L278.844 13.5742C279.076 13.8051 279.266 14.0182 279.266 14.0478C279.266 14.0774 279.289 14.1016 279.319 14.1016C279.401 14.1016 280.742 15.4596 280.742 15.5428C280.742 15.6403 277.64 18.7422 277.543 18.7422C277.47 18.7422 276.242 17.5467 276.242 17.4763C276.242 17.4284 275.656 16.8438 275.608 16.8438C275.587 16.8438 275.477 16.7488 275.363 16.6328L275.156 16.4219H272.078H269V19.5336V22.6453L270.16 23.8047C270.798 24.4424 271.32 24.9802 271.32 25C271.32 25.0198 270.798 25.5576 270.16 26.1953L269 27.3547V30.4664V33.5781H272.077H275.153L276.312 32.418C277.068 31.6624 277.497 31.2578 277.543 31.2578C277.64 31.2578 280.742 34.3596 280.742 34.4573C280.742 34.5034 280.338 34.9324 279.582 35.6875L278.422 36.8469V39.9234V43H281.534H284.645L285.805 41.8398C286.442 41.2018 286.98 40.6797 287 40.6797C287.02 40.6797 287.558 41.2018 288.195 41.8398L289.355 43H292.466H295.578V39.9215V36.8431L295.402 36.6719C295.306 36.5777 295.227 36.4836 295.227 36.4627C295.227 36.4145 294.642 35.8281 294.594 35.8281C294.524 35.8281 293.258 34.5295 293.258 34.4572C293.258 34.3598 296.36 31.2578 296.457 31.2578C296.54 31.2578 298.18 32.8803 298.18 32.9627C298.18 32.9918 298.204 33.0156 298.234 33.0156C298.264 33.0156 298.413 33.1422 298.566 33.2969L298.845 33.5781H301.922H305V30.4664V27.3547L303.84 26.1953C303.202 25.5576 302.68 25.0198 302.68 25C302.68 24.9802 303.202 24.4424 303.84 23.8047L305 22.6453V19.5336V16.4219H301.923H298.847L297.688 17.582C296.932 18.3376 296.503 18.7422 296.457 18.7422C296.411 18.7422 295.849 18.2045 294.822 17.1778C293.795 16.1512 293.258 15.5891 293.258 15.5427C293.258 15.4966 293.662 15.0676 294.418 14.3125L295.578 13.1531V10.0766V7H292.466H289.355L288.195 8.16016C287.558 8.79824 287.02 9.32031 287 9.32031C286.98 9.32031 286.442 8.79824 285.805 8.16016L284.645 7H281.534H278.422V10.0772ZM284.627 9.93537C285.157 10.4648 285.453 10.7867 285.453 10.832C285.453 10.8782 284.912 11.4433 283.889 12.4669C283.028 13.3273 282.308 14.0312 282.289 14.0312C282.269 14.0312 281.866 13.6437 281.392 13.1701L280.531 12.3089V10.7092V9.10938H282.166H283.801L284.627 9.93537ZM293.469 10.7092V12.3089L292.608 13.1701C292.134 13.6437 291.731 14.0312 291.711 14.0312C291.692 14.0312 290.972 13.3273 290.111 12.4669C289.088 11.4433 288.547 10.8781 288.547 10.832C288.547 10.7869 288.843 10.4636 289.364 9.93822L290.182 9.11511L291.825 9.11226L293.469 9.10938V10.7092ZM288.635 13.9434L290.235 15.543L288.635 17.1426C287.755 18.0224 287.019 18.7422 287 18.7422C286.981 18.7422 286.245 18.0224 285.365 17.1426L283.765 15.543L285.356 13.9462C286.231 13.0681 286.967 12.3482 286.991 12.3466C287.016 12.3451 287.755 13.0636 288.635 13.9434ZM283.889 18.619C284.911 19.6414 285.453 20.2078 285.453 20.2539C285.453 20.3277 282.359 23.4531 282.286 23.4531C282.266 23.4531 282.188 23.3898 282.113 23.3125C282.039 23.2352 281.961 23.1719 281.94 23.1719C281.891 23.1719 279.406 20.6879 279.406 20.6385C279.406 20.6178 279.327 20.5233 279.229 20.4285L279.052 20.2561L280.644 18.6583C281.52 17.7795 282.256 17.0592 282.28 17.0576C282.305 17.056 283.028 17.7587 283.889 18.619ZM293.346 18.6542C294.226 19.5339 294.945 20.2696 294.945 20.2891C294.945 20.3085 294.241 21.0284 293.381 21.8888C292.359 22.9112 291.792 23.4531 291.746 23.4531C291.649 23.4531 288.547 20.3511 288.547 20.2539C288.547 20.178 291.622 17.0628 291.702 17.0576C291.726 17.056 292.466 17.7745 293.346 18.6542ZM275.17 19.3924C275.644 19.866 276.031 20.2695 276.031 20.289C276.031 20.3085 275.327 21.0284 274.467 21.8888C273.443 22.9124 272.878 23.4531 272.832 23.4531C272.787 23.4531 272.465 23.1566 271.935 22.6271L271.109 21.8012V20.1662V18.5312H272.709H274.309L275.17 19.3924ZM302.891 20.1662V21.8012L302.065 22.6271C301.535 23.1566 301.213 23.4531 301.168 23.4531C301.122 23.4531 300.557 22.9124 299.533 21.8888C298.673 21.0284 297.969 20.3085 297.969 20.289C297.969 20.2695 298.352 19.8673 298.821 19.3953L299.674 18.537L301.282 18.5341L302.891 18.5312V20.1662ZM279.143 23.3651C280.022 24.2449 280.742 24.9806 280.742 25C280.742 25.0194 280.022 25.7552 279.143 26.6349L277.543 28.2346L275.943 26.6349C275.064 25.7552 274.344 25.0194 274.344 25C274.344 24.9729 277.495 21.7814 277.534 21.7685C277.539 21.7669 278.263 22.4854 279.143 23.3651ZM287.862 22.5916C288.316 23.0459 288.688 23.4414 288.688 23.4705C288.688 23.4996 288.711 23.5234 288.74 23.5234C288.798 23.5234 290.234 24.9425 290.234 24.9999C290.234 25.0463 287.046 28.2344 287 28.2344C286.953 28.2344 285.734 27.0152 285.734 26.9685C285.734 26.9216 285.149 26.3359 285.102 26.3359C285.055 26.3359 283.766 25.0468 283.766 25.0001C283.766 24.9499 286.938 21.7721 286.991 21.7685C287.016 21.7669 287.407 22.1373 287.862 22.5916ZM298.057 23.3651C298.936 24.2449 299.656 24.9806 299.656 25C299.656 25.0194 298.936 25.7552 298.057 26.6349L296.457 28.2346L294.857 26.6349C293.978 25.7552 293.258 25.0194 293.258 25C293.258 24.9729 296.409 21.7814 296.448 21.7685C296.453 21.7669 297.177 22.4854 298.057 23.3651ZM274.467 28.1112C275.327 28.9716 276.031 29.6915 276.031 29.711C276.031 29.7305 275.644 30.134 275.17 30.6076L274.309 31.4688H272.709H271.109V29.8338V28.1989L271.927 27.3757C272.492 26.807 272.769 26.5517 272.823 26.5498C272.883 26.5476 273.296 26.9408 274.467 28.1112ZM283.889 28.1112C284.911 29.1336 285.453 29.7 285.453 29.7461C285.453 29.7922 284.911 30.3586 283.889 31.381C283.028 32.2413 282.309 32.9453 282.289 32.9453C282.243 32.9453 279.055 29.7571 279.055 29.7109C279.055 29.6915 279.755 28.9729 280.61 28.1141C281.706 27.0147 282.189 26.5518 282.245 26.5498C282.304 26.5476 282.718 26.9404 283.889 28.1112ZM293.381 28.1112C294.241 28.9716 294.945 29.6915 294.945 29.7109C294.945 29.7304 294.225 30.4667 293.344 31.3472L291.743 32.9482L291.607 32.8061C291.532 32.728 291.453 32.6641 291.432 32.6641C291.383 32.6641 288.898 30.1801 288.898 30.1307C288.898 30.11 288.819 30.0161 288.723 29.9219C288.626 29.8277 288.547 29.7338 288.547 29.7131C288.547 29.6925 289.247 28.9729 290.103 28.1141C291.198 27.0147 291.682 26.5518 291.737 26.5498C291.797 26.5476 292.21 26.9404 293.381 28.1112ZM302.065 27.3729L302.891 28.1988V29.8338V31.4688H301.291H299.691L298.83 30.6076C298.356 30.134 297.969 29.7305 297.969 29.711C297.969 29.6915 298.669 28.9729 299.524 28.1141C300.621 27.0136 301.103 26.5518 301.159 26.5498C301.218 26.5476 301.456 26.7645 302.065 27.3729ZM288.635 32.8574L290.235 34.457L288.635 36.0566C287.755 36.9364 287.019 37.6562 287 37.6562C286.981 37.6562 286.245 36.9364 285.365 36.0566L283.765 34.457L285.356 32.8603C286.231 31.9821 286.967 31.2623 286.991 31.2607C287.016 31.2591 287.755 31.9776 288.635 32.8574ZM283.889 37.5331C284.912 38.5567 285.453 39.1218 285.453 39.168C285.453 39.2133 285.157 39.5352 284.627 40.0646L283.801 40.8906H282.166H280.531V39.2908V37.6911L281.384 36.8328C281.853 36.3607 282.256 35.9732 282.28 35.9716C282.305 35.97 283.028 36.6727 283.889 37.5331ZM292.608 36.8299L293.469 37.6911V39.2908V40.8906H291.834H290.199L289.373 40.0646C288.843 39.5352 288.547 39.2133 288.547 39.1681C288.547 39.092 291.622 35.9769 291.702 35.9716C291.727 35.97 292.134 36.3563 292.608 36.8299Z" fill="url(#paint0_linear_45_229)"/>
<defs>
<linearGradient id="paint0_linear_45_229" x1="268.702" y1="7" x2="309.671" y2="13.4833" gradientUnits="userSpaceOnUse">
<stop stop-color="#67ADD7"/>
<stop offset="1" stop-color="#67ADD7"/>
</linearGradient>
</defs>
</svg>
