<svg width="312" height="50" viewBox="0 0 312 50" fill="none" xmlns="http://www.w3.org/2000/svg">
<path fill-rule="evenodd" clip-rule="evenodd" d="M25.0002 9.34794C25.6486 9.34794 26.1741 8.82235 26.1741 8.17397C26.1741 7.52559 25.6486 7 25.0002 7C24.3519 7 23.8263 7.52559 23.8263 8.17397C23.8263 8.82235 24.3519 9.34794 25.0002 9.34794ZM19.5216 12.8698C19.5216 13.5182 18.996 14.0438 18.3476 14.0438C17.6993 14.0438 17.1737 13.5182 17.1737 12.8698C17.1737 12.2215 17.6993 11.6959 18.3476 11.6959C18.996 11.6959 19.5216 12.2215 19.5216 12.8698ZM33.2179 12.8698C33.2179 13.5182 32.6923 14.0438 32.044 14.0438C31.3957 14.0438 30.8701 13.5182 30.8701 12.8698C30.8701 12.2215 31.3957 11.6959 32.044 11.6959C32.6923 11.6959 33.2179 12.2215 33.2179 12.8698ZM37.3014 28.8237C40.3903 29.902 42.5224 31.87 42.6281 31.9687C43.1235 32.432 43.1244 33.2195 42.6281 33.6836C42.4603 33.8405 38.4647 37.5219 33.4131 37.5219C32.2766 37.5219 31.1936 37.3351 30.1955 37.0445C28.8158 38.6135 26.0058 39.6014 25.3659 39.8113C25.2008 39.8653 25.0267 39.8819 24.856 39.8611C24.781 39.8518 24.7067 39.8352 24.6341 39.8113C23.9941 39.6014 21.1842 38.6133 19.8045 37.0445C18.8064 37.3351 17.7236 37.5219 16.5869 37.5219C11.5352 37.5219 7.53963 33.8403 7.37201 33.6836C6.87637 33.2203 6.87562 32.433 7.37201 31.9687C7.47761 31.87 9.60971 29.9023 12.6986 28.8237C9.9555 24.8697 10.2074 19.7155 10.2212 19.4697C10.255 18.8723 10.7327 18.3959 11.3302 18.3638C11.5319 18.3527 15.8005 18.1503 19.5957 20.0437C20.9163 16.0967 24.0594 13.3065 24.2272 13.1599C24.6696 12.7729 25.3304 12.7729 25.7729 13.1599C25.9406 13.3065 29.0838 16.0967 30.4043 20.0437C34.1994 18.1503 38.4681 18.3532 38.6697 18.3638C39.2673 18.3959 39.7449 18.8723 39.7787 19.4697C39.7926 19.7155 40.0445 24.8697 37.3014 28.8237ZM28.6338 23.4348C28.6338 20.0455 26.2662 17.0537 25.0018 15.6977C23.7383 17.0575 21.3665 20.0598 21.3665 23.4348C21.3665 26.8241 23.734 29.8159 24.9984 31.1719C26.2619 29.8121 28.6338 26.8098 28.6338 23.4348ZM10.0681 32.8258C11.4139 33.7755 13.8592 35.174 16.587 35.174C18.4789 35.174 20.2347 34.5012 21.5824 33.772C19.4069 33.4398 16.6139 32.641 14.4293 30.7553C12.6048 31.2099 11.046 32.1352 10.0681 32.8258ZM12.5803 20.7212C12.6758 22.5396 13.1717 26.1695 15.5013 28.5435C15.5279 28.5638 15.5699 28.6043 15.629 28.6613C16.1436 29.1575 17.9545 30.9032 22.1787 31.4851C20.1358 28.8712 18.7308 25.7265 19.0713 22.4258C16.7888 21.115 14.0744 20.7931 12.5803 20.7212ZM22.2375 36.0825C22.9547 36.5787 24.0041 37.0917 25 37.4536C25.9957 37.092 27.0452 36.579 27.7626 36.0825C26.574 35.4886 25.6212 34.8287 25 34.3508C24.3788 34.8287 23.4261 35.4884 22.2375 36.0825ZM37.4224 20.721C35.9297 20.7923 33.213 21.114 30.9287 22.4258C31.2683 25.7189 29.871 28.8607 27.8254 31.4798C32.0571 30.8924 33.8597 29.1545 34.3719 28.6605C34.4307 28.6038 34.4725 28.5636 34.499 28.5433C36.8399 26.1587 37.3305 22.5363 37.4224 20.721ZM28.4175 33.772C29.7652 34.5012 31.5211 35.174 33.4131 35.174C36.1406 35.174 38.5857 33.7758 39.9321 32.8258C38.9545 32.1355 37.3956 31.2101 35.571 30.7553C33.3863 32.641 30.5932 33.4398 28.4175 33.772Z" fill="url(#paint0_linear_128_777)"/>
<path d="M67.616 4.8H69.12L65.52 13.344C65.1147 14.304 64.5973 15.0027 63.968 15.44C63.3387 15.8667 62.5707 16.0533 61.664 16V14.624C62.2827 14.688 62.784 14.5973 63.168 14.352C63.552 14.1067 63.872 13.6853 64.128 13.088L64.24 12.832L60.448 4.8H61.952L64.928 11.2L67.616 4.8ZM75.3733 8H76.7653V16H75.3733V12.656H71.2293V16H69.8372V8H71.2293V11.328H75.3733V8ZM84.6921 8H85.8121V16H84.4361V10.384L80.0041 16H78.8841V8H80.2601V13.616L84.6921 8ZM94.699 16H92.971L89.323 12.208V16H87.931V8H89.323V11.536L92.779 8H94.571L90.747 11.872L94.699 16ZM101.883 8H103.275V16H101.883V14.624C101.19 15.68 100.182 16.208 98.8591 16.208C97.7391 16.208 96.7845 15.8027 95.9951 14.992C95.2058 14.1707 94.8111 13.1733 94.8111 12C94.8111 10.8267 95.2058 9.83467 95.9951 9.024C96.7845 8.20267 97.7391 7.792 98.8591 7.792C100.182 7.792 101.19 8.32 101.883 9.376V8ZM99.0351 14.864C99.8458 14.864 100.523 14.592 101.067 14.048C101.611 13.4933 101.883 12.8107 101.883 12C101.883 11.1893 101.611 10.512 101.067 9.968C100.523 9.41333 99.8458 9.136 99.0351 9.136C98.2351 9.136 97.5631 9.41333 97.0191 9.968C96.4751 10.512 96.2031 11.1893 96.2031 12C96.2031 12.8107 96.4751 13.4933 97.0191 14.048C97.5631 14.592 98.2351 14.864 99.0351 14.864ZM112.056 8V16H110.664V9.344H107.512V12.608C107.512 13.92 107.245 14.8373 106.712 15.36C106.189 15.872 105.448 16.0853 104.488 16V14.688C105.032 14.7627 105.437 14.6453 105.704 14.336C105.981 14.016 106.12 13.4293 106.12 12.576V8H112.056ZM117.541 10.88C118.341 10.88 119.003 11.12 119.525 11.6C120.059 12.0693 120.325 12.6827 120.325 13.44C120.325 14.1973 120.059 14.816 119.525 15.296C119.003 15.7653 118.341 16 117.541 16H114.165V8H115.557V10.88H117.541ZM117.541 14.704C117.936 14.704 118.267 14.592 118.533 14.368C118.811 14.1333 118.949 13.824 118.949 13.44C118.949 13.056 118.811 12.7467 118.533 12.512C118.267 12.2773 117.936 12.16 117.541 12.16H115.557V14.704H117.541ZM127.358 8H128.75V16H127.358V12.656H123.214V16H121.822V8H123.214V11.328H127.358V8ZM134.245 10.88C135.045 10.88 135.706 11.12 136.229 11.6C136.762 12.0693 137.029 12.6827 137.029 13.44C137.029 14.1973 136.762 14.816 136.229 15.296C135.706 15.7653 135.045 16 134.245 16H130.868V8H132.261V10.88H134.245ZM138.069 8H139.461V16H138.069V8ZM134.245 14.704C134.639 14.704 134.97 14.592 135.237 14.368C135.514 14.1333 135.653 13.824 135.653 13.44C135.653 13.056 135.514 12.7467 135.237 12.512C134.97 12.2773 134.639 12.16 134.245 12.16H132.261V14.704H134.245ZM142.563 12.64C142.702 13.3547 143.027 13.9093 143.539 14.304C144.062 14.6987 144.702 14.896 145.459 14.896C146.515 14.896 147.283 14.5067 147.763 13.728L148.947 14.4C148.169 15.6053 146.995 16.208 145.427 16.208C144.158 16.208 143.123 15.8133 142.323 15.024C141.534 14.224 141.139 13.216 141.139 12C141.139 10.7947 141.529 9.792 142.307 8.992C143.086 8.192 144.094 7.792 145.331 7.792C146.505 7.792 147.459 8.208 148.195 9.04C148.942 9.86133 149.315 10.8533 149.315 12.016C149.315 12.2187 149.299 12.4267 149.267 12.64H142.563ZM145.331 9.104C144.585 9.104 143.966 9.31733 143.475 9.744C142.985 10.16 142.681 10.72 142.563 11.424H147.907C147.79 10.6667 147.491 10.0907 147.011 9.696C146.531 9.30133 145.971 9.104 145.331 9.104ZM67.008 30V31.344H64.288V38H62.896V31.344H60.16V30H67.008ZM72.6439 29.792C73.7639 29.792 74.7185 30.2027 75.5079 31.024C76.2972 31.8347 76.6919 32.8267 76.6919 34C76.6919 35.1733 76.2972 36.1707 75.5079 36.992C74.7185 37.8027 73.7639 38.208 72.6439 38.208C71.3212 38.208 70.3132 37.68 69.6199 36.624V41.2H68.2279V30H69.6199V31.376C70.3132 30.32 71.3212 29.792 72.6439 29.792ZM72.4679 36.864C73.2679 36.864 73.9399 36.592 74.4839 36.048C75.0279 35.4933 75.2999 34.8107 75.2999 34C75.2999 33.1893 75.0279 32.512 74.4839 31.968C73.9399 31.4133 73.2679 31.136 72.4679 31.136C71.6572 31.136 70.9799 31.4133 70.4359 31.968C69.8919 32.512 69.6199 33.1893 69.6199 34C69.6199 34.8107 69.8919 35.4933 70.4359 36.048C70.9799 36.592 71.6572 36.864 72.4679 36.864ZM84.1609 30H85.2809V38H83.9049V32.384L79.4729 38H78.3529V30H79.7289V35.616L84.1609 30ZM94.1678 38H92.4398L88.7918 34.208V38H87.3997V30H88.7918V33.536L92.2478 30H94.0398L90.2158 33.872L94.1678 38ZM101.48 36.992C100.659 37.8027 99.6612 38.208 98.4879 38.208C97.3145 38.208 96.3172 37.8027 95.4959 36.992C94.6852 36.1813 94.2799 35.184 94.2799 34C94.2799 32.816 94.6852 31.8187 95.4959 31.008C96.3172 30.1973 97.3145 29.792 98.4879 29.792C99.6612 29.792 100.659 30.1973 101.48 31.008C102.301 31.8187 102.712 32.816 102.712 34C102.712 35.184 102.301 36.1813 101.48 36.992ZM98.4879 36.848C99.2879 36.848 99.9599 36.576 100.504 36.032C101.048 35.488 101.32 34.8107 101.32 34C101.32 33.1893 101.048 32.512 100.504 31.968C99.9599 31.424 99.2879 31.152 98.4879 31.152C97.6985 31.152 97.0319 31.424 96.4879 31.968C95.9439 32.512 95.6719 33.1893 95.6719 34C95.6719 34.8107 95.9439 35.488 96.4879 36.032C97.0319 36.576 97.6985 36.848 98.4879 36.848ZM109.992 30V31.344H107.272V38H105.88V31.344H103.144V30H109.992ZM117.524 30H118.916V38H117.524V36.624C116.83 37.68 115.822 38.208 114.5 38.208C113.38 38.208 112.425 37.8027 111.636 36.992C110.846 36.1707 110.452 35.1733 110.452 34C110.452 32.8267 110.846 31.8347 111.636 31.024C112.425 30.2027 113.38 29.792 114.5 29.792C115.822 29.792 116.83 30.32 117.524 31.376V30ZM114.676 36.864C115.486 36.864 116.164 36.592 116.708 36.048C117.252 35.4933 117.524 34.8107 117.524 34C117.524 33.1893 117.252 32.512 116.708 31.968C116.164 31.4133 115.486 31.136 114.676 31.136C113.876 31.136 113.204 31.4133 112.66 31.968C112.116 32.512 111.844 33.1893 111.844 34C111.844 34.8107 112.116 35.4933 112.66 36.048C113.204 36.592 113.876 36.864 114.676 36.864ZM130.865 38H129.233L126.241 34.208V38H124.865V34.208L121.873 38H120.257L123.601 33.872L120.417 30H122.033L124.865 33.536V30H126.241V33.536L129.073 30H130.705L127.505 33.872L130.865 38ZM137.733 30H139.125V38H137.733V34.656H133.589V38H132.197V30H133.589V33.328H137.733V30ZM144.62 32.88C145.42 32.88 146.081 33.12 146.604 33.6C147.137 34.0693 147.404 34.6827 147.404 35.44C147.404 36.1973 147.137 36.816 146.604 37.296C146.081 37.7653 145.42 38 144.62 38H141.243V30H142.636V32.88H144.62ZM148.444 30H149.836V38H148.444V30ZM144.62 36.704C145.014 36.704 145.345 36.592 145.612 36.368C145.889 36.1333 146.028 35.824 146.028 35.44C146.028 35.056 145.889 34.7467 145.612 34.512C145.345 34.2773 145.014 34.16 144.62 34.16H142.636V36.704H144.62ZM152.938 34.64C153.077 35.3547 153.402 35.9093 153.914 36.304C154.437 36.6987 155.077 36.896 155.834 36.896C156.89 36.896 157.658 36.5067 158.138 35.728L159.322 36.4C158.544 37.6053 157.37 38.208 155.802 38.208C154.533 38.208 153.498 37.8133 152.698 37.024C151.909 36.224 151.514 35.216 151.514 34C151.514 32.7947 151.904 31.792 152.682 30.992C153.461 30.192 154.469 29.792 155.706 29.792C156.88 29.792 157.834 30.208 158.57 31.04C159.317 31.8613 159.69 32.8533 159.69 34.016C159.69 34.2187 159.674 34.4267 159.642 34.64H152.938ZM155.706 31.104C154.96 31.104 154.341 31.3173 153.85 31.744C153.36 32.16 153.056 32.72 152.938 33.424H158.282C158.165 32.6667 157.866 32.0907 157.386 31.696C156.906 31.3013 156.346 31.104 155.706 31.104ZM172.17 36.672H173.274V40.144H171.898V38H165.898V40.144H164.522V36.672H165.498C166.01 35.968 166.266 34.9813 166.266 33.712V30H172.17V36.672ZM167.082 36.672H170.794V31.296H167.642V33.712C167.642 34.9067 167.456 35.8933 167.082 36.672ZM175.438 34.64C175.577 35.3547 175.902 35.9093 176.414 36.304C176.937 36.6987 177.577 36.896 178.334 36.896C179.39 36.896 180.158 36.5067 180.638 35.728L181.822 36.4C181.044 37.6053 179.87 38.208 178.302 38.208C177.033 38.208 175.998 37.8133 175.198 37.024C174.409 36.224 174.014 35.216 174.014 34C174.014 32.7947 174.404 31.792 175.182 30.992C175.961 30.192 176.969 29.792 178.206 29.792C179.38 29.792 180.334 30.208 181.07 31.04C181.817 31.8613 182.19 32.8533 182.19 34.016C182.19 34.2187 182.174 34.4267 182.142 34.64H175.438ZM178.206 31.104C177.46 31.104 176.841 31.3173 176.35 31.744C175.86 32.16 175.556 32.72 175.438 33.424H180.782C180.665 32.6667 180.366 32.0907 179.886 31.696C179.406 31.3013 178.846 31.104 178.206 31.104ZM189.43 30V31.344H186.71V38H185.318V31.344H182.582V30H189.43ZM196.961 30H198.353V38H196.961V36.624C196.268 37.68 195.26 38.208 193.937 38.208C192.817 38.208 191.863 37.8027 191.073 36.992C190.284 36.1707 189.889 35.1733 189.889 34C189.889 32.8267 190.284 31.8347 191.073 31.024C191.863 30.2027 192.817 29.792 193.937 29.792C195.26 29.792 196.268 30.32 196.961 31.376V30ZM194.113 36.864C194.924 36.864 195.601 36.592 196.145 36.048C196.689 35.4933 196.961 34.8107 196.961 34C196.961 33.1893 196.689 32.512 196.145 31.968C195.601 31.4133 194.924 31.136 194.113 31.136C193.313 31.136 192.641 31.4133 192.097 31.968C191.553 32.512 191.281 33.1893 191.281 34C191.281 34.8107 191.553 35.4933 192.097 36.048C192.641 36.592 193.313 36.864 194.113 36.864ZM207.134 30V38H205.742V31.344H202.59V34.608C202.59 35.92 202.324 36.8373 201.79 37.36C201.268 37.872 200.526 38.0853 199.566 38V36.688C200.11 36.7627 200.516 36.6453 200.782 36.336C201.06 36.016 201.198 35.4293 201.198 34.576V30H207.134ZM215.052 30H216.172V38H214.796V32.384L210.364 38H209.243V30H210.62V35.616L215.052 30Z" fill="#4E5B67"/>
<defs>
<linearGradient id="paint0_linear_128_777" x1="6.70248" y1="7" x2="47.4723" y2="14.0663" gradientUnits="userSpaceOnUse">
<stop stop-color="#67ADD7"/>
<stop offset="1" stop-color="#67ADD7"/>
</linearGradient>
</defs>
</svg>
