<svg width="312" height="50" viewBox="0 0 312 50" fill="none" xmlns="http://www.w3.org/2000/svg">
<path d="M17.8468 4.8H19.3188V16H17.8468V10.96H12.4068V16H10.9188V4.8H12.4068V9.552H17.8468V4.8ZM28.1956 8H29.5876V16H28.1956V14.624C27.5023 15.68 26.4943 16.208 25.1716 16.208C24.0516 16.208 23.097 15.8027 22.3076 14.992C21.5183 14.1707 21.1236 13.1733 21.1236 12C21.1236 10.8267 21.5183 9.83467 22.3076 9.024C23.097 8.20267 24.0516 7.792 25.1716 7.792C26.4943 7.792 27.5023 8.32 28.1956 9.376V8ZM25.3476 14.864C26.1583 14.864 26.8356 14.592 27.3796 14.048C27.9236 13.4933 28.1956 12.8107 28.1956 12C28.1956 11.1893 27.9236 10.512 27.3796 9.968C26.8356 9.41333 26.1583 9.136 25.3476 9.136C24.5476 9.136 23.8756 9.41333 23.3316 9.968C22.7876 10.512 22.5156 11.1893 22.5156 12C22.5156 12.8107 22.7876 13.4933 23.3316 14.048C23.8756 14.592 24.5476 14.864 25.3476 14.864ZM37.6486 8V9.344H34.9286V16H33.5366V9.344H30.8006V8H37.6486ZM44.4994 8H45.9874L42.7234 16.496C42.382 17.4027 41.902 18.0907 41.2834 18.56C40.6647 19.04 39.9607 19.2533 39.1714 19.2V17.904C40.1527 17.9787 40.8727 17.4453 41.3314 16.304L41.4594 16.016L37.9874 8H39.4594L42.1954 14.272L44.4994 8ZM51.5658 7.792C52.6858 7.792 53.6404 8.20267 54.4298 9.024C55.2191 9.83467 55.6138 10.8267 55.6138 12C55.6138 13.1733 55.2191 14.1707 54.4298 14.992C53.6404 15.8027 52.6858 16.208 51.5658 16.208C50.2431 16.208 49.2351 15.68 48.5418 14.624V19.2H47.1497V8H48.5418V9.376C49.2351 8.32 50.2431 7.792 51.5658 7.792ZM51.3898 14.864C52.1898 14.864 52.8618 14.592 53.4058 14.048C53.9498 13.4933 54.2218 12.8107 54.2218 12C54.2218 11.1893 53.9498 10.512 53.4058 9.968C52.8618 9.41333 52.1898 9.136 51.3898 9.136C50.5791 9.136 49.9018 9.41333 49.3578 9.968C48.8138 10.512 48.5418 11.1893 48.5418 12C48.5418 12.8107 48.8138 13.4933 49.3578 14.048C49.9018 14.592 50.5791 14.864 51.3898 14.864ZM63.8988 8H65.2908V16H63.8988V14.624C63.2054 15.68 62.1974 16.208 60.8748 16.208C59.7548 16.208 58.8001 15.8027 58.0108 14.992C57.2214 14.1707 56.8268 13.1733 56.8268 12C56.8268 10.8267 57.2214 9.83467 58.0108 9.024C58.8001 8.20267 59.7548 7.792 60.8748 7.792C62.1974 7.792 63.2054 8.32 63.8988 9.376V8ZM61.0508 14.864C61.8614 14.864 62.5388 14.592 63.0828 14.048C63.6268 13.4933 63.8988 12.8107 63.8988 12C63.8988 11.1893 63.6268 10.512 63.0828 9.968C62.5388 9.41333 61.8614 9.136 61.0508 9.136C60.2508 9.136 59.5788 9.41333 59.0348 9.968C58.4908 10.512 58.2188 11.1893 58.2188 12C58.2188 12.8107 58.4908 13.4933 59.0348 14.048C59.5788 14.592 60.2508 14.864 61.0508 14.864ZM74.0718 8V16H72.6798V9.344H69.5278V12.608C69.5278 13.92 69.2611 14.8373 68.7278 15.36C68.2051 15.872 67.4638 16.0853 66.5038 16V14.688C67.0478 14.7627 67.4531 14.6453 67.7198 14.336C67.9971 14.016 68.1358 13.4293 68.1358 12.576V8H74.0718ZM79.557 10.88C80.357 10.88 81.0183 11.12 81.541 11.6C82.0743 12.0693 82.341 12.6827 82.341 13.44C82.341 14.1973 82.0743 14.816 81.541 15.296C81.0183 15.7653 80.357 16 79.557 16H76.181V8H77.573V10.88H79.557ZM79.557 14.704C79.9517 14.704 80.2823 14.592 80.549 14.368C80.8263 14.1333 80.965 13.824 80.965 13.44C80.965 13.056 80.8263 12.7467 80.549 12.512C80.2823 12.2773 79.9517 12.16 79.557 12.16H77.573V14.704H79.557ZM89.3733 8H90.7653V16H89.3733V12.656H85.2293V16H83.8372V8H85.2293V11.328H89.3733V8ZM96.2601 10.88C97.0601 10.88 97.7215 11.12 98.2441 11.6C98.7775 12.0693 99.0441 12.6827 99.0441 13.44C99.0441 14.1973 98.7775 14.816 98.2441 15.296C97.7215 15.7653 97.0601 16 96.2601 16H92.8841V8H94.2761V10.88H96.2601ZM100.084 8H101.476V16H100.084V8ZM96.2601 14.704C96.6548 14.704 96.9855 14.592 97.2521 14.368C97.5295 14.1333 97.6681 13.824 97.6681 13.44C97.6681 13.056 97.5295 12.7467 97.2521 12.512C96.9855 12.2773 96.6548 12.16 96.2601 12.16H94.2761V14.704H96.2601ZM104.579 12.64C104.718 13.3547 105.043 13.9093 105.555 14.304C106.078 14.6987 106.718 14.896 107.475 14.896C108.531 14.896 109.299 14.5067 109.779 13.728L110.963 14.4C110.184 15.6053 109.011 16.208 107.443 16.208C106.174 16.208 105.139 15.8133 104.339 15.024C103.55 14.224 103.155 13.216 103.155 12C103.155 10.7947 103.544 9.792 104.323 8.992C105.102 8.192 106.11 7.792 107.347 7.792C108.52 7.792 109.475 8.208 110.211 9.04C110.958 9.86133 111.331 10.8533 111.331 12.016C111.331 12.2187 111.315 12.4267 111.283 12.64H104.579ZM107.347 9.104C106.6 9.104 105.982 9.31733 105.491 9.744C105 10.16 104.696 10.72 104.579 11.424H109.923C109.806 10.6667 109.507 10.0907 109.027 9.696C108.547 9.30133 107.987 9.104 107.347 9.104ZM124.931 8V16H123.571V10.192L121.027 14.288H120.851L118.307 10.192V16H116.931V8H118.419L120.931 12.048L123.443 8H124.931ZM133.68 8H135.072V16H133.68V14.624C132.987 15.68 131.979 16.208 130.656 16.208C129.536 16.208 128.581 15.8027 127.792 14.992C127.003 14.1707 126.608 13.1733 126.608 12C126.608 10.8267 127.003 9.83467 127.792 9.024C128.581 8.20267 129.536 7.792 130.656 7.792C131.979 7.792 132.987 8.32 133.68 9.376V8ZM130.832 14.864C131.643 14.864 132.32 14.592 132.864 14.048C133.408 13.4933 133.68 12.8107 133.68 12C133.68 11.1893 133.408 10.512 132.864 9.968C132.32 9.41333 131.643 9.136 130.832 9.136C130.032 9.136 129.36 9.41333 128.816 9.968C128.272 10.512 128 11.1893 128 12C128 12.8107 128.272 13.4933 128.816 14.048C129.36 14.592 130.032 14.864 130.832 14.864ZM143.133 8V9.344H140.413V16H139.021V9.344H136.285V8H143.133ZM145.016 12.64C145.155 13.3547 145.48 13.9093 145.992 14.304C146.515 14.6987 147.155 14.896 147.912 14.896C148.968 14.896 149.736 14.5067 150.216 13.728L151.4 14.4C150.622 15.6053 149.448 16.208 147.88 16.208C146.611 16.208 145.576 15.8133 144.776 15.024C143.987 14.224 143.592 13.216 143.592 12C143.592 10.7947 143.982 9.792 144.76 8.992C145.539 8.192 146.547 7.792 147.784 7.792C148.958 7.792 149.912 8.208 150.648 9.04C151.395 9.86133 151.768 10.8533 151.768 12.016C151.768 12.2187 151.752 12.4267 151.72 12.64H145.016ZM147.784 9.104C147.038 9.104 146.419 9.31733 145.928 9.744C145.438 10.16 145.134 10.72 145.016 11.424H150.36C150.243 10.6667 149.944 10.0907 149.464 9.696C148.984 9.30133 148.424 9.104 147.784 9.104ZM157.785 7.792C158.905 7.792 159.859 8.20267 160.649 9.024C161.438 9.83467 161.833 10.8267 161.833 12C161.833 13.1733 161.438 14.1707 160.649 14.992C159.859 15.8027 158.905 16.208 157.785 16.208C156.462 16.208 155.454 15.68 154.761 14.624V19.2H153.368V8H154.761V9.376C155.454 8.32 156.462 7.792 157.785 7.792ZM157.609 14.864C158.409 14.864 159.081 14.592 159.625 14.048C160.169 13.4933 160.441 12.8107 160.441 12C160.441 11.1893 160.169 10.512 159.625 9.968C159.081 9.41333 158.409 9.136 157.609 9.136C156.798 9.136 156.121 9.41333 155.577 9.968C155.033 10.512 154.761 11.1893 154.761 12C154.761 12.8107 155.033 13.4933 155.577 14.048C156.121 14.592 156.798 14.864 157.609 14.864ZM169.302 8H170.422V16H169.046V10.384L164.614 16H163.493V8H164.87V13.616L169.302 8ZM179.164 8H180.556V16H179.164V14.624C178.471 15.68 177.463 16.208 176.14 16.208C175.02 16.208 174.066 15.8027 173.276 14.992C172.487 14.1707 172.092 13.1733 172.092 12C172.092 10.8267 172.487 9.83467 173.276 9.024C174.066 8.20267 175.02 7.792 176.14 7.792C177.463 7.792 178.471 8.32 179.164 9.376V8ZM176.316 14.864C177.127 14.864 177.804 14.592 178.348 14.048C178.892 13.4933 179.164 12.8107 179.164 12C179.164 11.1893 178.892 10.512 178.348 9.968C177.804 9.41333 177.127 9.136 176.316 9.136C175.516 9.136 174.844 9.41333 174.3 9.968C173.756 10.512 173.484 11.1893 173.484 12C173.484 12.8107 173.756 13.4933 174.3 14.048C174.844 14.592 175.516 14.864 176.316 14.864ZM189.337 8V16H187.945V9.344H184.793V12.608C184.793 13.92 184.527 14.8373 183.993 15.36C183.471 15.872 182.729 16.0853 181.769 16V14.688C182.313 14.7627 182.719 14.6453 182.985 14.336C183.263 14.016 183.401 13.4293 183.401 12.576V8H189.337ZM194.823 10.88C195.623 10.88 196.284 11.12 196.807 11.6C197.34 12.0693 197.607 12.6827 197.607 13.44C197.607 14.1973 197.34 14.816 196.807 15.296C196.284 15.7653 195.623 16 194.823 16H191.447V8H192.839V10.88H194.823ZM198.647 8H200.039V16H198.647V8ZM194.823 14.704C195.217 14.704 195.548 14.592 195.815 14.368C196.092 14.1333 196.231 13.824 196.231 13.44C196.231 13.056 196.092 12.7467 195.815 12.512C195.548 12.2773 195.217 12.16 194.823 12.16H192.839V14.704H194.823ZM203.045 9.888C202.757 9.888 202.512 9.78667 202.309 9.584C202.107 9.38133 202.005 9.136 202.005 8.848C202.005 8.56 202.107 8.31467 202.309 8.112C202.512 7.90933 202.757 7.808 203.045 7.808C203.344 7.808 203.589 7.90933 203.781 8.112C203.984 8.31467 204.085 8.56 204.085 8.848C204.085 9.136 203.984 9.38133 203.781 9.584C203.589 9.78667 203.344 9.888 203.045 9.888ZM203.045 16.176C202.757 16.176 202.512 16.0747 202.309 15.872C202.107 15.6693 202.005 15.424 202.005 15.136C202.005 14.848 202.107 14.6027 202.309 14.4C202.512 14.1973 202.757 14.096 203.045 14.096C203.344 14.096 203.589 14.1973 203.781 14.4C203.984 14.6027 204.085 14.848 204.085 15.136C204.085 15.424 203.984 15.6693 203.781 15.872C203.589 16.0747 203.344 16.176 203.045 16.176ZM219.624 8H221.016V16H210.056V8H211.448V14.672H214.84V8H216.232V14.672H219.624V8ZM224.126 12.64C224.264 13.3547 224.59 13.9093 225.102 14.304C225.624 14.6987 226.264 14.896 227.022 14.896C228.078 14.896 228.846 14.5067 229.326 13.728L230.51 14.4C229.731 15.6053 228.558 16.208 226.99 16.208C225.72 16.208 224.686 15.8133 223.886 15.024C223.096 14.224 222.702 13.216 222.702 12C222.702 10.7947 223.091 9.792 223.87 8.992C224.648 8.192 225.656 7.792 226.894 7.792C228.067 7.792 229.022 8.208 229.758 9.04C230.504 9.86133 230.878 10.8533 230.878 12.016C230.878 12.2187 230.862 12.4267 230.83 12.64H224.126ZM226.894 9.104C226.147 9.104 225.528 9.31733 225.038 9.744C224.547 10.16 224.243 10.72 224.126 11.424H229.47C229.352 10.6667 229.054 10.0907 228.574 9.696C228.094 9.30133 227.534 9.104 226.894 9.104ZM238.837 8V16H237.445V9.344H234.293V12.608C234.293 13.92 234.027 14.8373 233.493 15.36C232.971 15.872 232.229 16.0853 231.269 16V14.688C231.813 14.7627 232.219 14.6453 232.485 14.336C232.763 14.016 232.901 13.4293 232.901 12.576V8H238.837ZM247.715 16H245.987L242.339 12.208V16H240.947V8H242.339V11.536L245.795 8H247.587L243.763 11.872L247.715 16ZM251.089 14.352L250.049 18.24H248.849L249.489 14.352H251.089ZM103.572 33.888C104.393 34.2293 104.804 34.848 104.804 35.744C104.804 36.4053 104.58 36.9493 104.132 37.376C103.694 37.792 103.065 38 102.244 38H98.2435V30H101.924C102.724 30 103.342 30.2027 103.78 30.608C104.217 31.0027 104.436 31.5253 104.436 32.176C104.436 32.944 104.148 33.5147 103.572 33.888ZM101.86 31.248H99.6035V33.344H101.86C102.67 33.344 103.076 32.9867 103.076 32.272C103.076 31.5893 102.67 31.248 101.86 31.248ZM102.164 36.736C102.569 36.736 102.878 36.64 103.092 36.448C103.316 36.256 103.428 35.984 103.428 35.632C103.428 35.3013 103.316 35.0453 103.092 34.864C102.878 34.672 102.569 34.576 102.164 34.576H99.6035V36.736H102.164ZM112.114 30H113.234V38H111.858V32.384L107.426 38H106.306V30H107.682V35.616L112.114 30ZM119.673 33.904C120.558 34.2667 121.001 34.9013 121.001 35.808C121.001 36.48 120.734 37.0507 120.201 37.52C119.668 37.9787 118.91 38.208 117.929 38.208C116.329 38.208 115.257 37.568 114.713 36.288L115.881 35.6C116.19 36.4747 116.878 36.912 117.945 36.912C118.478 36.912 118.889 36.8 119.177 36.576C119.476 36.3413 119.625 36.0427 119.625 35.68C119.625 35.36 119.502 35.0987 119.257 34.896C119.022 34.6933 118.702 34.592 118.297 34.592H117.129V33.328H117.993C118.398 33.328 118.713 33.232 118.937 33.04C119.161 32.8373 119.273 32.5653 119.273 32.224C119.273 31.8827 119.14 31.6053 118.873 31.392C118.617 31.1787 118.26 31.072 117.801 31.072C116.905 31.072 116.297 31.4507 115.977 32.208L114.841 31.552C115.406 30.3787 116.393 29.792 117.801 29.792C118.676 29.792 119.364 30.016 119.865 30.464C120.377 30.912 120.633 31.4613 120.633 32.112C120.633 32.9227 120.313 33.52 119.673 33.904ZM129.277 38H127.549L123.901 34.208V38H122.509V30H123.901V33.536L127.357 30H129.149L125.325 33.872L129.277 38ZM136.589 36.992C135.768 37.8027 134.771 38.208 133.597 38.208C132.424 38.208 131.427 37.8027 130.605 36.992C129.795 36.1813 129.389 35.184 129.389 34C129.389 32.816 129.795 31.8187 130.605 31.008C131.427 30.1973 132.424 29.792 133.597 29.792C134.771 29.792 135.768 30.1973 136.589 31.008C137.411 31.8187 137.821 32.816 137.821 34C137.821 35.184 137.411 36.1813 136.589 36.992ZM133.597 36.848C134.397 36.848 135.069 36.576 135.613 36.032C136.157 35.488 136.429 34.8107 136.429 34C136.429 33.1893 136.157 32.512 135.613 31.968C135.069 31.424 134.397 31.152 133.597 31.152C132.808 31.152 132.141 31.424 131.597 31.968C131.053 32.512 130.781 33.1893 130.781 34C130.781 34.8107 131.053 35.488 131.597 36.032C132.141 36.576 132.808 36.848 133.597 36.848ZM143.47 33.904C144.355 34.2667 144.798 34.9013 144.798 35.808C144.798 36.48 144.531 37.0507 143.998 37.52C143.464 37.9787 142.707 38.208 141.726 38.208C140.126 38.208 139.054 37.568 138.51 36.288L139.678 35.6C139.987 36.4747 140.675 36.912 141.742 36.912C142.275 36.912 142.686 36.8 142.974 36.576C143.272 36.3413 143.422 36.0427 143.422 35.68C143.422 35.36 143.299 35.0987 143.054 34.896C142.819 34.6933 142.499 34.592 142.094 34.592H140.926V33.328H141.79C142.195 33.328 142.51 33.232 142.734 33.04C142.958 32.8373 143.07 32.5653 143.07 32.224C143.07 31.8827 142.936 31.6053 142.67 31.392C142.414 31.1787 142.056 31.072 141.598 31.072C140.702 31.072 140.094 31.4507 139.774 32.208L138.638 31.552C139.203 30.3787 140.19 29.792 141.598 29.792C142.472 29.792 143.16 30.016 143.662 30.464C144.174 30.912 144.43 31.4613 144.43 32.112C144.43 32.9227 144.11 33.52 143.47 33.904ZM152.93 30H154.322V38H152.93V36.624C152.237 37.68 151.229 38.208 149.906 38.208C148.786 38.208 147.831 37.8027 147.042 36.992C146.253 36.1707 145.858 35.1733 145.858 34C145.858 32.8267 146.253 31.8347 147.042 31.024C147.831 30.2027 148.786 29.792 149.906 29.792C151.229 29.792 152.237 30.32 152.93 31.376V30ZM150.082 36.864C150.893 36.864 151.57 36.592 152.114 36.048C152.658 35.4933 152.93 34.8107 152.93 34C152.93 33.1893 152.658 32.512 152.114 31.968C151.57 31.4133 150.893 31.136 150.082 31.136C149.282 31.136 148.61 31.4133 148.066 31.968C147.522 32.512 147.25 33.1893 147.25 34C147.25 34.8107 147.522 35.4933 148.066 36.048C148.61 36.592 149.282 36.864 150.082 36.864ZM158.511 36.352L157.471 40.24H156.271L156.911 36.352H158.511ZM171.422 38H169.79L167.55 34.976L165.294 38H163.662L166.734 33.888L163.838 30H165.486L167.55 32.784L169.614 30H171.246L168.366 33.872L171.422 38ZM179.384 30V38H177.992V31.344H174.84V34.608C174.84 35.92 174.574 36.8373 174.04 37.36C173.518 37.872 172.776 38.0853 171.816 38V36.688C172.36 36.7627 172.766 36.6453 173.032 36.336C173.31 36.016 173.448 35.4293 173.448 34.576V30H179.384ZM188.246 36.992C187.424 37.8027 186.427 38.208 185.254 38.208C184.08 38.208 183.083 37.8027 182.262 36.992C181.451 36.1813 181.046 35.184 181.046 34C181.046 32.816 181.451 31.8187 182.262 31.008C183.083 30.1973 184.08 29.792 185.254 29.792C186.427 29.792 187.424 30.1973 188.246 31.008C189.067 31.8187 189.477 32.816 189.477 34C189.477 35.184 189.067 36.1813 188.246 36.992ZM185.254 36.848C186.054 36.848 186.726 36.576 187.27 36.032C187.814 35.488 188.086 34.8107 188.086 34C188.086 33.1893 187.814 32.512 187.27 31.968C186.726 31.424 186.054 31.152 185.254 31.152C184.464 31.152 183.798 31.424 183.254 31.968C182.71 32.512 182.438 33.1893 182.438 34C182.438 34.8107 182.71 35.488 183.254 36.032C183.798 36.576 184.464 36.848 185.254 36.848ZM198.047 30V38H196.655V31.328H192.511V38H191.118V30H198.047ZM206.917 36.992C206.096 37.8027 205.099 38.208 203.925 38.208C202.752 38.208 201.755 37.8027 200.933 36.992C200.123 36.1813 199.717 35.184 199.717 34C199.717 32.816 200.123 31.8187 200.933 31.008C201.755 30.1973 202.752 29.792 203.925 29.792C205.099 29.792 206.096 30.1973 206.917 31.008C207.739 31.8187 208.149 32.816 208.149 34C208.149 35.184 207.739 36.1813 206.917 36.992ZM203.925 36.848C204.725 36.848 205.397 36.576 205.941 36.032C206.485 35.488 206.757 34.8107 206.757 34C206.757 33.1893 206.485 32.512 205.941 31.968C205.397 31.424 204.725 31.152 203.925 31.152C203.136 31.152 202.469 31.424 201.925 31.968C201.381 32.512 201.109 33.1893 201.109 34C201.109 34.8107 201.381 35.488 201.925 36.032C202.469 36.576 203.136 36.848 203.925 36.848ZM216.558 38H214.83L211.182 34.208V38H209.79V30H211.182V33.536L214.638 30H216.43L212.606 33.872L216.558 38ZM219.933 36.352L218.893 40.24H217.693L218.333 36.352H219.933ZM232.572 30V38H231.18V31.344H228.028V34.608C228.028 35.92 227.761 36.8373 227.228 37.36C226.705 37.872 225.964 38.0853 225.004 38V36.688C225.548 36.7627 225.953 36.6453 226.22 36.336C226.497 36.016 226.636 35.4293 226.636 34.576V30H232.572ZM237.401 28.688C237.241 28.848 237.044 28.928 236.809 28.928C236.574 28.928 236.372 28.848 236.201 28.688C236.041 28.5173 235.961 28.3147 235.961 28.08C235.961 27.8453 236.041 27.648 236.201 27.488C236.372 27.328 236.574 27.248 236.809 27.248C237.044 27.248 237.241 27.328 237.401 27.488C237.561 27.648 237.641 27.8453 237.641 28.08C237.641 28.3147 237.561 28.5173 237.401 28.688ZM240.441 28.688C240.281 28.848 240.084 28.928 239.849 28.928C239.614 28.928 239.412 28.848 239.241 28.688C239.081 28.5173 239.001 28.3147 239.001 28.08C239.001 27.8453 239.081 27.648 239.241 27.488C239.412 27.328 239.614 27.248 239.849 27.248C240.084 27.248 240.281 27.328 240.441 27.488C240.601 27.648 240.681 27.8453 240.681 28.08C240.681 28.3147 240.601 28.5173 240.441 28.688ZM235.657 34.64C235.796 35.3547 236.121 35.9093 236.633 36.304C237.156 36.6987 237.796 36.896 238.553 36.896C239.609 36.896 240.377 36.5067 240.857 35.728L242.041 36.4C241.262 37.6053 240.089 38.208 238.521 38.208C237.252 38.208 236.217 37.8133 235.417 37.024C234.628 36.224 234.233 35.216 234.233 34C234.233 32.7947 234.622 31.792 235.401 30.992C236.18 30.192 237.188 29.792 238.425 29.792C239.598 29.792 240.553 30.208 241.289 31.04C242.036 31.8613 242.409 32.8533 242.409 34.016C242.409 34.2187 242.393 34.4267 242.361 34.64H235.657ZM238.425 31.104C237.678 31.104 237.06 31.3173 236.569 31.744C236.078 32.16 235.774 32.72 235.657 33.424H241.001C240.884 32.6667 240.585 32.0907 240.105 31.696C239.625 31.3013 239.065 31.104 238.425 31.104ZM249.545 30H250.937V38H249.545V34.656H245.401V38H244.009V30H245.401V33.328H249.545V30Z" fill="#4E5B67"/>
<path fill-rule="evenodd" clip-rule="evenodd" d="M303.945 10.0002C296.835 10.0002 290.802 14.6731 288.779 21.096C288.556 20.9441 288.313 20.8201 288.055 20.7285V17.8811C288.055 15.3738 289.448 13.1196 291.69 11.9983C292.211 11.7378 292.423 11.1043 292.162 10.5833C291.902 10.0623 291.268 9.85108 290.747 10.1116C289.212 10.8789 287.882 12.1111 287 13.7351C286.118 12.1118 284.788 10.8792 283.253 10.1116C282.732 9.85108 282.098 10.0623 281.838 10.5833C281.577 11.1043 281.789 11.7378 282.31 11.9983C284.552 13.1196 285.945 15.3738 285.945 17.8811V20.7285C285.814 20.7754 285.686 20.8303 285.563 20.8931C285.445 20.9536 285.331 21.0215 285.221 21.096C283.198 14.6731 277.164 10.0002 270.055 10.0002C269.472 10.0002 269 10.4724 269 11.0549C269 15.0657 270.536 18.8831 273.338 21.8645C273.322 21.999 273.309 22.134 273.301 22.2695C273.293 22.3984 273.289 22.5273 273.289 22.6565C273.289 24.8552 274.416 26.7954 276.123 27.9299C274.416 29.0647 273.289 31.0046 273.289 33.2034C273.289 36.6929 276.128 39.5315 279.617 39.5315C282.027 39.5315 284.127 38.177 285.195 36.1897C285.636 36.9287 286.222 37.4221 287 37.4221C287.778 37.4221 288.364 36.9287 288.805 36.1897C289.873 38.177 291.973 39.5315 294.383 39.5315C297.872 39.5315 300.711 36.6929 300.711 33.2034C300.711 31.0046 299.584 29.0647 297.877 27.9299C299.584 26.7954 300.711 24.8552 300.711 22.6565C300.711 22.523 300.707 22.3897 300.698 22.2566C300.69 22.1255 300.678 21.9946 300.662 21.8645C303.464 18.8831 305 15.0659 305 11.0549C305 10.4724 304.528 10.0002 303.945 10.0002ZM275.398 22.6565C275.398 22.3477 275.432 22.0398 275.498 21.7415C275.575 21.3892 275.468 21.0215 275.212 20.7669C272.835 18.3977 271.417 15.3728 271.154 12.1528C278.241 12.7122 283.836 18.6287 283.836 25.8206V26.8752H279.617C277.291 26.8752 275.398 24.9827 275.398 22.6565ZM283.836 33.2034C283.836 35.5295 281.943 37.4221 279.617 37.4221C277.291 37.4221 275.398 35.5295 275.398 33.2034C275.398 30.8772 277.291 28.9846 279.617 28.9846H283.836V33.2034ZM287 35.1231C286.234 33.8413 286.042 31.096 285.974 30.1277L285.974 30.1248C285.961 29.937 285.952 29.8162 285.945 29.7874V23.7112C285.945 23.1296 286.418 22.6565 287 22.6565C287.582 22.6565 288.055 23.1296 288.055 23.7112V29.7874C288.044 29.8298 288.033 29.9832 288.016 30.2148C287.941 31.2534 287.751 33.8667 287 35.1231ZM298.602 33.2034C298.602 35.5295 296.709 37.4221 294.383 37.4221C292.057 37.4221 290.164 35.5295 290.164 33.2034V28.9846H294.383C296.709 28.9846 298.602 30.8772 298.602 33.2034ZM298.788 20.7669C298.532 21.0215 298.424 21.3892 298.502 21.7415C298.568 22.0398 298.602 22.3477 298.602 22.6567C298.602 24.9829 296.709 26.8755 294.383 26.8755H290.164V25.8208C290.164 18.6287 295.759 12.7122 302.846 12.1531C302.583 15.3728 301.165 18.3977 298.788 20.7669ZM280.672 33.2031C281.254 33.2031 281.727 32.731 281.727 32.1484C281.727 31.5659 281.254 31.0938 280.672 31.0938C280.089 31.0938 279.617 31.5659 279.617 32.1484C279.617 32.731 280.089 33.2031 280.672 33.2031ZM294.383 32.1484C294.383 32.731 293.911 33.2031 293.328 33.2031C292.746 33.2031 292.273 32.731 292.273 32.1484C292.273 31.5659 292.746 31.0938 293.328 31.0938C293.911 31.0938 294.383 31.5659 294.383 32.1484Z" fill="url(#paint0_linear_45_249)"/>
<defs>
<linearGradient id="paint0_linear_45_249" x1="268.702" y1="10" x2="309.19" y2="17.8107" gradientUnits="userSpaceOnUse">
<stop stop-color="#67ADD7"/>
<stop offset="1" stop-color="#67ADD7"/>
</linearGradient>
</defs>
</svg>
