<svg width="50" height="50" viewBox="0 0 50 50" fill="none" xmlns="http://www.w3.org/2000/svg">
<path d="M43.4544 29.7676C43.4496 29.7563 43.4445 29.7451 43.4394 29.734C42.1968 27.0893 40.1711 26.0187 39.352 25.6797C38.5036 25.321 37.867 25.1887 37.5938 25.1321C37.5883 25.13 37.5823 25.1285 37.5767 25.1265C37.5598 25.1204 37.5426 25.115 37.5252 25.1096C37.5161 25.1069 37.5075 25.1034 37.4984 25.1008C37.4919 25.0991 37.4856 25.0982 37.4792 25.0965C37.4567 25.0906 37.4339 25.0855 37.4108 25.081C37.3959 25.078 37.3811 25.0753 37.3662 25.0729C37.3559 25.0713 37.3462 25.0687 37.3359 25.0675C37.3221 25.0657 37.3087 25.0654 37.295 25.064C37.2831 25.0629 37.2713 25.0618 37.2595 25.0611C37.2325 25.0594 37.2056 25.0588 37.1789 25.0591C37.1707 25.0591 37.1624 25.059 37.1543 25.0593C37.1439 25.0596 37.1334 25.059 37.123 25.0596C37.1199 25.0593 37.1167 25.059 37.1133 25.0586C36.8159 25.0305 36.1986 24.9719 35.3445 25.0576C34.0898 25.1585 32.2721 25.7955 30.916 27.2841C30.9078 27.2931 30.8997 27.3022 30.8919 27.3115C30.267 28.0445 29.7953 28.9361 29.5255 29.8933C29.4537 30.0949 29.4461 30.272 29.4438 30.3739C29.4437 30.3743 29.4437 30.3747 29.4436 30.3751C29.3618 30.6054 29.3554 30.8134 29.3755 30.9773C29.374 30.9914 29.3719 31.0055 29.3701 31.0195C29.3537 31.1506 29.3287 31.3502 29.3641 31.5913C29.3564 32.0313 29.4639 32.4226 29.5523 32.7444C29.5773 32.8358 29.601 32.9221 29.619 32.9986C29.6405 33.0899 29.676 33.1825 29.7203 33.2657C29.7243 33.2846 29.7287 33.3036 29.7337 33.3222C29.7875 33.5254 29.879 33.6751 29.9395 33.7664C29.9804 33.9084 30.0501 34.0409 30.1446 34.1562L30.2043 34.2289C30.2385 34.2986 30.2945 34.4053 30.3831 34.5188C30.6601 34.8836 30.9712 35.1655 31.246 35.4146L31.3559 35.5144C31.3886 35.5444 31.4232 35.5725 31.4596 35.5984C31.8165 35.8541 32.1755 36.0202 32.4922 36.1668C32.5452 36.1912 32.5976 36.2154 32.649 36.2398C32.6933 36.2607 32.7389 36.2787 32.7854 36.2937C33.1179 36.401 33.4367 36.4468 33.6929 36.4837C33.7979 36.4987 33.8971 36.5129 33.9795 36.5288C34.0436 36.5412 34.1085 36.5481 34.1738 36.5493C34.2042 36.55 34.2345 36.5503 34.2647 36.5503C36.2442 36.5503 37.6641 35.2523 38.002 34.0101C38.1616 33.4233 37.8051 32.8208 37.2057 32.6646C36.6064 32.5084 35.9911 32.8574 35.8315 33.4443C35.7456 33.7605 35.2113 34.3356 34.3013 34.3508C34.2049 34.3344 34.1109 34.321 34.0191 34.3078C33.8472 34.2831 33.6837 34.2596 33.5467 34.2223C33.5153 34.2077 33.4838 34.1931 33.4519 34.1783C33.2248 34.0733 33.0093 33.9736 32.8331 33.8561C32.8128 33.8377 32.7924 33.8192 32.772 33.8006C32.5611 33.6095 32.3612 33.4283 32.2107 33.2386C32.1752 33.166 32.1166 33.052 32.0194 32.9296C32.0194 32.9295 32.0194 32.9295 32.0193 32.9294C31.975 32.8124 31.9208 32.7184 31.8776 32.6507C31.8507 32.5599 31.8173 32.4702 31.7777 32.3822C31.7593 32.3107 31.7402 32.2412 31.7215 32.1732C31.6646 31.9659 31.6001 31.7311 31.6112 31.6061C31.62 31.5071 31.6151 31.4077 31.5966 31.3104C31.5977 31.3028 31.5987 31.2951 31.5997 31.2874C31.6115 31.1933 31.6276 31.0644 31.6231 30.9093C31.6332 30.8691 31.6422 30.8281 31.6504 30.7858C31.6778 30.6674 31.6852 30.5634 31.6878 30.489C31.8707 29.8342 32.1872 29.2286 32.6047 28.7345C33.5232 27.7345 34.7563 27.3091 35.5359 27.2487C35.5451 27.248 35.5543 27.2472 35.5634 27.2463C36.2001 27.1815 36.6535 27.2245 36.897 27.2476C36.9389 27.2516 36.9756 27.255 37.0106 27.2577C37.0524 27.2676 37.0919 27.276 37.1275 27.2834C37.3693 27.3335 37.8194 27.4268 38.465 27.7001C38.4681 27.7014 38.4712 27.7027 38.4743 27.704C39.0468 27.9404 40.4744 28.6984 41.3908 30.6361C41.782 31.5554 41.9626 32.6072 41.9132 33.6792C41.9124 33.6968 41.912 33.7143 41.9121 33.7318C41.9093 33.7446 41.9062 33.7575 41.9032 33.7702C41.8848 33.8514 41.858 33.9701 41.8457 34.1108C41.8336 34.206 41.8243 34.3029 41.8175 34.4063C41.8174 34.408 41.8174 34.4098 41.8172 34.4116C41.7532 34.5973 41.717 34.7703 41.6848 34.9245C41.6623 35.032 41.6315 35.1791 41.6065 35.2254C41.5655 35.3006 41.5338 35.3803 41.5117 35.4629C41.3792 35.9581 41.0577 36.4686 40.7175 37.0089L40.6694 37.0856C40.541 37.2399 40.423 37.3993 40.3106 37.5696C40.2934 37.588 40.2582 37.6217 40.2314 37.6473C40.1546 37.7209 40.0602 37.8112 39.9636 37.9286C39.9163 37.9826 39.8695 38.0378 39.8239 38.0937L39.6928 38.1998C39.5669 38.2976 39.4649 38.3973 39.3824 38.478C39.3358 38.5236 39.2829 38.5753 39.2569 38.5949C39.2518 38.5987 39.2468 38.6025 39.2418 38.6063C38.7404 38.9954 38.1191 39.3544 37.2883 39.7352C36.6652 39.9758 35.9367 40.1492 35.0017 40.2794C34.1803 40.3433 33.3138 40.251 32.5641 40.1478C31.7778 39.9366 30.9507 39.685 30.1936 39.2918C29.3149 38.7702 28.6524 38.2801 28.1128 37.7527C27.4093 36.9865 26.9076 36.3129 26.5352 35.6347C26.5316 35.628 26.5278 35.6213 26.524 35.6147C26.4929 35.5608 26.4569 35.4754 26.4188 35.3849C26.369 35.2666 26.3127 35.1329 26.2361 34.9895L26.1157 34.753L26.0385 34.5029C25.9939 34.3496 25.9406 34.2178 25.8935 34.1012C25.8631 34.0258 25.8289 33.941 25.8169 33.8946C25.7701 33.6529 25.7125 33.41 25.6456 33.1715C25.4939 32.2486 25.3799 31.4209 25.4797 30.6626C25.4878 30.6008 25.4907 30.5385 25.4879 30.4763C25.4804 30.3006 25.5207 30.0918 25.5672 29.85C25.6042 29.6579 25.6462 29.4402 25.6689 29.2062C25.67 29.195 25.6709 29.1837 25.6717 29.1724C25.679 29.1458 25.6979 29.0928 25.712 29.0528C25.7463 28.9564 25.7877 28.8398 25.8205 28.7019C25.827 28.6809 25.8327 28.6606 25.8385 28.6402C25.8423 28.6394 25.847 28.6381 25.8503 28.6374C25.8954 28.6284 25.9396 28.6166 25.9832 28.6022C26.0049 28.5953 26.0707 28.583 26.1188 28.574C26.2984 28.5404 26.5417 28.4949 26.8068 28.3659C26.9277 28.3132 27.0691 28.2647 27.2183 28.2134C27.5144 28.1118 27.847 27.9976 28.1862 27.8007C29.1627 27.3862 29.9679 26.7741 30.8415 26.0771C30.8751 26.0502 30.9072 26.0215 30.9374 25.991C31.0872 25.8401 31.2447 25.6952 31.4058 25.5604C31.4141 25.5534 31.4223 25.5464 31.4304 25.5392C31.6013 25.3874 31.7297 25.2289 31.8328 25.1015C31.8851 25.0368 31.9347 24.9756 31.9707 24.9396C31.9755 24.9347 31.9804 24.9297 31.9851 24.9248L32.2402 24.6592C32.2841 24.6135 32.3239 24.5642 32.3592 24.512L32.567 24.2039C32.5718 24.1968 32.5765 24.1897 32.5812 24.1825C32.6155 24.1289 32.6689 24.0608 32.7257 23.9887C32.8184 23.8708 32.9232 23.7373 33.0234 23.5732C33.5353 22.7616 33.953 21.842 34.3379 20.68C34.3435 20.663 34.3487 20.6457 34.3536 20.6284C34.606 19.7162 34.735 18.7247 34.7595 17.5083C34.7599 17.4893 34.7598 17.4704 34.7592 17.4513C34.7233 16.3551 34.4763 15.3084 34.2395 14.4291C34.2277 14.3851 34.2131 14.3419 34.1957 14.2997C33.8573 13.4746 33.428 12.5138 32.8098 11.6433C32.798 11.6267 32.7857 11.6104 32.773 11.5944C32.0594 10.6993 31.4081 10.0369 30.7234 9.50943C30.707 9.49682 30.6903 9.48458 30.6732 9.47292C29.7643 8.84974 28.9839 8.42075 28.218 8.12313C28.0547 8.05737 27.9037 8.01757 27.7819 7.98553C27.7241 7.97028 27.6522 7.95137 27.6235 7.94001C27.6138 7.9362 27.6042 7.93261 27.5944 7.92901L27.3083 7.82455C27.2282 7.7953 27.1448 7.77507 27.0601 7.76437C26.9808 7.75432 26.9014 7.74179 26.8239 7.7272C26.8055 7.72375 26.7874 7.72075 26.7688 7.71818C26.7483 7.7151 26.6892 7.69883 26.646 7.68703C26.5141 7.65081 26.3335 7.60119 26.1166 7.58389C26.1022 7.58271 26.0875 7.58191 26.0729 7.58125C25.9197 7.57487 25.7748 7.55962 25.63 7.53448C25.5755 7.52502 25.5201 7.5196 25.4647 7.51806L25.2958 7.51344C24.5482 7.4924 23.7763 7.47063 22.9886 7.6613C22.6752 7.69091 22.4122 7.77676 22.1953 7.8475C22.1057 7.87675 22.0131 7.90695 21.9518 7.92022C21.7519 7.94822 21.5571 8.01434 21.3594 8.12144C21.3077 8.14585 21.2611 8.16631 21.218 8.18375C21.197 8.19218 21.1762 8.20127 21.1556 8.21095C21.1372 8.21755 21.1181 8.22283 21.0995 8.22854C20.9796 8.26556 20.8044 8.31959 20.6143 8.43182C19.359 9.07633 18.2687 9.96774 17.4588 11.0121C17.4513 11.0217 17.4439 11.0316 17.4368 11.0415C15.7182 13.4182 15.7849 15.6711 15.8946 16.5349C16.0013 17.4327 16.2025 18.0386 16.289 18.2985C16.29 18.3048 16.2917 18.311 16.2929 18.3174C16.2953 18.3312 16.2983 18.3451 16.3013 18.3589C16.3032 18.3678 16.3045 18.3767 16.3067 18.3855C16.3085 18.3932 16.3115 18.4006 16.3135 18.4083C16.3192 18.4297 16.3256 18.4509 16.3328 18.4721C16.3377 18.4871 16.3431 18.5017 16.3487 18.5164C16.3529 18.5271 16.3558 18.5379 16.3603 18.5485C16.3645 18.5587 16.3698 18.5681 16.3744 18.5779C16.3797 18.5897 16.3853 18.6013 16.3912 18.613C16.4023 18.6353 16.4141 18.657 16.4265 18.6782C16.4313 18.6865 16.4363 18.6947 16.4413 18.7028C16.4478 18.7133 16.4536 18.7244 16.4604 18.7345C16.4618 18.7374 16.4631 18.7403 16.4645 18.7433C16.5883 19.0095 16.8453 19.5621 17.3482 20.2436C18.0644 21.2569 19.5365 22.4796 21.5318 22.8855C21.5439 22.8879 21.5559 22.8901 21.568 22.8923C21.945 22.9564 22.3317 22.9882 22.7218 22.9882C23.326 22.9882 23.9382 22.9117 24.5345 22.7599C24.7485 22.72 24.9091 22.638 25.0001 22.5891C25.0005 22.589 25.001 22.5889 25.0014 22.5887C25.2463 22.5427 25.4338 22.4438 25.5687 22.345C25.582 22.3392 25.5955 22.334 25.6088 22.3284C25.733 22.2769 25.922 22.1983 26.1174 22.048C26.5118 21.8336 26.8052 21.5455 27.0465 21.3086C27.1138 21.2424 27.1776 21.1798 27.2357 21.1267C27.3051 21.0633 27.3659 20.9914 27.4168 20.9129C27.4177 20.9117 27.4185 20.9106 27.419 20.9097C27.4342 20.8965 27.4491 20.8829 27.4636 20.8689C27.6161 20.722 27.7027 20.5697 27.7533 20.4728C27.8584 20.3672 27.9409 20.2418 27.9957 20.1041L28.0304 20.0167C28.075 19.9527 28.1413 19.8519 28.1974 19.7197C28.3818 19.3019 28.4757 18.8964 28.5585 18.5382L28.5915 18.3969C28.6016 18.3543 28.609 18.3111 28.6139 18.2677C28.6616 17.8379 28.6291 17.4512 28.6005 17.1101C28.5956 17.0524 28.5909 16.9953 28.5866 16.939C28.583 16.8909 28.5761 16.8429 28.566 16.7956C28.4947 16.4601 28.3758 16.1669 28.2803 15.9313C28.2411 15.8348 28.2041 15.7434 28.1769 15.6656C28.1558 15.6051 28.1294 15.5465 28.0979 15.4905C27.1204 13.7517 25.2252 13.1742 23.9379 13.5137C23.339 13.6717 22.9844 14.2752 23.1456 14.8615C23.3069 15.4479 23.9232 15.7952 24.5221 15.6373C24.845 15.5522 25.6211 15.7177 26.0893 16.4816C26.1232 16.5718 26.1583 16.6584 26.1926 16.7429C26.2566 16.9009 26.3176 17.0511 26.3532 17.1861C26.3559 17.2205 26.3588 17.2551 26.3618 17.29C26.3823 17.5347 26.4018 17.767 26.3859 17.9746L26.3679 18.0521C26.3041 18.3275 26.2438 18.5884 26.1508 18.8114C26.1046 18.8774 26.0335 18.9836 25.974 19.1264C25.9736 19.1268 25.9733 19.1273 25.973 19.1278C25.8917 19.2239 25.8358 19.3167 25.7974 19.3873C25.7309 19.4552 25.6683 19.5282 25.6103 19.6056C25.557 19.6564 25.5057 19.7067 25.4556 19.7559C25.3 19.9088 25.1236 20.0819 25.0065 20.1356C24.915 20.1774 24.83 20.2311 24.7534 20.2949C24.7461 20.2979 24.7388 20.3009 24.7316 20.3039C24.6423 20.341 24.5198 20.3918 24.3844 20.4734C24.3433 20.4852 24.3019 20.4983 24.2599 20.5127C24.1425 20.5485 24.0475 20.5938 23.9808 20.6285C23.3103 20.8011 22.6163 20.8357 21.9704 20.7286C20.6262 20.4495 19.6335 19.6168 19.1907 18.9861C19.1854 18.9786 19.18 18.9711 19.1746 18.9637C18.7987 18.4559 18.61 18.05 18.5086 17.832C18.4912 17.7944 18.4757 17.7614 18.4605 17.7302C18.4483 17.6893 18.436 17.6517 18.425 17.6188C18.3485 17.3886 18.2059 16.9603 18.125 16.2767C18.1246 16.2733 18.1241 16.2698 18.1237 16.2664C18.0464 15.6631 18.0029 14.0739 19.2589 12.3275C19.8763 11.5361 20.7162 10.8572 21.6891 10.3632C21.7052 10.3551 21.721 10.3465 21.7366 10.3376C21.7491 10.3337 21.7616 10.3301 21.7742 10.3262C21.8554 10.3011 21.9738 10.2646 22.1045 10.2045C22.192 10.1685 22.2819 10.1281 22.3784 10.0816C22.3806 10.0804 22.383 10.0793 22.3853 10.0782C22.5817 10.0395 22.7526 9.98372 22.9051 9.93387C23.0115 9.8992 23.1571 9.8517 23.2109 9.84986C23.2976 9.84679 23.3837 9.83396 23.4674 9.81152C23.9717 9.67635 24.5833 9.69357 25.231 9.71183L25.3244 9.71439C25.5245 9.74592 25.7242 9.76637 25.9314 9.77656C25.9563 9.78184 26.0037 9.79488 26.0395 9.80478C26.143 9.83322 26.2704 9.86812 26.4227 9.89136C26.4938 9.90448 26.5657 9.9165 26.638 9.92713L26.7974 9.98533C26.9467 10.0432 27.0859 10.0798 27.1984 10.1095C27.2622 10.1262 27.3343 10.1452 27.3647 10.1577C27.3709 10.1602 27.3772 10.1626 27.3834 10.1651C27.9773 10.3953 28.6055 10.7424 29.3583 11.2566C29.8829 11.6645 30.4004 12.1955 30.9827 12.9233C31.4497 13.5878 31.8016 14.3688 32.0852 15.0562C32.2913 15.8274 32.482 16.6535 32.5131 17.4943C32.4912 18.5006 32.3891 19.3074 32.1925 20.0281C31.8661 21.0089 31.5212 21.7708 31.1081 22.4244C31.1042 22.4305 31.1004 22.4367 31.0967 22.4428C31.0641 22.4968 31.0064 22.5702 30.9453 22.648C30.8655 22.7496 30.7754 22.8643 30.6867 23.0011L30.5383 23.2212L30.3554 23.4116C30.2422 23.5261 30.1523 23.6371 30.0727 23.7355C30.0213 23.799 29.9635 23.8704 29.9282 23.9042C29.7381 24.0643 29.5519 24.2345 29.374 24.4112C28.6333 25.0011 27.9581 25.5115 27.238 25.8058C27.1791 25.8299 27.1225 25.8588 27.0687 25.8923C26.9172 25.9864 26.7123 26.0568 26.4751 26.1382C26.2867 26.2029 26.0733 26.2762 25.8551 26.3737C25.8447 26.3784 25.8345 26.3832 25.8241 26.3882C25.7969 26.3953 25.7402 26.4058 25.6976 26.4138C25.5955 26.433 25.4716 26.4561 25.3336 26.4971C25.3116 26.502 25.2907 26.5075 25.2696 26.5128C25.2673 26.5104 25.2642 26.5074 25.2621 26.5052C25.2314 26.4713 25.1988 26.4395 25.1641 26.4095C25.1471 26.3946 25.1033 26.3449 25.0715 26.3086C24.9518 26.173 24.7899 25.9894 24.5431 25.8289C24.4358 25.7525 24.322 25.6569 24.2019 25.5559C23.9641 25.3558 23.697 25.1311 23.3533 24.9421C22.4979 24.3205 21.554 23.9439 20.501 23.552C20.4602 23.5368 20.4186 23.5239 20.3763 23.5135C20.1708 23.4629 19.9636 23.4017 19.7604 23.3317C19.7509 23.3284 19.7413 23.3253 19.7318 23.3223C19.5118 23.253 19.3073 23.2233 19.143 23.1995C19.0596 23.1874 18.9809 23.176 18.9309 23.1635C18.9237 23.1617 18.9165 23.16 18.9093 23.1583L18.547 23.0751C18.4853 23.061 18.4225 23.0519 18.3592 23.0481L17.9828 23.0255C17.9738 23.025 17.9648 23.0246 17.9558 23.0242C17.8914 23.0219 17.8047 23.0106 17.7129 22.9986C17.5618 22.9789 17.391 22.9568 17.1952 22.9541C16.2204 22.9258 15.1984 23.0314 13.9792 23.286C13.9612 23.2897 13.9433 23.2939 13.9255 23.2985C12.9914 23.5412 12.05 23.9274 10.9631 24.5143C10.9462 24.5234 10.9298 24.5329 10.9134 24.5428C9.96333 25.1199 9.16012 25.8535 8.49968 26.495C8.46674 26.527 8.43575 26.561 8.40714 26.5968C7.84636 27.2964 7.21094 28.141 6.75048 29.1C6.74172 29.1183 6.73349 29.1368 6.7257 29.1556C6.29108 30.2074 6.03083 31.0909 5.90647 31.9364C5.90347 31.9565 5.90108 31.9769 5.89921 31.9972C5.80247 33.0783 5.81311 33.9543 5.93267 34.753C5.95611 34.9255 5.99669 35.0743 6.02956 35.1943C6.0449 35.2507 6.06407 35.3208 6.06834 35.3505C6.06976 35.3599 6.07118 35.3695 6.07283 35.3789L6.12337 35.6738C6.13774 35.7576 6.162 35.8394 6.19554 35.9177C6.22467 35.9856 6.2529 36.0581 6.27932 36.1331C6.28561 36.1511 6.29228 36.1684 6.29946 36.186C6.30703 36.205 6.32208 36.2627 6.33308 36.3049C6.36707 36.4352 6.41364 36.6136 6.50738 36.8069C6.51337 36.8193 6.51966 36.8316 6.52617 36.8437C6.597 36.9767 6.6557 37.1069 6.70571 37.242C6.72473 37.2934 6.74764 37.3433 6.77422 37.3913L6.85485 37.5374C7.21004 38.1817 7.57683 38.8468 8.13881 39.4189C8.32172 39.6699 8.52918 39.8502 8.70026 39.9987C8.77102 40.0602 8.84394 40.1236 8.88639 40.1689C9.01105 40.3243 9.16716 40.4565 9.36092 40.5708C9.40614 40.6008 9.44837 40.6305 9.48962 40.6615C9.50639 40.6741 9.52346 40.6862 9.54091 40.6978C9.55611 40.7104 9.57041 40.7238 9.58493 40.7369C9.6777 40.8202 9.81321 40.9417 10.0076 41.0468C11.2062 41.7895 12.5399 42.2683 13.8679 42.4322C13.8801 42.4338 13.8923 42.4351 13.9046 42.4362C14.2003 42.4631 14.4862 42.4754 14.7617 42.4754C17.2444 42.4754 18.8965 41.4696 19.5348 40.9972C20.2755 40.4578 20.7106 39.9843 20.8973 39.7808C20.9196 39.7632 20.9412 39.7446 20.9624 39.7251C20.9664 39.7213 20.9699 39.7172 20.9738 39.7134C20.9885 39.6995 21.0026 39.6846 21.0166 39.6696C21.0309 39.6544 21.045 39.6391 21.0583 39.6233C21.0648 39.6155 21.0722 39.6088 21.0785 39.6007C21.0862 39.5913 21.0924 39.5812 21.0995 39.5716C21.107 39.5616 21.1142 39.5516 21.1212 39.5414C21.136 39.5201 21.15 39.4985 21.1631 39.4765C21.1676 39.4689 21.1721 39.4612 21.1765 39.4535C21.1832 39.4415 21.1908 39.43 21.197 39.418C21.1988 39.4155 21.2007 39.4129 21.2027 39.4103C21.3764 39.1721 21.7369 38.6779 22.0882 37.9103C22.6264 36.7961 22.9716 34.9366 22.3331 33.042C22.3292 33.0305 22.3252 33.019 22.3209 33.0076C21.9848 32.1113 21.4323 31.2661 20.7211 30.5594C20.5787 30.3973 20.4256 30.3022 20.3366 30.2492C20.3363 30.2489 20.336 30.2486 20.3357 30.2484C20.1726 30.0638 19.9919 29.9544 19.837 29.8895C19.8253 29.8812 19.8139 29.8724 19.8025 29.8639C19.6946 29.7842 19.5304 29.663 19.2989 29.5723C18.9126 29.3454 18.5117 29.2408 18.1821 29.1547C18.0896 29.1305 18.0023 29.1076 17.9259 29.0849C17.8351 29.0578 17.7353 29.0416 17.6404 29.0376C17.6218 29.0315 17.6031 29.026 17.5843 29.0208C17.3775 28.9647 17.1993 28.9674 17.0883 28.9729C16.9424 28.9366 16.7904 28.9294 16.6414 28.9518L16.5459 28.9662C16.4671 28.9604 16.3448 28.9545 16.2001 28.973C15.741 29.0252 15.3378 29.1474 14.9818 29.2553C14.9323 29.2703 14.8831 29.2852 14.8343 29.2998C14.791 29.3127 14.7485 29.3281 14.7071 29.346C14.3025 29.521 13.9761 29.7423 13.6883 29.9375C13.6402 29.9701 13.5928 30.0023 13.5457 30.0336C13.505 30.0608 13.4661 30.0905 13.4295 30.1226C13.1683 30.3509 12.9684 30.5983 12.8077 30.7971C12.7419 30.8786 12.6797 30.9555 12.6245 31.0175C12.5816 31.0656 12.5429 31.1173 12.5092 31.1719C11.4601 32.87 11.8972 34.7659 12.841 35.6875C13.2802 36.1163 13.9911 36.1154 14.4293 35.6854C14.8673 35.2554 14.8663 34.5592 14.4271 34.1303C14.1904 33.8992 13.9487 33.1584 14.3902 32.3793C14.4529 32.3058 14.5118 32.2329 14.5693 32.1617C14.6771 32.0283 14.7798 31.9013 14.8816 31.8034C14.91 31.7843 14.9385 31.7649 14.9673 31.7454C15.1738 31.6054 15.3698 31.4724 15.5618 31.3817C15.5897 31.3732 15.6178 31.3648 15.6459 31.3562C15.9191 31.2734 16.1782 31.195 16.4198 31.1625C16.5017 31.1687 16.6313 31.1759 16.7878 31.1548C16.7884 31.1549 16.7892 31.155 16.7899 31.1551C16.9147 31.1757 17.0243 31.1767 17.1053 31.1741C17.1993 31.1967 17.2956 31.2133 17.3937 31.2238C17.4651 31.2436 17.535 31.2617 17.6034 31.2797C17.8162 31.3353 18.0574 31.3983 18.1637 31.471C18.2466 31.5276 18.3368 31.5732 18.4319 31.6061C18.438 31.6107 18.4441 31.6153 18.4503 31.6198C18.5277 31.677 18.6339 31.7554 18.7736 31.8293C18.8042 31.8579 18.8359 31.886 18.8693 31.9142C18.9598 31.9961 19.0475 32.0542 19.1117 32.0935C19.5997 32.5755 19.9773 33.1468 20.206 33.7484C20.6313 35.0274 20.391 36.2856 20.0545 36.9767C20.0506 36.9849 20.0467 36.9931 20.0428 37.0015C19.7817 37.5742 19.5171 37.9371 19.3749 38.132C19.3504 38.1655 19.329 38.1949 19.309 38.2233C19.2788 38.2543 19.2515 38.2837 19.2279 38.3095C19.0626 38.4895 18.7551 38.8246 18.191 39.2349C18.1883 39.2369 18.1856 39.239 18.1829 39.2409C17.6874 39.6083 16.3031 40.4399 14.1308 40.2479C13.1229 40.1205 12.1025 39.7478 11.1783 39.1694C11.1632 39.1599 11.1478 39.1508 11.1321 39.142C11.1222 39.1333 11.1126 39.1243 11.1027 39.1154C11.0398 39.059 10.948 38.9766 10.8292 38.8957C10.7499 38.8372 10.6669 38.7795 10.5817 38.7241C10.5806 38.7234 10.5795 38.7227 10.5784 38.722C10.446 38.5749 10.3112 38.4577 10.1909 38.3533C10.1071 38.2805 9.99215 38.1807 9.96363 38.136C9.91751 38.0639 9.863 37.9972 9.80116 37.9373C9.4298 37.5777 9.13915 37.0505 8.83144 36.4925L8.78681 36.4117C8.71471 36.2261 8.6328 36.0462 8.53809 35.8651C8.53046 35.8416 8.51833 35.7952 8.50919 35.76C8.48246 35.6579 8.44975 35.5324 8.39397 35.3914C8.36971 35.3235 8.34433 35.2565 8.31812 35.191L8.28997 35.0266C8.26654 34.8718 8.2294 34.736 8.19945 34.6262C8.18321 34.5668 8.16314 34.4931 8.15895 34.4616C8.15805 34.4545 8.15708 34.4475 8.15603 34.4405C8.06252 33.8212 8.0554 33.1149 8.13394 32.2202C8.2327 31.5704 8.44361 30.866 8.79595 30.009C9.14993 29.2812 9.66482 28.5924 10.1312 28.008C10.7111 27.4469 11.3473 26.8713 12.0736 26.4262C12.9736 25.942 13.7382 25.6251 14.4752 25.431C15.5051 25.2175 16.3518 25.129 17.1371 25.1525C17.1449 25.1527 17.1527 25.1528 17.1606 25.1529C17.224 25.1535 17.3177 25.1657 17.4168 25.1786C17.5463 25.1954 17.6926 25.2145 17.8576 25.2213L18.1271 25.2374L18.3872 25.2972C18.5447 25.3358 18.6876 25.3565 18.8141 25.3749C18.8963 25.3868 18.9887 25.4002 19.0358 25.4133C19.2751 25.4951 19.5189 25.5677 19.7618 25.6295C20.6533 25.9623 21.442 26.2793 22.0627 26.7433C22.1135 26.7812 22.1674 26.8148 22.224 26.8438C22.3831 26.9251 22.5476 27.0636 22.7383 27.2239C22.8896 27.3513 23.0613 27.4956 23.2567 27.6318C23.266 27.6384 23.2755 27.6447 23.2849 27.6509C23.3049 27.6705 23.3427 27.7134 23.3711 27.7457C23.439 27.8226 23.5212 27.9157 23.6261 28.0121C23.6416 28.0284 23.6568 28.0436 23.6722 28.059C23.6711 28.0621 23.6702 28.0663 23.6691 28.0692C23.6544 28.1126 23.6424 28.1566 23.6333 28.2016C23.6285 28.2234 23.6065 28.2852 23.5906 28.3303C23.5305 28.4993 23.4492 28.7281 23.4308 29.0172C23.417 29.1463 23.3892 29.2905 23.3599 29.4427C23.3019 29.7444 23.2367 30.0832 23.2411 30.4692C23.1192 31.505 23.2582 32.4938 23.4381 33.5831C23.445 33.6247 23.4544 33.6661 23.4661 33.7067C23.5245 33.9088 23.574 34.1154 23.6132 34.3206C23.6151 34.3305 23.6172 34.3403 23.6193 34.3501C23.6679 34.5713 23.7439 34.7593 23.8049 34.9104C23.8359 34.987 23.8651 35.0593 23.8788 35.1074C23.8809 35.1149 23.8832 35.1223 23.8854 35.1297L23.9932 35.4788C24.0114 35.5382 24.0349 35.5958 24.0632 35.6513L24.2316 35.9818C24.2356 35.9897 24.2397 35.9977 24.244 36.0055C24.2739 36.061 24.3073 36.1401 24.3425 36.2238C24.4006 36.3618 24.4663 36.5177 24.562 36.6852C25.0247 37.526 25.6292 38.34 26.4637 39.2461C26.4759 39.2593 26.4884 39.2723 26.5013 39.285C27.1824 39.9555 27.9946 40.5606 29.0578 41.1894C29.0743 41.1992 29.0911 41.2086 29.1082 41.2175C30.0937 41.7345 31.144 42.0487 32.0416 42.288C32.0864 42.2999 32.1319 42.3091 32.1779 42.3156C32.8562 42.4103 33.6287 42.5 34.4308 42.5C34.6916 42.5 34.9558 42.4905 35.2206 42.4686C35.2413 42.4669 35.262 42.4646 35.2825 42.4618C36.4308 42.304 37.3422 42.083 38.1508 41.7663C38.1702 41.7588 38.1893 41.7507 38.2082 41.7421C39.2135 41.2833 39.9836 40.8362 40.6306 40.3351C40.7704 40.2294 40.881 40.1212 40.9702 40.0339C41.0125 39.9925 41.0651 39.941 41.0893 39.9225C41.0975 39.9162 41.1057 39.9099 41.1137 39.9033L41.3492 39.7127C41.4154 39.6592 41.4751 39.5984 41.527 39.5315C41.5748 39.4702 41.625 39.4098 41.6765 39.3517C41.689 39.3376 41.7009 39.3234 41.7127 39.3087C41.7258 39.2927 41.7697 39.2508 41.8016 39.2201C41.8999 39.1261 42.0342 38.9975 42.1581 38.8219C42.1663 38.8103 42.1743 38.7985 42.1821 38.7865C42.2638 38.6605 42.3497 38.5454 42.4448 38.4346C42.4804 38.3931 42.5128 38.349 42.5418 38.3028L42.6296 38.1633C43.0224 37.5394 43.428 36.8954 43.6532 36.1318C43.7838 35.8513 43.8393 35.5853 43.8853 35.366C43.9043 35.2754 43.9238 35.182 43.9426 35.1235C44.018 34.94 44.057 34.7414 44.0611 34.5196C44.0651 34.4653 44.0703 34.4152 44.0767 34.3674C44.0797 34.3463 44.0819 34.325 44.0835 34.3037C44.087 34.2844 44.0919 34.2656 44.0962 34.2466C44.1234 34.1265 44.1632 33.951 44.1591 33.7337C44.2164 32.3467 43.9731 30.9764 43.4544 29.7676Z" fill="url(#paint0_linear_9_4)"/>
<defs>
<linearGradient id="paint0_linear_9_4" x1="5.51718" y1="7.5" x2="48.9295" y2="15.0244" gradientUnits="userSpaceOnUse">
<stop stop-color="#67ADD7"/>
<stop offset="1" stop-color="#67ADD7"/>
</linearGradient>
</defs>
</svg>
