<svg width="50" height="50" viewBox="0 0 50 50" fill="none" xmlns="http://www.w3.org/2000/svg">
<path fill-rule="evenodd" clip-rule="evenodd" d="M25.0484 11.9306C25.7305 11.9306 26.2834 11.3777 26.2834 10.6956V7.8532C26.2834 7.17113 25.7305 6.61816 25.0484 6.61816C24.3663 6.61816 23.8133 7.17113 23.8133 7.8532V10.6956C23.8133 11.3777 24.3663 11.9306 25.0484 11.9306ZM25.0484 12.5806C18.2001 12.5806 12.6285 18.1521 12.6285 25.0004C12.6285 31.8488 18.2 37.4203 25.0484 37.4203C31.8967 37.4203 37.4682 31.8488 37.4682 25.0004C37.4682 18.1521 31.8966 12.5806 25.0484 12.5806ZM34.986 25.4955C34.8737 27.7725 33.9064 29.9321 32.2978 31.5476L32.2792 31.5663C29.4798 34.3657 24.9249 34.3656 22.1255 31.5663C19.9823 29.4231 19.9823 25.9358 22.1255 23.7926C23.7438 22.1744 26.3769 22.1745 27.9951 23.7926C29.1934 24.9909 29.1934 26.9407 27.9951 28.139C27.2032 28.9308 25.9552 28.9955 25.0888 28.3329C24.7557 28.0781 24.4386 27.5415 24.4226 27.1225C24.4067 26.7059 24.5567 26.311 24.8417 26.0123C25.2876 25.545 25.3583 24.8186 24.9438 24.3231C24.4717 23.7585 23.6295 23.7307 23.1207 24.2395C22.3666 24.9935 21.9513 25.9961 21.9513 27.0625C21.9513 28.1289 22.3666 29.1314 23.1207 29.8856C24.9463 31.7109 27.9164 31.7109 29.7417 29.8856C31.9031 27.7242 31.903 24.2074 29.7417 22.046C27.1604 19.4648 22.9602 19.4647 20.3789 22.046C17.2727 25.1523 17.2727 30.2066 20.3789 33.3128C20.7514 33.6852 21.1473 34.0202 21.5615 34.3189C17.6974 32.8683 14.9672 29.0801 15.1036 24.6854C15.2677 19.398 19.6089 15.1301 24.8983 15.0517C30.4531 14.9694 34.9982 19.4641 34.9982 25.0003C34.9981 25.1664 34.9941 25.3315 34.986 25.4955ZM23.8133 39.3053C23.8133 38.6233 24.3663 38.0703 25.0484 38.0703C25.7305 38.0703 26.2833 38.6233 26.2834 39.3053V42.1477C26.2834 42.8298 25.7305 43.3828 25.0484 43.3828C24.3663 43.3828 23.8133 42.8298 23.8133 42.1477V39.3053ZM16.8264 13.2294C17.0551 13.6257 17.4703 13.8471 17.8971 13.8471C18.1066 13.8471 18.319 13.7937 18.5135 13.6814C19.1041 13.3404 19.3065 12.585 18.9655 11.9944L17.5443 9.53276C17.2033 8.94209 16.4479 8.73962 15.8572 9.08074C15.2666 9.42178 15.0642 10.1771 15.4052 10.7678L16.8264 13.2294ZM31.5834 36.3195C32.174 35.9785 32.9293 36.1808 33.2704 36.7715L34.6916 39.2331C35.0327 39.8238 34.8303 40.5791 34.2396 40.9202C34.0451 41.0325 33.8328 41.0858 33.6232 41.0858C33.1964 41.0858 32.7813 40.8644 32.5525 40.4681L31.1313 38.0065C30.7902 37.4159 30.9926 36.6605 31.5834 36.3195ZM9.58086 17.4962L12.0425 18.9174C12.2369 19.0298 12.4493 19.0831 12.6588 19.0831C13.0857 19.0831 13.5009 18.8616 13.7295 18.4654C14.0706 17.8747 13.8682 17.1194 13.2775 16.7784L10.8159 15.3572C10.2251 15.016 9.46979 15.2184 9.12884 15.8092C8.78772 16.3999 8.99011 17.1552 9.58086 17.4962ZM38.0544 31.0838L40.516 32.505C41.1067 32.846 41.3091 33.6013 40.968 34.192C40.7392 34.5882 40.3241 34.8097 39.8973 34.8097C39.6877 34.8097 39.4754 34.7564 39.2809 34.644L36.8193 33.2228C36.2286 32.8818 36.0262 32.1265 36.3673 31.5358C36.7083 30.945 37.4636 30.7425 38.0544 31.0838ZM11.9785 25.0007C11.9785 24.3186 11.4255 23.7656 10.7434 23.7656H7.90105C7.21898 23.7656 6.66602 24.3186 6.66602 25.0007C6.66602 25.6827 7.21898 26.2357 7.90105 26.2357H10.7434C11.4255 26.2357 11.9785 25.6827 11.9785 25.0007ZM39.3533 23.7656H42.1957C42.8778 23.7656 43.4307 24.3186 43.4307 25.0007C43.4307 25.6827 42.8778 26.2357 42.1957 26.2357H39.3533C38.6712 26.2357 38.1183 25.6827 38.1183 25.0007C38.1183 24.3186 38.6712 23.7656 39.3533 23.7656ZM12.0425 31.0837L9.58086 32.5049C8.99019 32.8459 8.78781 33.6013 9.12884 34.1919C9.35757 34.5882 9.77271 34.8096 10.1995 34.8096C10.409 34.8096 10.6214 34.7563 10.8159 34.644L13.2775 33.2228C13.8682 32.8817 14.0705 32.1264 13.7295 31.5357C13.3885 30.945 12.6332 30.7426 12.0425 31.0837ZM38.0543 18.9178C37.8598 19.0301 37.6475 19.0835 37.4379 19.0835C37.0111 19.0835 36.596 18.862 36.3672 18.4658C36.0261 17.8751 36.2285 17.1198 36.8192 16.7787L39.2808 15.3575C39.8715 15.0166 40.6268 15.2188 40.9679 15.8096C41.309 16.4002 41.1066 17.1556 40.5159 17.4966L38.0543 18.9178ZM18.5135 36.3191C17.9227 35.9779 17.1674 36.1803 16.8264 36.7711L15.4052 39.2327C15.0642 39.8234 15.2666 40.5787 15.8572 40.9197C16.0517 41.0321 16.2641 41.0854 16.4736 41.0854C16.9004 41.0854 17.3156 40.8639 17.5443 40.4677L18.9655 38.0061C19.3065 37.4155 19.1041 36.6601 18.5135 36.3191ZM32.1997 13.8476C31.9902 13.8476 31.7778 13.7943 31.5834 13.682C30.9927 13.3409 30.7902 12.5856 31.1313 11.9948L32.5525 9.53331C32.8935 8.94255 33.6489 8.74008 34.2396 9.08128C34.8303 9.42224 35.0327 10.1776 34.6916 10.7683L33.2704 13.2299C33.0417 13.6261 32.6266 13.8476 32.1997 13.8476Z" fill="url(#paint0_linear_9_5)"/>
<defs>
<linearGradient id="paint0_linear_9_5" x1="6.36218" y1="6.61816" x2="48.201" y2="13.2392" gradientUnits="userSpaceOnUse">
<stop stop-color="#67ADD7"/>
<stop offset="1" stop-color="#67ADD7"/>
</linearGradient>
</defs>
</svg>
