<svg width="50" height="50" viewBox="0 0 50 50" fill="none" xmlns="http://www.w3.org/2000/svg">
<path fill-rule="evenodd" clip-rule="evenodd" d="M30.99 18.7876L31.5685 18.5654C33.2956 17.9016 35.1235 17.5648 36.9995 17.5648C40.9595 17.5648 44.6853 19.0751 47.4994 21.819L45.9793 23.3177C45.2737 22.6306 44.4892 22.025 43.6474 21.518L43.394 21.3657L42.4932 23.1484L40.57 22.2024L41.449 20.4627L41.1548 20.3633C40.2612 20.0614 39.3278 19.8581 38.3816 19.7577L38.0492 19.7228L38.259 21.8727L36.1196 22.0761L35.8899 19.7291L35.6166 19.7577C34.7902 19.8446 33.9721 20.0112 33.1857 20.2522L32.8933 20.3418L33.864 22.4935L31.9008 23.3553L30.9228 21.1883L30.6613 21.3361C30.0729 21.6676 29.5072 22.0501 28.9778 22.472L28.7426 22.6602L31.9616 25.8358L31.0173 26.7674C29.6479 28.1192 28.6881 29.8669 28.2413 31.8207C27.8709 33.443 27.0418 34.9247 25.845 36.1053C24.186 37.7429 21.8959 38.6817 19.5631 38.6817C19.5013 38.6817 19.4405 38.6808 19.3787 38.6799L19.2625 38.6772L12.1089 45.7344C10.9547 46.8729 9.4183 47.5 7.78198 47.5C6.14567 47.5 4.60925 46.8729 3.45511 45.7344C1.06965 43.3811 1.06965 39.5515 3.45511 37.1973L10.5888 30.159V30.0479C10.5888 27.7233 11.6812 25.1138 13.3084 23.5551C14.5098 22.4031 16.009 21.6103 17.6416 21.2636C19.544 20.8596 21.3102 19.8948 22.7494 18.4749L23.6248 17.6114L27.0636 21.0038L27.2543 20.7709C27.6838 20.2459 28.0706 19.687 28.4057 19.1101L28.5555 18.8521L26.3589 17.8873L27.2325 15.9506L29.4136 16.9082L29.5044 16.6197C29.7487 15.8439 29.9176 15.0368 30.0057 14.2216L30.0348 13.952L27.6557 13.7263L27.8618 11.6157L30.0411 11.8227L30.0057 11.4948C29.9049 10.5623 29.6988 9.64227 29.3918 8.75901L29.2911 8.46877L27.5276 9.33591L26.5687 7.43859L28.3757 6.54995L28.2214 6.30002C27.7074 5.4696 27.0936 4.69562 26.3971 3.99958L27.9172 2.5C30.6985 5.27611 32.2295 8.95071 32.2295 12.8582C32.2295 14.7108 31.8881 16.514 31.2152 18.2169L30.99 18.7876ZM7.78289 45.3814C8.84441 45.3814 9.84145 44.9747 10.5897 44.2357L20.8761 34.0889C22.0384 32.9422 22.3635 31.2402 21.7052 29.7505L21.5454 29.3895L19.969 30.9446L18.4489 29.4459L20.0262 27.8899L19.6593 27.7322C19.1535 27.5145 18.6187 27.4043 18.0684 27.4043C17.0078 27.4043 16.0108 27.811 15.2616 28.5501L4.97519 38.6978C4.22605 39.4359 3.81379 40.4195 3.81379 41.4667C3.81379 42.5139 4.22605 43.4975 4.97519 44.2357C5.72433 44.9747 6.72138 45.3814 7.78289 45.3814ZM28.7825 26.0427L28.9424 25.8537L23.6039 20.5899L23.4123 20.7476C21.8577 22.0322 20.018 22.9271 18.0938 23.3365C16.8553 23.5999 15.7184 24.2009 14.8058 25.0752C14.4762 25.3915 14.1692 25.7758 13.8932 26.2165L13.0896 27.502L14.2936 26.5695C16.3449 24.9812 19.1953 24.8513 21.3864 26.247L21.5717 26.3643L23.3733 24.587L24.8924 26.0857L23.0909 27.863L23.2098 28.0457C24.6482 30.2432 24.4938 33.0838 22.8266 35.1146L21.7715 36.4L23.1853 35.5105C23.6003 35.2498 23.9844 34.9453 24.3276 34.6066C25.2366 33.7099 25.8659 32.5857 26.1474 31.3549C26.5987 29.3796 27.5104 27.5423 28.7825 26.0427ZM8.46428 39.097C8.7013 38.8632 9.01282 38.7459 9.32433 38.7459C9.63584 38.7459 9.94661 38.8632 10.1829 39.097C10.4131 39.3234 10.5395 39.6248 10.5395 39.9454C10.5395 40.2661 10.4131 40.5675 10.1829 40.7939L8.58543 42.3705C8.35593 42.5962 8.05044 42.7209 7.72538 42.7209C7.40032 42.7209 7.09483 42.5962 6.86608 42.3705C6.39204 41.9029 6.39204 41.1413 6.86608 40.6736L8.46428 39.097Z" fill="url(#paint0_linear_9_6)"/>
<defs>
<linearGradient id="paint0_linear_9_6" x1="1.28723" y1="2.5" x2="53.3987" y2="10.8994" gradientUnits="userSpaceOnUse">
<stop stop-color="#67ADD7"/>
<stop offset="1" stop-color="#67ADD7"/>
</linearGradient>
</defs>
</svg>
