<svg width="50" height="50" viewBox="0 0 50 50" fill="none" xmlns="http://www.w3.org/2000/svg">
<path fill-rule="evenodd" clip-rule="evenodd" d="M16.8807 25.0419V20.9193C16.8807 17.5706 15.8837 14.338 13.9975 11.571C13.753 11.2124 13.727 10.748 13.9298 10.3642C14.1327 9.98048 14.531 9.74042 14.9651 9.74042C16.9306 9.74042 18.7788 10.2504 20.3866 11.1431L24.1072 7.00568C24.3293 6.75875 24.6458 6.61768 24.9779 6.61768H24.9784C25.3108 6.61783 25.6273 6.75914 25.8493 7.00638L29.5799 11.1617C31.1953 10.2575 33.0554 9.74042 35.0344 9.74042C35.4685 9.74042 35.8669 9.98048 36.0698 10.3642C36.2726 10.7479 36.2465 11.2123 36.0021 11.571C34.116 14.338 33.1189 17.5705 33.1189 20.9193V25.0419C33.1189 29.5188 29.4767 33.161 24.9998 33.161C20.5229 33.161 16.8807 29.5188 16.8807 25.0419ZM27.6544 12.5228L24.9772 9.5408L22.3174 12.4985C23.4228 13.4619 24.3392 14.6368 24.9999 15.9612C25.655 14.6479 26.5615 13.4815 27.6544 12.5228ZM24.9998 22.1171C24.3531 22.1171 23.8288 21.5928 23.8288 20.9461C23.8288 16.8238 20.9998 13.3497 17.1815 12.363C18.5226 15.0052 19.2227 17.9214 19.2227 20.9193V25.0419C19.2227 28.2274 21.8143 30.819 24.9998 30.819C28.1853 30.819 30.7769 28.2274 30.7769 25.0419V20.9193C30.7769 17.9214 31.477 15.0052 32.8181 12.363C28.9998 13.3497 26.1708 16.8238 26.1708 20.9461C26.1708 21.5928 25.6465 22.1171 24.9998 22.1171ZM27.5085 36.9417C27.5085 34.6928 29.338 32.8632 31.5869 32.8632C34.2365 32.8632 36.3922 35.0188 36.3922 37.6685C36.3922 40.8191 33.8289 43.3823 30.6783 43.3823C28.3176 43.3823 26.2319 42.1818 24.9998 40.3592C23.7677 42.1818 21.6821 43.3823 19.3213 43.3823C16.1707 43.3823 13.6074 40.8191 13.6074 37.6685C13.6074 35.0188 15.7631 32.8632 18.4127 32.8632C20.6615 32.8632 22.4911 34.6928 22.4911 36.9417C22.4911 37.5884 21.9668 38.1127 21.3201 38.1127C20.6733 38.1127 20.149 37.5884 20.149 36.9417C20.149 35.9842 19.3701 35.2053 18.4127 35.2053C17.0545 35.2053 15.9495 36.3102 15.9495 37.6685C15.9495 39.5277 17.4621 41.0402 19.3213 41.0402C21.8067 41.0402 23.8288 39.0182 23.8288 36.5328V34.7357C23.8288 34.089 24.3531 33.5646 24.9998 33.5646C25.6466 33.5646 26.1709 34.089 26.1709 34.7357V36.5328C26.1709 39.0182 28.1929 41.0402 30.6783 41.0402C32.5375 41.0402 34.0501 39.5277 34.0501 37.6685C34.0501 36.3102 32.9451 35.2053 31.5869 35.2053C30.6295 35.2053 29.8505 35.9842 29.8505 36.9417C29.8505 37.5884 29.3262 38.1127 28.6795 38.1127C28.0328 38.1127 27.5085 37.5884 27.5085 36.9417Z" fill="url(#paint0_linear_9_3)"/>
<defs>
<linearGradient id="paint0_linear_9_3" x1="13.4191" y1="6.61767" x2="39.7447" y2="9.19957" gradientUnits="userSpaceOnUse">
<stop stop-color="#67ADD7"/>
<stop offset="1" stop-color="#67ADD7"/>
</linearGradient>
</defs>
</svg>
