<svg width="24" height="24" viewBox="0 0 24 24" fill="none" xmlns="http://www.w3.org/2000/svg">
<rect opacity="0.8" width="24" height="24" fill="white"/>
<path opacity="0.6" d="M11.3823 7.37224C11.5223 7.57544 11.7533 7.6968 12 7.6968C12.2467 7.69681 12.4777 7.57545 12.6176 7.37226C13.3115 6.36499 14.3753 5.75 15.5401 5.75C17.5148 5.75 19.25 7.56058 19.25 9.96891C19.25 10.6934 18.8976 11.5793 18.2446 12.556C17.6021 13.5169 16.7234 14.4847 15.8004 15.3544C14.8797 16.2221 13.9343 16.974 13.1745 17.5051C12.7936 17.7713 12.4692 17.9751 12.2248 18.1088C12.1325 18.1593 12.0581 18.1962 12.0011 18.2218C11.9441 18.196 11.8699 18.1588 11.7778 18.108C11.5333 17.9729 11.2088 17.7672 10.8278 17.4988C10.0677 16.9634 9.12186 16.206 8.20065 15.3345C7.27719 14.4609 6.3979 13.4908 5.75494 12.5316C5.10071 11.5557 4.75 10.6776 4.75 9.96892C4.75 7.56057 6.48516 5.75 8.4599 5.75C9.62474 5.75 10.6886 6.365 11.3823 7.37224ZM11.902 18.2606C11.902 18.2605 11.9035 18.2601 11.9065 18.2594C11.9034 18.2603 11.9019 18.2607 11.902 18.2606ZM12.0954 18.2597C12.0985 18.2605 12.1001 18.261 12.1001 18.261C12.1002 18.2611 12.0986 18.2607 12.0954 18.2597Z" stroke="#4E5B67" stroke-width="1.5" stroke-linejoin="round"/>
</svg>
