<svg width="24" height="24" viewBox="0 0 24 24" fill="none" xmlns="http://www.w3.org/2000/svg">
<path d="M20.0343 6.83072C20.0343 6.60237 19.8963 6.39661 19.6851 6.30981L11.7311 3.04224C11.594 2.98592 11.4403 2.98592 11.3031 3.04224L3.34915 6.30981C3.13794 6.39657 3 6.60237 3 6.83072V17.1693C3 17.3976 3.1379 17.6034 3.34915 17.6902L11.3031 20.9578C11.4388 21.0135 11.5913 21.0147 11.7304 20.9577C11.7372 20.9555 11.4361 21.079 19.6851 17.6902C19.8964 17.6034 20.0343 17.3976 20.0343 17.1693V6.83072ZM11.5171 9.53684L8.5864 8.33287L14.9201 5.56991L18.0468 6.85441L11.5171 9.53684ZM4.12629 7.71824L6.65484 8.75699V11.6876C6.65484 11.9986 6.90699 12.2507 7.21799 12.2507C7.52899 12.2507 7.78113 11.9986 7.78113 11.6876V9.21969L10.954 10.5231V19.5967L4.12629 16.7918V7.71824ZM11.5171 4.17194L13.4694 4.97393L7.1357 7.73689L4.98748 6.85437L11.5171 4.17194ZM12.0803 10.5231L18.908 7.71824V16.7918L12.0803 19.5967V10.5231Z" fill="#4E5B67"/>
</svg>
