<svg width="24" height="24" viewBox="0 0 24 24" fill="none" xmlns="http://www.w3.org/2000/svg">
<path fill-rule="evenodd" clip-rule="evenodd" d="M7.21875 10.1367H5.82941C5.9407 8.6197 6.60133 7.25288 7.61267 6.23491C8.75334 5.09176 10.3249 4.40625 12 4.40625C13.6751 4.40625 15.2467 5.09177 16.3873 6.23493C17.3987 7.2529 18.0593 8.61971 18.1706 10.1367H16.7813C16.3929 10.1367 16.0781 10.4515 16.0781 10.8398V15.6563V17.4492V18.1875C16.0781 18.5752 15.7627 18.8906 15.375 18.8906H13.2305V18.9129C12.9906 18.4804 12.5296 18.1875 12 18.1875C11.2234 18.1875 10.5938 18.8171 10.5938 19.5938C10.5938 20.3704 11.2234 21 12 21C12.5296 21 12.9906 20.7071 13.2305 20.2746V20.2969H15.375C16.5381 20.2969 17.4844 19.3506 17.4844 18.1875V18.1523H18.1875C19.7383 18.1523 21 16.8907 21 15.3398V12.9492C21 12.8402 20.9938 12.7326 20.9816 12.6267C20.8781 11.7237 20.3452 10.9494 19.5928 10.5136C19.5776 9.03928 19.1451 7.63172 18.351 6.42653C17.9506 5.8164 17.4629 5.26629 16.8994 4.79115C15.5355 3.6357 13.8257 3.00431 12.0185 3.00002C12.0124 3.00001 12.0062 3 12 3C11.9894 3 11.9788 3.00002 11.9683 3.00006C10.166 3.00739 8.46116 3.6385 7.10061 4.79115C6.53714 5.26626 6.04947 5.81633 5.64907 6.42643C4.85473 7.63189 4.42219 9.03983 4.4072 10.5145C3.56689 11.0015 3 11.9101 3 12.9492V15.3398C3 16.8907 4.26169 18.1523 5.8125 18.1523H7.21875C7.60709 18.1523 7.92188 17.8376 7.92188 17.4492V10.8398C7.92188 10.4515 7.60709 10.1367 7.21875 10.1367ZM6.51563 16.7461H5.8125C5.03709 16.7461 4.40625 16.1153 4.40625 15.3398V12.9492C4.40625 12.1738 5.03709 11.543 5.8125 11.543H6.51563V16.7461ZM19.5938 15.3398C19.5938 16.1153 18.9629 16.7461 18.1875 16.7461H17.4844V15.6563V11.543H18.1875C18.9629 11.543 19.5938 12.1738 19.5938 12.9492V15.3398Z" fill="#4E5B67"/>
</svg>
