<svg width="24" height="24" viewBox="0 0 24 24" fill="none" xmlns="http://www.w3.org/2000/svg">
<path d="M18.9366 13.4732L14.61 10.8703C14.0022 10.5047 13.3262 10.2727 12.6267 10.1854V9.53341C12.6267 9.1661 12.837 8.82418 13.1755 8.64096C14.0166 8.18576 14.5118 7.30905 14.4678 6.35287C14.4095 5.08639 13.3856 4.06088 12.1176 4.00265C10.696 3.93783 9.53296 5.06955 9.53296 6.46872C9.53296 6.81393 9.81287 7.09372 10.158 7.09372C10.5032 7.09372 10.783 6.81393 10.783 6.46872C10.783 5.77682 11.358 5.21896 12.0601 5.25131C12.6814 5.27987 13.1906 5.78903 13.2191 6.41037C13.241 6.88327 12.9962 7.31674 12.5804 7.54171C11.838 7.94357 11.3767 8.70675 11.3767 9.53341V10.185C10.6802 10.2714 10.0066 10.5016 9.40051 10.8642L5.06775 13.4571H5.06763C4.41004 13.8507 4.00086 14.5713 4 15.3377C3.99866 16.5506 4.97901 17.5334 6.19202 17.5349L17.8027 17.5484H17.8054C19.0143 17.5484 19.9985 16.5655 20 15.3563C20.0009 14.5899 19.5934 13.8683 18.9366 13.4732ZM17.8054 16.2984C17.8051 16.2984 17.8046 16.2984 17.8043 16.2984L6.1936 16.2849C5.67261 16.2843 5.24939 15.8601 5.25 15.3392C5.25037 15.0092 5.42651 14.6991 5.7096 14.5296H5.70947L10.0424 11.9369C11.2499 11.2142 12.7584 11.2153 13.9656 11.9414L18.2924 14.5443C18.575 14.7143 18.7504 15.025 18.75 15.3548C18.7494 15.8753 18.3258 16.2984 17.8054 16.2984Z" fill="#4E5B67"/>
</svg>
