<svg width="170" height="45" viewBox="0 0 170 45" fill="none" xmlns="http://www.w3.org/2000/svg">
<path fill-rule="evenodd" clip-rule="evenodd" d="M3.40113 33.2154C3.59221 33.0255 3.59221 32.7216 3.40113 32.5317C1.83432 30.9742 0.955375 28.8849 0.955375 26.6437C0.955375 22.0473 4.73866 18.2866 9.36267 18.2866C11.0059 18.2866 13.1077 18.9324 14.5599 19.882C15.4771 20.4898 16.3178 21.1356 17.0821 21.7814L14.4071 26.8336C13.0313 29.1888 11.2352 29.8346 9.74482 29.8346C7.94872 29.8346 6.49655 28.3911 6.49655 26.6057C6.49655 24.8203 7.94872 23.3768 9.74482 23.3768C10.0505 23.3768 10.3563 23.4528 10.662 23.5288C11.3116 23.6807 11.6556 22.769 10.9295 22.6171C10.5473 22.5411 10.1652 22.4272 9.74482 22.4272C7.41371 22.4272 5.54117 24.2885 5.54117 26.6057C5.54117 28.9229 7.41371 30.7843 9.74482 30.7843C12.3052 30.7843 16.8528 29.9865 19.8718 24.5924C21.0947 25.9979 22.2029 27.4414 23.2347 28.9229L20.6743 35.9885C19.6807 38.4956 18.4196 40.9268 15.821 42.7501C15.3242 43.092 14.216 43.6618 12.9931 44.0797C12.3817 44.2696 12.5345 45.2193 13.337 44.9534C19.5661 42.7501 23.8079 38.5336 25.8715 32.7596C28.6612 36.8622 32.6738 42.0664 40.7372 42.0664C47.6159 42.0664 53.6538 36.5203 53.6538 29.6826C53.6538 21.6674 47.3484 17.3369 41.3868 17.3369C36.3807 17.3369 32.712 21.1356 32.712 25.6181C32.712 29.9865 36.0367 33.2914 40.4315 33.2914C41.1575 33.2914 41.769 32.6836 41.769 31.9619C41.769 31.2021 41.1575 30.6323 40.4315 30.6323C39.6672 30.6323 39.0939 31.2401 39.0939 31.9619C39.0939 32.0758 39.0939 32.1518 39.1322 32.2658C35.9221 31.696 33.6674 29.0369 33.6674 25.656C33.6674 21.6674 37.1068 18.2866 41.3868 18.2866C46.7369 18.2866 49.7941 23.6807 49.7941 28.771C49.7941 35.0008 44.253 40.0531 37.9475 40.0531C32.4827 40.0531 28.623 35.0388 26.2537 31.658L33.4763 11.5629C33.8203 10.5753 34.1642 9.58759 34.5846 8.59993C37.4125 8.25805 40.5461 7.87818 40.7372 7.87818C41.2722 7.8402 41.1958 7.04247 40.6607 7.08046C40.4697 7.11845 37.6418 7.38435 34.9667 7.68825C36.1132 5.14313 37.7182 2.74996 40.89 1.1925C40.8136 1.91425 41.3486 2.59801 42.0747 2.67398C42.8008 2.74996 43.4887 2.21814 43.5651 1.49639C43.6415 0.77464 43.1065 0.0908762 42.3804 0.0149024C42.1893 -0.0230844 41.9983 0.0149024 41.8072 0.0908762C37.145 1.72431 33.6292 4.45937 31.2981 8.1061C30.4956 8.18208 29.9606 8.25805 29.9606 8.25805C27.4002 8.52396 23.0819 9.92947 20.3304 15.7415L17.5025 21.0596C16.7382 20.4138 15.9357 19.8061 15.0567 19.1983C13.4517 18.1346 11.1588 17.4509 9.36267 17.4509C4.20365 17.4509 0 21.6294 0 26.7577C0 29.2268 0.955376 31.544 2.71327 33.2914C2.90434 33.4054 3.21006 33.4054 3.40113 33.2154ZM24.7633 15.1717C26.6741 11.297 28.623 9.2837 30.0752 9.13175C30.0752 9.13175 30.3045 9.09376 30.7249 9.05578C30.1134 10.1574 29.5784 11.297 29.158 12.5126L23.6169 27.8213C22.5851 26.4158 21.515 25.0103 20.3304 23.6807L24.7633 15.1717Z" fill="#4E5B67"/>
<path fill-rule="evenodd" clip-rule="evenodd" d="M68.5336 6.05762H67.9408L62.3086 19.4552H63.9178L65.654 15.3591H70.8627L72.599 19.4552H74.2505L68.5336 6.05762ZM66.2469 13.9511L68.2795 8.91634L70.3122 13.9511H66.2469ZM113.464 6.05762L107.789 19.4552H109.399L111.135 15.3591H116.344L118.08 19.4552H119.731L114.014 6.05762H113.464ZM111.728 13.9511L113.76 8.91634L115.793 13.9511H111.728ZM83.8633 19.4552H76.1138V6.27095H77.6806V18.0472H83.9056V19.4552H83.8633ZM94.323 19.4552H85.7266V6.27095H94.1113V7.67899H87.2511V12.0311H91.6552V13.4391H87.2511V18.0472H94.323V19.4552ZM157.42 19.4552H148.781V6.27095H157.166V7.67899H150.306V12.0311H154.71V13.4391H150.306V18.0472H157.378V19.4552H157.42ZM106.434 19.4552H104.656L101.141 14.0364L97.5838 19.4552H95.7628L100.252 12.7137L96.0593 6.27095H97.8379L101.099 11.3911L104.317 6.27095H106.096L101.988 12.7137L106.434 19.4552ZM130.488 16.2125V6.27095H132.054V19.6685H131.504L123.161 9.55635V19.4552H121.595V6.05762H122.145L130.488 16.2125ZM135.315 6.27095V19.4552H139.211C141.413 19.4552 143.107 18.8152 144.42 17.5778C145.69 16.3405 146.325 14.7618 146.325 12.8418C146.325 10.9217 145.69 9.34302 144.42 8.10566C143.149 6.8683 141.413 6.27095 139.211 6.27095H135.315ZM143.234 9.12967C144.208 10.0684 144.716 11.3484 144.716 12.8844C144.716 14.4204 144.208 15.6578 143.234 16.6392C142.26 17.6205 140.905 18.1325 139.211 18.1325H136.882V7.76431L139.169 7.72165C140.905 7.67898 142.26 8.14832 143.234 9.12967ZM160.977 13.9084H163.772L167.838 19.4552H169.616L165.466 13.7378C166.313 13.4818 166.991 13.0551 167.499 12.4151C168.007 11.7751 168.219 11.007 168.219 10.111C168.219 9.00168 167.838 8.06299 167.075 7.33764C166.313 6.61229 165.297 6.27095 164.026 6.27095H159.411V19.4552H160.977V13.9084ZM160.977 7.67899H163.984C164.831 7.67899 165.466 7.89232 165.932 8.36166C166.398 8.831 166.61 9.38568 166.61 10.111C166.61 10.8364 166.356 11.4337 165.932 11.8604C165.466 12.2871 164.831 12.5004 163.984 12.5004H160.977V7.67899ZM121.891 26.1113L116.217 39.5089H117.826L119.562 35.4129H124.771L126.507 39.5089H128.158L122.442 26.1113H121.891ZM120.155 34.0475L122.187 29.0127L124.22 34.0475H120.155ZM80.8566 26.1113C78.951 26.1113 77.3418 26.7514 76.0291 28.0741C74.7163 29.3967 74.0811 31.0181 74.0811 32.9381C74.0811 34.8582 74.7163 36.4795 76.0291 37.8022C77.3418 39.1249 78.951 39.7649 80.8566 39.7649C82.7623 39.7649 84.3291 39.1249 85.6842 37.8022C86.997 36.4795 87.6745 34.8582 87.6745 32.9381C87.6745 31.0181 87.0393 29.3967 85.6842 28.0741C84.3291 26.794 82.7199 26.1113 80.8566 26.1113ZM84.5832 36.7782C83.6092 37.8022 82.3811 38.3143 80.8566 38.3143C79.3745 38.3143 78.1041 37.8022 77.1301 36.7782C76.1561 35.7542 75.6479 34.4742 75.6479 32.9381C75.6479 31.4021 76.1561 30.1221 77.1301 29.0981C78.1041 28.0741 79.3322 27.562 80.8566 27.562C82.3388 27.562 83.5669 28.0741 84.5832 29.0981C85.5572 30.1221 86.0653 31.4021 86.0653 32.8955C86.0653 34.4742 85.5572 35.7542 84.5832 36.7782ZM96.1016 32.8955H102.115V36.3942C101.522 37.4182 100.717 38.2716 99.6588 38.8689C98.6001 39.5089 97.4144 39.8076 96.144 39.8076C94.2384 39.8076 92.6292 39.1676 91.3164 37.8449C90.0036 36.5222 89.3684 34.9009 89.3684 32.9808C89.3684 31.0608 90.0036 29.4394 91.3164 28.1167C92.6292 26.794 94.3654 26.154 96.144 26.154C97.0756 26.154 98.3037 26.4527 99.193 26.922C100.125 27.3914 100.887 28.074 101.48 28.9274L100.294 29.8661C99.2353 28.4154 97.8379 27.69 96.144 27.69C94.6195 27.69 93.3914 28.2021 92.4174 29.2261C91.4434 30.2501 90.9353 31.5301 90.9353 33.0661C90.9353 34.6022 91.4434 35.8822 92.4174 36.9489C93.3914 37.9729 94.6618 38.5276 96.1863 38.5276C97.118 38.5276 98.0072 38.3143 98.7271 37.8876C99.4894 37.4609 100.082 36.9062 100.548 36.1809V34.3888H96.1016V32.8955ZM108.636 26.3674H104.74V39.5516H108.636C110.838 39.5516 112.532 38.9116 113.845 37.6742C115.115 36.4369 115.751 34.8582 115.751 32.9381C115.751 31.0181 115.115 29.4394 113.845 28.2021C112.532 26.9647 110.796 26.3674 108.636 26.3674ZM112.659 36.7355C111.685 37.7169 110.33 38.2289 108.594 38.2289H106.265V27.818L108.552 27.7754C110.288 27.7754 111.643 28.2447 112.617 29.2261C113.591 30.1648 114.099 31.4448 114.099 32.9808C114.142 34.4742 113.676 35.7542 112.659 36.7355ZM138.915 26.3674H140.481V39.7649H139.931L131.589 29.6527V39.5516H130.064V26.1113H130.615L138.957 36.2662V26.3674H138.915ZM149.713 26.1113C147.808 26.1113 146.198 26.7514 144.886 28.0741C143.573 29.3967 142.938 31.0181 142.938 32.9381C142.938 34.8582 143.573 36.4795 144.886 37.8022C146.198 39.1249 147.808 39.7649 149.713 39.7649C151.576 39.7649 153.186 39.1249 154.541 37.8022C155.853 36.4795 156.531 34.8582 156.531 32.9381C156.531 31.0181 155.896 29.3967 154.541 28.0741C153.228 26.794 151.619 26.1113 149.713 26.1113ZM153.44 36.7782C152.466 37.8022 151.238 38.3143 149.713 38.3143C148.231 38.3143 146.961 37.8022 145.987 36.7782C145.013 35.7542 144.504 34.4742 144.504 32.9381C144.504 31.4021 145.013 30.1221 145.987 29.0981C146.961 28.0741 148.189 27.562 149.713 27.562C151.195 27.562 152.423 28.0741 153.44 29.0981C154.414 30.1221 154.922 31.4021 154.922 32.8955C154.922 34.4742 154.456 35.7542 153.44 36.7782ZM167.202 26.3674H168.896L163.222 39.7649H162.629L156.954 26.3674H158.648L162.925 36.6929L167.202 26.3674ZM72.5566 30.0794C72.5566 28.9701 71.7944 26.3674 68.4066 26.3674H63.0285V39.5516H68.4066C71.7944 39.5516 72.5566 36.9489 72.5566 35.8395C72.5566 35.1142 72.0484 33.6635 70.778 32.9381C72.0484 32.2555 72.5566 30.8048 72.5566 30.0794ZM70.9898 35.8395C70.9898 36.5222 70.4392 38.1436 68.2795 38.1436H64.5953V33.5782H68.2795C70.3122 33.5355 70.9898 35.1569 70.9898 35.8395ZM68.2795 32.2555H64.5953V27.7327H67.3903H68.2795C70.4816 27.7327 70.9898 29.2687 70.9898 29.9514C70.9898 30.6768 70.3122 32.2555 68.2795 32.2555Z" fill="#4E5B67"/>
</svg>
