<svg width="16" height="14" viewBox="0 0 16 14" fill="none" xmlns="http://www.w3.org/2000/svg">
<path opacity="0.6" d="M7.38234 2.37224C7.5223 2.57544 7.75325 2.6968 7.99999 2.6968C8.24673 2.69681 8.47768 2.57545 8.61765 2.37226C9.31149 1.36499 10.3753 0.75 11.5401 0.75C13.5148 0.75 15.25 2.56058 15.25 4.96891C15.25 5.69343 14.8976 6.5793 14.2446 7.55595C13.6021 8.51689 12.7234 9.48467 11.8004 10.3544C10.8797 11.2221 9.93427 11.974 9.17446 12.5051C8.79365 12.7713 8.46921 12.9751 8.22476 13.1088C8.1325 13.1593 8.05812 13.1962 8.00106 13.2218C7.94413 13.196 7.86991 13.1588 7.77784 13.108C7.53333 12.9729 7.2088 12.7672 6.82781 12.4988C6.0677 11.9634 5.12186 11.206 4.20065 10.3345C3.27719 9.46086 2.3979 8.49081 1.75494 7.53164C1.10071 6.55566 0.75 5.67759 0.75 4.96892C0.75 2.56057 2.48516 0.75 4.4599 0.75C5.62474 0.75 6.68856 1.365 7.38234 2.37224ZM7.90198 13.2606C7.90202 13.2605 7.90355 13.2601 7.90646 13.2594C7.9034 13.2603 7.90194 13.2607 7.90198 13.2606ZM8.09538 13.2597C8.09846 13.2605 8.10008 13.261 8.10013 13.261C8.10017 13.2611 8.09862 13.2607 8.09538 13.2597Z" stroke="#4E5B67" stroke-width="1.5" stroke-linejoin="round"/>
</svg>
