<svg width="40" height="40" viewBox="0 0 40 40" fill="none" xmlns="http://www.w3.org/2000/svg">
<path d="M30.2508 8.68625C27.1884 5.66431 23.1167 4 18.7858 4H17.8358V6.42812C14.5111 6.65 11.4162 8.03319 9.03761 10.3804C6.43374 12.9499 4.99976 16.3662 4.99976 20C4.99976 23.6338 6.43381 27.0501 9.03761 29.6196C9.19468 29.7747 9.35511 29.9252 9.51833 30.0719L7.99377 31.9777L8.7386 32.5587C11.6248 34.81 15.099 36 18.7858 36C23.1167 36 27.1884 34.3357 30.2508 31.3137C33.3132 28.2917 34.9998 24.2738 34.9998 20.0001C34.9998 15.7264 33.3132 11.7083 30.2508 8.68625ZM10.6806 31.6449L13.6596 27.9211H24.8661V26.0461H23.596V21.3252L20.9102 20L23.596 18.6748V13.954H24.8661V12.079H19.7359V5.90544C23.2019 6.128 26.4288 7.56638 28.9073 10.0121C31.6108 12.6799 33.0997 16.2271 33.0997 20C33.0997 23.7729 31.6108 27.32 28.9073 29.9879C26.2037 32.6557 22.6092 34.125 18.7858 34.125C15.85 34.125 13.0672 33.2706 10.6806 31.6449ZM6.89983 20C6.89983 13.8481 11.7243 8.78756 17.8358 8.30837V12.079H12.7056V13.954H13.9757V18.6748L16.6615 20L13.9757 21.3252V24.4999L10.7029 28.5911C8.36517 26.4477 6.89983 23.3897 6.89983 20ZM21.6959 22.484V26.0461H15.8757V22.484L18.7858 21.0481L21.6959 22.484ZM18.7858 18.9518L15.8757 17.5159V13.9539H21.696V17.5159L18.7858 18.9518Z" fill="url(#paint0_linear_351_77)"/>
<defs>
<linearGradient id="paint0_linear_351_77" x1="4.75182" y1="4" x2="38.9936" y2="9.08014" gradientUnits="userSpaceOnUse">
<stop stop-color="#67ADD7"/>
<stop offset="1" stop-color="#67ADD7"/>
</linearGradient>
</defs>
</svg>
