<svg width="40" height="40" viewBox="0 0 40 40" fill="none" xmlns="http://www.w3.org/2000/svg">
<path fill-rule="evenodd" clip-rule="evenodd" d="M31.5367 8.16434C28.46 8.16434 22.8614 7.53784 21.1079 5.22878C20.8098 4.7606 20.1576 4.71893 19.8015 5.16583C17.7368 7.4743 12.1255 8.16434 8.82031 8.16434C8.36728 8.16434 8 8.53299 8 8.98777V22.1623C8 28.0959 14.8304 31.7208 20.0048 32.848C20.673 32.9932 32.357 30.0335 32.357 22.1623V8.98777C32.357 8.53305 31.9897 8.16434 31.5367 8.16434ZM30.7163 22.1623C30.7163 28.346 21.5647 30.8532 20.1785 31.1969C18.7923 30.8532 9.64068 28.346 9.64068 22.1623V9.8018C15.9752 9.65556 19.1342 7.83091 20.3902 6.84184C22.9206 9.08003 27.3461 9.72529 30.7164 9.80196V22.1623H30.7163ZM16.0795 15.5476V18.0453H15.2566C14.8036 18.0453 14.4363 18.4139 14.4363 18.8687V25.456C14.4363 25.9107 14.8036 26.2794 15.2566 26.2794H25.1004C25.5534 26.2794 25.9207 25.9107 25.9207 25.456V18.8686C25.9207 18.4139 25.5534 18.0452 25.1004 18.0452H17.7202V15.5475C17.7202 14.2608 18.7336 13.1048 20.2033 13.1048C21.5452 13.1048 22.6369 14.2006 22.6369 15.5475C22.6369 16.0023 23.0042 16.371 23.4572 16.371C23.9102 16.371 24.2775 16.0023 24.2775 15.5475C24.2775 13.2926 22.4498 11.458 20.2033 11.458C17.8146 11.458 16.0795 13.3669 16.0795 15.5476ZM24.2801 24.6325H16.077V19.692H24.2801V24.6325ZM20.9988 22.1623C20.9988 22.6171 20.6315 22.9857 20.1785 22.9857C19.7255 22.9857 19.3582 22.6171 19.3582 22.1623C19.3582 21.7075 19.7255 21.3389 20.1785 21.3389C20.6315 21.3389 20.9988 21.7075 20.9988 22.1623Z" fill="url(#paint0_linear_351_70)"/>
<defs>
<linearGradient id="paint0_linear_351_70" x1="7.7987" y1="4.85303" x2="35.6831" y2="8.69164" gradientUnits="userSpaceOnUse">
<stop stop-color="#67ADD7"/>
<stop offset="1" stop-color="#67ADD7"/>
</linearGradient>
</defs>
</svg>
