<svg width="40" height="40" viewBox="0 0 40 40" fill="none" xmlns="http://www.w3.org/2000/svg">
<path d="M30.9165 16.6127V15.9164C30.9165 9.88275 26.0344 5 20 5C13.9807 5 9.08359 9.89711 9.08359 15.9164V16.6127C6.68918 17.2917 4.86007 19.5783 5.00842 22.3424C5.16878 25.3297 7.67477 27.6666 10.6235 27.6666C12.0766 27.6666 13.2548 26.4938 13.2548 25.0398V19.0255C13.2548 17.6491 12.1933 16.5143 10.8483 16.408V15.9165C10.8483 10.8702 14.9538 6.76476 20 6.76476C25.0584 6.76476 29.1518 10.8576 29.1518 15.9165V16.4078C27.8083 16.5127 26.7453 17.6482 26.7453 19.0256V25.0399C26.7453 26.4161 27.802 27.5435 29.1518 27.6567C29.1518 30.0449 27.2817 31.7059 25.1841 31.7059H23.2634C22.9104 30.8114 22.038 30.1765 21.0196 30.1765H18.9804C17.6506 30.1765 16.5686 31.2584 16.5686 32.5882C16.5686 33.9181 17.6506 35 18.9804 35H21.0196C22.038 35 22.9104 34.3651 23.2634 33.4706H25.1841C28.3449 33.4706 30.9164 30.8988 30.9164 27.7377V27.4483C33.1679 26.7994 34.8611 24.7743 34.9916 22.3424C35.1395 19.5879 33.3192 17.2942 30.9165 16.6127ZM11.4901 19.0255V25.0398C11.4901 25.4856 11.1474 25.9124 10.5553 25.9012C8.54083 25.8617 6.87836 24.2569 6.77054 22.2478C6.65048 20.0117 8.42159 18.1637 10.6335 18.1637H10.6486C11.1126 18.1655 11.4901 18.5521 11.4901 19.0255ZM21.0196 33.2352H18.9805C18.6237 33.2352 18.3334 32.9449 18.3334 32.5882C18.3334 32.2314 18.6237 31.9411 18.9805 31.9411H21.0196C21.377 31.9411 21.6675 32.2324 21.6666 32.5899C21.6656 32.9459 21.3758 33.2352 21.0196 33.2352ZM33.2295 22.2478C33.1217 24.2569 31.4592 25.8617 29.4448 25.9012C28.8635 25.913 28.51 25.4951 28.51 25.0398V19.0255C28.51 18.5521 28.8874 18.1655 29.348 18.1637H29.3664C31.5787 18.1637 33.3495 20.0119 33.2295 22.2478Z" fill="url(#paint0_linear_338_3678)"/>
<path d="M20.6625 26.7383L24.9891 22.613C26.3369 21.3279 26.337 19.2479 24.9891 17.9628C23.7493 16.7806 21.6009 16.5436 20 18.0695C18.4209 16.5642 16.2694 16.7627 15.0109 17.9627C13.6631 19.2479 13.663 21.3278 15.0109 22.613L19.3375 26.7383C19.7033 27.0872 20.2966 27.0872 20.6625 26.7383ZM16.3359 19.2261C16.9499 18.6408 17.9489 18.6407 18.5629 19.2261L19.3374 19.9646C19.7032 20.3135 20.2965 20.3135 20.6624 19.9646L21.4369 19.2261C22.051 18.6407 23.0499 18.6407 23.6639 19.2261C24.2793 19.8129 24.2794 20.7626 23.6639 21.3495L19.9999 24.8431L16.3358 21.3495C15.7205 20.7628 15.7205 19.813 16.3359 19.2261Z" fill="url(#paint1_linear_338_3678)"/>
<defs>
<linearGradient id="paint0_linear_338_3678" x1="4.75207" y1="5" x2="38.8925" y2="10.4028" gradientUnits="userSpaceOnUse">
<stop stop-color="#67ADD7"/>
<stop offset="1" stop-color="#67ADD7"/>
</linearGradient>
<linearGradient id="paint1_linear_338_3678" x1="13.9008" y1="17" x2="27.4118" y2="19.5658" gradientUnits="userSpaceOnUse">
<stop stop-color="#67ADD7"/>
<stop offset="1" stop-color="#67ADD7"/>
</linearGradient>
</defs>
</svg>
