<svg width="40" height="40" viewBox="0 0 40 40" fill="none" xmlns="http://www.w3.org/2000/svg">
<path fill-rule="evenodd" clip-rule="evenodd" d="M16.4875 6.79773C17.679 6.02459 19.0166 5.80822 20.4067 5.87594C21.5 5.92918 22.5472 6.17291 23.4831 6.77827L23.489 6.78207C23.5463 6.81917 23.6041 6.85656 23.6563 6.90017C23.7246 6.95717 23.7905 7.017 23.8413 7.06309L23.8414 7.06321C23.8598 7.07991 23.8762 7.0948 23.89 7.1071C24.9519 8.16792 24.716 9.65902 23.3776 10.4645C22.0681 11.2525 20.6276 11.4296 19.1359 11.2728C18.161 11.1702 17.2287 10.9161 16.4146 10.3373C15.0891 9.39497 15.1176 7.68651 16.4875 6.79773ZM17.4451 8.83653C17.5649 8.92699 17.6968 9.00873 17.835 9.06607C19.2659 9.65917 20.7053 9.66292 22.1341 9.07315C22.2866 9.01015 22.4138 8.88568 22.541 8.76123C22.5998 8.7037 22.6586 8.64616 22.7198 8.59471C22.6583 8.54342 22.5992 8.48627 22.5402 8.42913C22.4124 8.30554 22.2847 8.18195 22.132 8.1176C20.7372 7.52991 19.3256 7.53028 17.9175 8.08322C17.7887 8.13377 17.6692 8.20764 17.5811 8.26207C17.5488 8.28205 17.5207 8.29942 17.4979 8.31204C17.2262 8.56357 17.2251 8.67029 17.4451 8.83653ZM1.30778 16.7854L1.30782 16.7854C1.36902 16.7914 1.43023 16.7975 1.49144 16.7975C2.17761 16.7977 2.86379 16.7976 3.54998 16.7974H3.55016C5.45488 16.7971 7.35963 16.7967 9.26434 16.8038C9.4959 16.8047 9.59343 16.7246 9.68668 16.5245C11.0598 13.5789 14.5225 12.3139 17.3512 13.7191C18.357 14.2187 19.1145 14.9914 19.7368 15.91C19.7746 15.9657 19.8141 16.0202 19.8552 16.0768L19.8552 16.0769L19.8553 16.077L19.8556 16.0773C19.8747 16.1036 19.8941 16.1304 19.9138 16.158C20.0007 16.0462 20.085 15.9351 20.1684 15.8253L20.169 15.8245L20.1691 15.8243L20.1692 15.8243L20.1692 15.8242L20.1692 15.8242C20.3459 15.5914 20.5184 15.364 20.7031 15.1471C22.8858 12.584 26.7304 12.4588 29.043 14.9077C29.3701 15.2541 29.6245 15.6697 29.8784 16.0846C29.9792 16.2494 30.08 16.414 30.1852 16.5741C30.1954 16.5897 30.205 16.6051 30.2143 16.6201C30.2763 16.7198 30.3267 16.8008 30.4881 16.8003C32.5464 16.7942 34.6047 16.7937 36.663 16.7933L36.6727 16.7932C37.3438 16.7931 38.0149 16.7929 38.686 16.7926C38.7057 16.7926 38.7253 16.7868 38.7449 16.7809C38.754 16.7782 38.763 16.7756 38.7719 16.7735L38.8149 16.8164L38.8076 17.1187L38.8076 17.1201C38.8023 17.341 38.7971 17.5619 38.7903 17.7827C38.7473 19.1773 38.1825 20.3191 37.1318 21.2318C37.0463 21.3061 36.9755 21.4431 36.9686 21.5553C36.8835 22.9384 36.2873 24.0527 35.2346 24.9397C35.1548 25.0069 35.0907 25.1333 35.0814 25.2378C34.847 27.8521 32.9604 29.5792 30.3317 29.5743C29.7184 29.5731 29.1051 29.5715 28.4918 29.57H28.4917H28.4917H28.4917C26.9078 29.5659 25.3239 29.5618 23.74 29.5652C23.5838 29.5656 23.3946 29.6244 23.277 29.723C22.2226 30.608 21.1766 31.5033 20.1393 32.4083C19.972 32.5543 19.8699 32.5548 19.7085 32.4152C19.2351 32.0058 18.7596 31.5988 18.2841 31.1918L18.284 31.1917C17.7293 30.7168 17.1746 30.242 16.6232 29.7634C16.46 29.6217 16.3033 29.5529 16.0834 29.5543C14.914 29.5617 13.7445 29.5648 12.5749 29.568L12.5727 29.5681C11.5761 29.5708 10.5794 29.5735 9.58281 29.5788C8.72293 29.5834 7.91853 29.3916 7.17388 28.9595C7.04996 28.8876 6.92766 28.8128 6.80535 28.7381L6.80529 28.7381L6.80524 28.738L6.8052 28.738L6.80517 28.738C6.74857 28.7034 6.69198 28.6688 6.63522 28.6345L5.86199 27.8613C5.85962 27.8522 5.85804 27.8426 5.85645 27.8329C5.85305 27.8121 5.84964 27.7914 5.83842 27.7766C5.26681 27.0211 4.97012 26.1682 4.90759 25.2249C4.90039 25.1164 4.81074 24.9894 4.72263 24.9138C3.69835 24.0342 3.11509 22.9367 3.02597 21.5802C3.01808 21.459 2.94613 21.311 2.85502 21.2313C1.81016 20.3169 1.24603 19.1776 1.2049 17.7852C1.19849 17.5672 1.19324 17.3492 1.18799 17.1311L1.18039 16.8206L1.22336 16.7776C1.25145 16.7798 1.27955 16.7826 1.30765 16.7854L1.30778 16.7854ZM11.7004 16.6703C10.6785 18.1945 10.5797 19.8246 11.2848 21.4996C11.7593 22.6267 12.5436 23.5436 13.3872 24.4094C14.7638 25.822 16.2701 27.0882 17.7764 28.3544L17.7764 28.3545C18.4313 28.905 19.0863 29.4556 19.7306 30.0181C19.8885 30.1561 19.9905 30.1239 20.1387 29.9966C20.7491 29.4721 21.3621 28.9506 21.9751 28.4292L21.9756 28.4287L21.9757 28.4287L21.9757 28.4286C22.8427 27.6911 23.7096 26.9537 24.5691 26.2075C25.7323 25.1979 26.8506 24.1405 27.76 22.8852C28.6505 21.6559 29.1624 20.3188 28.9563 18.7683C28.7107 16.9214 27.5012 15.4788 25.8521 15.0838C24.1463 14.6751 22.5603 15.3727 21.5602 17.0301C21.3103 17.4444 21.108 17.8874 20.8959 18.3521L20.8959 18.3521C20.796 18.5708 20.694 18.7944 20.5838 19.0219C20.5084 19.0194 20.4269 19.0161 20.3412 19.0126C20.1379 19.0045 19.9105 18.9954 19.6832 18.9922L19.6706 18.992C19.1827 18.9851 19.1801 18.9851 19.0144 18.5264C18.7481 17.7894 18.3911 17.1039 17.9097 16.4807C16.3067 14.4054 13.1624 14.4897 11.7004 16.6703ZM29.7662 23.1648C30.588 21.775 30.9681 20.2802 30.7785 18.6854L36.7617 18.7021C36.4888 19.6414 35.4515 20.4021 34.3096 20.4343C33.7061 20.4513 33.1019 20.4463 32.4978 20.4412H32.4977H32.4977H32.4976C32.3831 20.4403 32.2687 20.4393 32.1542 20.4385C32.0847 20.438 32.0153 20.4148 31.9527 20.3939C31.9256 20.3849 31.8998 20.3763 31.8758 20.3701L31.8724 22.2283L34.9947 22.2137C34.7433 22.9371 34.315 23.4055 33.7293 23.743C33.2497 24.0194 32.7239 24.094 32.1809 24.0975C31.6861 24.1008 31.1914 24.1065 30.6978 24.1122H30.6977H30.6976C30.4861 24.1146 30.2748 24.1171 30.0639 24.1193L30.1023 25.9656L33.0721 25.9012C32.8677 26.8056 31.9274 27.6714 30.8959 27.7063C29.6758 27.7475 28.4535 27.725 27.2283 27.7023L27.2277 27.7023C26.711 27.6928 26.1937 27.6832 25.6759 27.6785C25.8461 27.5209 26.0179 27.3636 26.1901 27.2058L26.1904 27.2055L26.1905 27.2055C26.573 26.855 26.9581 26.5023 27.3335 26.1395C28.2601 25.2439 29.1074 24.279 29.7662 23.1648ZM3.22971 18.7038C3.54601 19.6886 4.56791 20.4174 5.72963 20.4403C6.20443 20.4497 6.67941 20.4478 7.15439 20.4459H7.15463L7.15509 20.4459C7.39878 20.4449 7.64247 20.444 7.88614 20.4445C7.94905 20.4446 8.01193 20.4504 8.05709 20.4546C8.07368 20.4561 8.08787 20.4574 8.0988 20.4582L8.10371 22.27L4.95616 22.268C5.02137 22.3711 5.08028 22.4704 5.1368 22.5658C5.25321 22.7621 5.35951 22.9414 5.49004 23.1009C6.08399 23.8264 6.8812 24.1062 7.79994 24.1014C8.29627 24.0989 8.79259 24.1023 9.28496 24.1056C9.50198 24.1071 9.71823 24.1086 9.93338 24.1095L9.91358 25.9648L6.90167 25.9116C7.25413 27.0136 8.29011 27.7468 9.48097 27.7518C10.5531 27.7565 11.6252 27.7517 12.6973 27.747C13.1236 27.7451 13.55 27.7432 13.9763 27.7419C14.0198 27.7418 14.0634 27.7387 14.1134 27.7351H14.1134C14.1393 27.7332 14.1668 27.7313 14.197 27.7295C14.1853 27.7108 14.1765 27.6951 14.1691 27.682C14.1563 27.6592 14.1477 27.6438 14.1352 27.6325C14.0681 27.571 14.0002 27.5105 13.9322 27.4499L13.9321 27.4498C13.8716 27.3959 13.8111 27.3421 13.7513 27.2876C12.5827 26.2235 11.4353 25.1395 10.5191 23.8392C9.45971 22.3358 8.87217 20.6939 9.0554 18.8267C9.06172 18.7617 9.0488 18.6949 9.04987 18.713L3.22971 18.7038Z" fill="url(#paint0_linear_351_63)"/>
<defs>
<linearGradient id="paint0_linear_351_63" x1="0.869361" y1="5.86426" x2="42.6831" y2="15.2071" gradientUnits="userSpaceOnUse">
<stop stop-color="#67ADD7"/>
<stop offset="1" stop-color="#67ADD7"/>
</linearGradient>
</defs>
</svg>
