<svg width="20" height="20" viewBox="0 0 20 20" fill="none" xmlns="http://www.w3.org/2000/svg">
<path fill-rule="evenodd" clip-rule="evenodd" d="M7.44218 0H12.5597C13.2795 0 13.8651 0.585625 13.8651 1.30547V3.00244H19.322V4.569H17.6632L16.3682 19.2849C16.3329 19.6894 15.994 19.9998 15.588 19.9998H4.38723C3.98125 19.9998 3.64258 19.6896 3.60707 19.2852L2.31207 4.569H0.679688V3.00244H6.13672V1.30547C6.13672 0.585625 6.72234 0 7.44218 0ZM7.70328 3.00244H12.2986V1.56656H7.70328V3.00244ZM14.8705 18.4333H5.10449L3.88465 4.569H16.0907L14.8705 18.4333ZM7.755 6.83789L8.09441 16.1068L6.52891 16.1642L6.18945 6.89535L7.755 6.83789ZM13.8112 6.89531L12.2457 6.83789L11.9062 16.1068L13.4718 16.164L13.8112 6.89531ZM10.7834 6.8667H9.2168V16.1357H10.7834V6.8667Z" fill="url(#paint0_linear_336_34)"/>
<defs>
<linearGradient id="paint0_linear_336_34" x1="0.525619" y1="-1.05417e-06" x2="21.809" y2="3.13951" gradientUnits="userSpaceOnUse">
<stop stop-color="#67ADD7"/>
<stop offset="1" stop-color="#67ADD7"/>
</linearGradient>
</defs>
</svg>
